<svg width="333" height="419" fill="none" xmlns="http://www.w3.org/2000/svg" preserveAspectRatio="none"><path d="M176.245 358.057c1.647-1.069 1.783-3.777.305-6.049-1.478-2.272-4.012-3.247-5.659-2.178-1.647 1.069-1.784 3.778-.306 6.049 1.479 2.272 4.013 3.247 5.66 2.178zm-82.211-40.403c1.61-.668 2.312-2.663 1.566-4.457-.746-1.794-2.657-2.707-4.268-2.039-1.61.668-2.312 2.664-1.566 4.458.746 1.794 2.657 2.707 4.268 2.038zm97.66 96.581c.277-2.11-2.586-4.223-6.394-4.72-3.807-.498-7.118.809-7.394 2.919-.276 2.109 2.587 4.223 6.394 4.72 3.808.497 7.118-.81 7.394-2.919zM71.31 10.636c.766-2.632.074-5.146-1.546-5.616-1.62-.47-3.553 1.283-4.318 3.914-.766 2.632-.074 5.146 1.546 5.616 1.62.47 3.553-1.283 4.318-3.914zm34.672 14.491c3.724 0 6.743-1.675 6.743-3.74 0-2.067-3.019-3.741-6.743-3.741s-6.743 1.674-6.743 3.74c0 2.066 3.019 3.74 6.743 3.74zm17.046.144c2.093-3.16 2.148-6.805.123-8.143-2.025-1.337-5.362.14-7.455 3.3-2.093 3.16-2.148 6.806-.123 8.143 2.024 1.338 5.362-.14 7.455-3.3zM44.134 6.478c.663-2.28-.271-4.555-2.087-5.082-1.816-.527-3.826.894-4.489 3.174-.663 2.28.271 4.555 2.087 5.082 1.816.527 3.826-.894 4.49-3.174zm34.638 2.803c1.505-.976 1.63-3.45.28-5.524-1.35-2.075-3.664-2.965-5.169-1.989-1.505.977-1.63 3.45-.28 5.525 1.35 2.075 3.665 2.965 5.17 1.988zm-1.949 84.202c.813-1.524-.463-3.79-2.85-5.06-2.387-1.271-4.982-1.066-5.795.458-.814 1.523.463 3.789 2.85 5.06 2.387 1.27 4.982 1.066 5.795-.458zm73.025 283.185c1.567-3.573 1.054-7.249-1.145-8.21-2.199-.962-5.251 1.155-6.818 4.728-1.567 3.572-1.054 7.248 1.145 8.21 2.199.962 5.251-1.155 6.818-4.728zm127.734-180.086c.275-2.098-2.567-4.199-6.348-4.693-3.781-.494-7.069.807-7.343 2.905-.275 2.098 2.567 4.199 6.348 4.693 3.781.493 7.068-.807 7.343-2.905zM126.751 371.795c.995-2.271.467-4.695-1.18-5.415-1.648-.721-3.79.535-4.786 2.806-.995 2.27-.467 4.694 1.181 5.414 1.647.721 3.789-.535 4.785-2.805zm47.114-7.998c.943-2.15.317-4.501-1.397-5.25-1.715-.75-3.869.385-4.812 2.535-.942 2.15-.317 4.501 1.398 5.25 1.714.75 3.868-.385 4.811-2.535zM78.798 243.676c1.272-1.093.856-3.659-.93-5.73-1.784-2.07-4.263-2.862-5.535-1.768-1.272 1.094-.856 3.659.929 5.73 1.785 2.071 4.264 2.862 5.536 1.768zm22.084 56.091c.841-2.891.081-5.652-1.698-6.168-1.779-.517-3.903 1.408-4.743 4.299-.841 2.89-.081 5.652 1.698 6.168s3.903-1.409 4.743-4.299zM182 301.319c1.681-1.679.69-5.39-2.213-8.29-2.904-2.9-6.62-3.89-8.301-2.211-1.681 1.679-.69 5.391 2.213 8.29 2.904 2.9 6.62 3.89 8.301 2.211zm9.237-106.157c2.535-2.532 1.04-8.13-3.34-12.504-4.38-4.374-9.986-5.867-12.521-3.336-2.535 2.532-1.039 8.13 3.341 12.504 4.379 4.374 9.985 5.868 12.52 3.336zm-27.063 65.717c.056-1.309-1.69-2.446-3.899-2.54-2.21-.094-4.046.892-4.102 2.201-.055 1.309 1.691 2.446 3.9 2.54 2.209.094 4.046-.892 4.101-2.201zm-43.875 49.356c.688-2.365-.145-4.685-1.861-5.183-1.716-.498-3.664 1.016-4.352 3.381-.688 2.365.145 4.685 1.861 5.183 1.716.498 3.664-1.016 4.352-3.381zm66.061-152.617c.654-2.246-.135-4.45-1.762-4.922-1.627-.472-3.476.966-4.129 3.213-.654 2.246.135 4.45 1.762 4.922 1.627.472 3.476-.966 4.129-3.213zm-31.004 106.218c1.216-3.232-1.903-7.394-6.968-9.295-5.064-1.901-10.157-.822-11.373 2.411-1.217 3.232 1.903 7.394 6.967 9.295 5.065 1.901 10.157.822 11.374-2.411zm-42.243 8.959c1.791-2.704 1.838-5.822.106-6.966-1.731-1.144-4.587.12-6.377 2.824-1.791 2.703-1.838 5.822-.106 6.966 1.731 1.144 4.587-.121 6.377-2.824zm2.8 22.167c1.728-1.121 1.869-3.966.315-6.354-1.554-2.389-4.215-3.415-5.943-2.294-1.728 1.122-1.869 3.967-.315 6.355 1.554 2.388 4.215 3.415 5.943 2.293zm4.366 31.629c2.007-1.725 1.353-5.768-1.46-9.031-2.813-3.262-6.719-4.508-8.726-2.783-2.006 1.725-1.352 5.768 1.461 9.031 2.813 3.262 6.719 4.508 8.725 2.783zm77.594 46.331c2-1.997.821-6.414-2.634-9.864-3.455-3.45-7.877-4.628-9.877-2.63-2 1.998-.821 6.414 2.634 9.864 3.454 3.45 7.877 4.628 9.877 2.63zm-97.19-45.21c1.877-1.218 2.038-4.296.36-6.875-1.678-2.579-4.56-3.682-6.437-2.464-1.877 1.218-2.038 4.296-.36 6.875 1.679 2.579 4.56 3.682 6.437 2.464zm56.47 30.587c3.829 0 6.932-1.721 6.932-3.845 0-2.123-3.103-3.845-6.932-3.845-3.828 0-6.931 1.722-6.931 3.845 0 2.124 3.103 3.845 6.931 3.845zm-19.3-2.537c.636-2.187-.134-4.333-1.72-4.793-1.586-.461-3.388.94-4.024 3.127-.636 2.187.134 4.333 1.72 4.794 1.586.46 3.388-.94 4.024-3.128z" fill="#fff"/><path d="M128.92 324.491c2.023-3.049 2.082-6.567.131-7.858-1.951-1.291-5.172.134-7.195 3.183-2.023 3.048-2.081 6.566-.13 7.857 1.95 1.291 5.172-.134 7.194-3.182zm9.513 21.99c1.682-1.081 1.833-3.841.337-6.165-1.496-2.325-4.073-3.333-5.756-2.253-1.682 1.08-1.833 3.84-.337 6.165 1.496 2.324 4.073 3.333 5.756 2.253zm21.379 2.946c2.849-.591 4.846-2.575 4.459-4.432-.386-1.856-3.009-2.882-5.858-2.291-2.849.591-4.845 2.576-4.459 4.432.386 1.857 3.009 2.883 5.858 2.291zm12.082-80.485c1.444-1.108 1.059-4.028-.86-6.522-1.919-2.493-4.646-3.616-6.09-2.507s-1.059 4.029.86 6.522c1.92 2.494 4.646 3.616 6.09 2.507zm23.614 22.792c.748-1.401-.429-3.486-2.629-4.658-2.2-1.171-4.59-.984-5.338.417-.748 1.401.429 3.487 2.629 4.658 2.2 1.171 4.59.984 5.338-.417zm8.185 18.549c2.702-.202 4.785-1.793 4.653-3.553-.132-1.761-2.429-3.024-5.131-2.822-2.701.202-4.784 1.793-4.653 3.553.132 1.76 2.429 3.024 5.131 2.822zm-118.125-5.635c1.41-.924 1.333-3.53-.173-5.822-1.505-2.291-3.868-3.399-5.278-2.475-1.41.924-1.333 3.53.172 5.821s3.869 3.4 5.279 2.476zm-8.691-20.17c2.344-5.345 1.579-10.843-1.71-12.281-3.287-1.438-7.852 1.729-10.196 7.074-2.344 5.345-1.579 10.844 1.709 12.282 3.288 1.438 7.853-1.73 10.197-7.075z" fill="#fff"/><path d="M83.523 293.493c.907-2.069.307-4.33-1.34-5.05-1.648-.721-3.718.372-4.626 2.441-.907 2.069-.307 4.33 1.34 5.051 1.648.72 3.719-.373 4.626-2.442zm107.833-158.971c.969-2.21.328-4.626-1.433-5.396-1.76-.77-3.973.398-4.942 2.608-.969 2.21-.328 4.625 1.433 5.395 1.76.77 3.973-.397 4.942-2.607zm-7.876 95.519c1.878-1.615 1.267-5.398-1.365-8.45-2.631-3.052-6.286-4.217-8.164-2.603-1.877 1.615-1.266 5.398 1.365 8.45 2.632 3.052 6.287 4.217 8.164 2.603zm17.1-55.456c.744-2.558.073-5-1.498-5.456-1.572-.456-3.449 1.247-4.193 3.805-.744 2.557-.073 5 1.499 5.456 1.571.456 3.448-1.248 4.192-3.805zm63.833 1.486c1.312-1.311.536-4.212-1.735-6.479-2.27-2.268-5.175-3.043-6.487-1.732-1.313 1.311-.536 4.211 1.734 6.479 2.271 2.267 5.175 3.043 6.488 1.732zm-35.407-42.08c.06-1.413-1.823-2.641-4.206-2.742-2.383-.101-4.363.963-4.424 2.376-.06 1.414 1.823 2.641 4.206 2.742 2.383.101 4.364-.963 4.424-2.376zm9.653 51.703c6.248 0 11.313-2.809 11.313-6.273 0-3.465-5.065-6.274-11.313-6.274s-11.313 2.809-11.313 6.274c0 3.464 5.065 6.273 11.313 6.273zm-27.877-5.452c.662-2.276-.138-4.509-1.788-4.988-1.649-.478-3.522.979-4.185 3.255-.662 2.276.138 4.509 1.788 4.988 1.649.478 3.522-.979 4.185-3.255zm37.009-41.382c.604-1.605-.947-3.673-3.465-4.618-2.518-.945-5.049-.41-5.653 1.195-.604 1.606.947 3.673 3.465 4.619 2.518.945 5.049.41 5.653-1.196zM193.82 260.03c1.374-4.722-.562-9.436-4.323-10.527-3.762-1.091-7.925 1.852-9.299 6.575-1.374 4.722.562 9.436 4.323 10.527 3.762 1.091 7.925-1.852 9.299-6.575zm52.118-100.197c2.785-.578 4.736-2.518 4.359-4.333-.378-1.815-2.942-2.818-5.727-2.24-2.784.578-4.736 2.518-4.358 4.333.378 1.815 2.941 2.818 5.726 2.24zm31.832 48.418c1.342-1.154.905-3.858-.976-6.04s-4.494-3.015-5.836-1.86c-1.343 1.154-.906 3.858.975 6.04s4.494 3.015 5.837 1.86zm-57.197 17.941c.769-2.642.073-5.167-1.553-5.639-1.627-.472-3.57 1.287-4.338 3.93-.769 2.642-.073 5.167 1.554 5.639 1.627.472 3.569-1.287 4.337-3.93zM187.831 43.614c.758-2.606.074-5.095-1.527-5.56-1.601-.464-3.513 1.272-4.271 3.877-.758 2.606-.074 5.095 1.527 5.56 1.6.464 3.513-1.272 4.271-3.877zm91.53 184.114c1.815-1.812.744-5.82-2.392-8.951-3.135-3.132-7.148-4.201-8.963-2.389-1.815 1.813-.744 5.82 2.392 8.952 3.135 3.131 7.148 4.2 8.963 2.388zm-71.355 64.466c.757-5.786-1.237-10.817-4.456-11.237-3.218-.42-6.441 3.929-7.199 9.715-.757 5.786 1.238 10.817 4.456 11.237 3.218.421 6.441-3.929 7.199-9.715zm7.826 37.005c.631-2.169-.134-4.297-1.709-4.754-1.575-.457-3.363.93-3.994 3.099-.631 2.169.134 4.298 1.709 4.755 1.575.457 3.363-.931 3.994-3.1zm56.358-148.126c.588-1.562-.921-3.573-3.37-4.493-2.449-.919-4.912-.398-5.499 1.164-.588 1.562.92 3.574 3.37 4.493 2.449.92 4.911.399 5.499-1.164zm-29.992 102.245c1.375-1.374.566-4.409-1.809-6.78-2.374-2.371-5.413-3.18-6.789-1.806-1.375 1.373-.565 4.409 1.809 6.78 2.374 2.371 5.413 3.179 6.789 1.806z" fill="#fff"/><path d="M249.899 288.162c.603-1.602-.944-3.664-3.454-4.607-2.511-.942-5.035-.408-5.638 1.194-.603 1.602.944 3.664 3.455 4.607 2.51.942 5.034.408 5.637-1.194zm1.224 93.161c1.308-1.306.533-4.195-1.729-6.455-2.262-2.259-5.156-3.032-6.463-1.727-1.307 1.306-.533 4.195 1.729 6.455 2.263 2.259 5.156 3.032 6.463 1.727zm7.822 5.008c.592-1.573-.925-3.598-3.389-4.523-2.464-.924-4.941-.399-5.533 1.174-.592 1.573.925 3.598 3.389 4.522 2.464.925 4.941.4 5.533-1.173zm-66.558-172.13c1.321-1.319.54-4.237-1.744-6.518-2.284-2.281-5.207-3.061-6.527-1.742-1.321 1.319-.54 4.237 1.744 6.518 2.284 2.281 5.206 3.061 6.527 1.742zm7.757 4.966c.589-1.566-.922-3.582-3.375-4.502-2.452-.921-4.919-.398-5.508 1.167-.589 1.566.921 3.582 3.374 4.503 2.453.92 4.919.397 5.509-1.168zM99.563 66.12c1.269-1.267.521-4.068-1.67-6.256-2.191-2.189-4.996-2.935-6.265-1.668-1.27 1.267-.522 4.069 1.67 6.257 2.191 2.188 4.996 2.935 6.265 1.668zm8.022 5.186c.601-1.598-.94-3.656-3.444-4.595-2.503-.94-5.02-.406-5.622 1.192-.601 1.598.94 3.656 3.444 4.595 2.503.94 5.02.406 5.622-1.192zm123.275 125.47c1.803-2.723 1.853-5.863.111-7.013-1.741-1.15-4.615.125-6.418 2.847-1.803 2.723-1.853 5.863-.112 7.013 1.742 1.15 4.615-.125 6.419-2.847zm-24.804-1.284c1.163-3.997-.475-7.986-3.659-8.91-3.183-.923-6.706 1.568-7.869 5.565-1.163 3.998.475 7.987 3.658 8.91 3.184.924 6.707-1.568 7.87-5.565zm33.024 21.175c1.689-1.096 1.829-3.874.313-6.204-1.516-2.33-4.115-3.33-5.804-2.234-1.689 1.097-1.829 3.874-.313 6.204 1.516 2.33 4.115 3.33 5.804 2.234zm63.877 31.265c3.846-.798 6.542-3.476 6.021-5.982-.522-2.506-4.063-3.89-7.909-3.091-3.847.798-6.542 3.476-6.021 5.982.521 2.506 4.062 3.89 7.909 3.091zM73.383 24.018c1.414-1.086 1.038-3.942-.839-6.38-1.876-2.439-4.544-3.536-5.958-2.45-1.413 1.085-1.037 3.941.84 6.38 1.876 2.438 4.544 3.535 5.957 2.45zM312.39 199.3c1.704-.633 2.77-1.992 2.381-3.036-.388-1.044-2.085-1.377-3.788-.745-1.704.633-2.77 1.992-2.381 3.036.388 1.044 2.085 1.378 3.788.745zm1.225 24.003c.235-1.344-1.415-2.754-3.685-3.149-2.27-.394-4.3.375-4.534 1.719-.235 1.344 1.415 2.754 3.685 3.149s4.3-.375 4.534-1.719zm-3.179-40.519c.249-1.906-2.334-3.816-5.77-4.265-3.437-.449-6.425.733-6.675 2.64-.249 1.907 2.334 3.817 5.77 4.266 3.437.449 6.425-.734 6.675-2.641zm19.91-.396c.963-2.196.454-4.54-1.137-5.236-1.591-.696-3.661.521-4.624 2.717-.963 2.195-.454 4.54 1.137 5.235 1.59.696 3.661-.52 4.624-2.716zm-27.002 37.624c.775-1.452-.444-3.612-2.722-4.825s-4.754-1.019-5.529.433c-.775 1.452.444 3.613 2.722 4.826 2.278 1.213 4.754 1.019 5.529-.434zM198.997 102.12c1.009-2.302.475-4.76-1.194-5.49-1.669-.729-3.84.546-4.849 2.847-1.009 2.302-.475 4.76 1.194 5.489 1.668.73 3.839-.544 4.849-2.846zm9.794 10.015c2.573-1.23 3.278-5.107 1.576-8.66s-5.168-5.437-7.741-4.207c-2.572 1.229-3.278 5.106-1.576 8.659 1.703 3.553 5.168 5.437 7.741 4.208zM48.863 53.556c1.816-1.19 1.717-4.548-.222-7.5-1.94-2.952-4.984-4.38-6.801-3.19-1.817 1.191-1.717 4.549.222 7.5 1.94 2.952 4.984 4.38 6.8 3.19zm207.412 165.258c.677-2.316-.135-4.59-1.814-5.079-1.678-.489-3.587.993-4.263 3.309-.677 2.316.135 4.59 1.814 5.079 1.678.488 3.587-.993 4.263-3.309zm-5.32 9.387c1.388-.91 1.311-3.475-.171-5.731s-3.808-3.347-5.195-2.438c-1.388.909-1.311 3.475.171 5.73 1.482 2.256 3.808 3.348 5.195 2.439zM110.202 340.5c.672-2.31-.141-4.576-1.816-5.062-1.675-.486-3.578.992-4.25 3.302-.672 2.309.142 4.575 1.817 5.061 1.675.486 3.578-.992 4.249-3.301zm-5.103 9.717c1.401-.918 1.323-3.509-.174-5.787-1.497-2.278-3.846-3.381-5.246-2.464-1.4.918-1.322 3.509.175 5.787 1.496 2.278 3.845 3.381 5.245 2.464zm222.083-208.781c1.465-3.34.987-6.776-1.067-7.674-2.054-.898-4.906 1.081-6.37 4.421-1.465 3.34-.987 6.775 1.067 7.673 2.054.899 4.906-1.08 6.37-4.42zm-49.686-5.496c1.662-1.275 1.22-4.633-.986-7.499-2.206-2.866-5.342-4.155-7.003-2.88-1.662 1.275-1.22 4.633.986 7.499 2.206 2.866 5.342 4.156 7.003 2.88zm28.767 32.808c.498-2.855-3.007-5.85-7.828-6.688-4.821-.839-9.133.796-9.631 3.651-.498 2.856 3.007 5.85 7.828 6.689 4.821.838 9.133-.797 9.631-3.652zm-31.321-9.065c1.59-1.963.09-5.806-3.349-8.583s-7.515-3.437-9.105-1.474c-1.589 1.963-.09 5.805 3.349 8.583 3.439 2.777 7.516 3.437 9.105 1.474zm14.763-35.839c.287-2.194-2.685-4.391-6.638-4.907s-7.39.844-7.677 3.037c-.288 2.194 2.684 4.39 6.637 4.907 3.953.516 7.39-.844 7.678-3.037zM19.853 113.406c1.554-1.193 1.14-4.335-.925-7.018s-5-3.89-6.554-2.697c-1.554 1.193-1.14 4.335.925 7.018s5 3.89 6.554 2.697zm13.029-11.714c.31-2.362-2.895-4.728-7.158-5.284-4.263-.557-7.97.906-8.279 3.268-.31 2.362 2.896 4.727 7.159 5.284 4.263.557 7.97-.906 8.278-3.268zm283.463 37.662c1.838-4.191.863-8.666-2.177-9.995-3.04-1.33-6.995.989-8.832 5.18-1.838 4.191-.863 8.666 2.177 9.995 3.04 1.33 6.995-.989 8.832-5.18zm-34.214 26.796c.732-1.37-.417-3.409-2.566-4.553-2.149-1.144-4.484-.96-5.216.411-.732 1.37.417 3.409 2.566 4.553 2.149 1.144 4.484.96 5.216-.411zm5.304 67.057c.734-1.374-.417-3.416-2.569-4.562-2.152-1.146-4.492-.961-5.225.413-.734 1.374.417 3.417 2.569 4.563 2.152 1.145 4.492.96 5.225-.414zm33.378-65.19c2.177-2.507 2.64-5.667 1.033-7.058-1.606-1.392-4.674-.487-6.85 2.02-2.177 2.507-2.64 5.667-1.033 7.058 1.606 1.392 4.673.487 6.85-2.02zm-14.441-13.288c2.186-1.044 2.786-4.337 1.341-7.355-1.446-3.018-4.391-4.617-6.577-3.573-2.186 1.045-2.786 4.338-1.341 7.356 1.446 3.018 4.391 4.617 6.577 3.572zM130.071 343.491c1.847-4.212.868-8.709-2.186-10.045-3.055-1.336-7.028.996-8.875 5.208-1.847 4.211-.868 8.709 2.186 10.044 3.055 1.336 7.028-.995 8.875-5.207zm-9.824 15.723c2.332-1.114 2.972-4.628 1.43-7.847-1.542-3.219-4.684-4.926-7.016-3.811-2.333 1.114-2.973 4.628-1.431 7.847 1.543 3.219 4.684 4.926 7.017 3.811zM241.381 237.26c1.783-4.067.839-8.41-2.109-9.699-2.949-1.289-6.784.962-8.568 5.029-1.783 4.067-.839 8.41 2.109 9.699 2.949 1.289 6.784-.962 8.568-5.029zm-9.679 15.708c2.291-1.095 2.92-4.544 1.406-7.704-1.514-3.161-4.598-4.835-6.889-3.741-2.291 1.095-2.92 4.544-1.406 7.704 1.514 3.161 4.598 4.835 6.889 3.741zm-16.87-121.567c1.809-4.127.849-8.534-2.145-9.843-2.994-1.31-6.889.974-8.699 5.101-1.809 4.127-.849 8.534 2.145 9.844 2.994 1.31 6.889-.975 8.699-5.102zm-9.947 15.273c2.131-1.018 2.715-4.228 1.306-7.169-1.409-2.941-4.279-4.5-6.409-3.482-2.131 1.018-2.715 4.227-1.306 7.169 1.409 2.941 4.279 4.5 6.409 3.482zm27.146 12.06c1.847-4.212.868-8.709-2.186-10.045-3.054-1.335-7.028.996-8.875 5.208-1.846 4.212-.868 8.709 2.187 10.045 3.054 1.335 7.027-.996 8.874-5.208zm-10.039 15.272c2.147-1.026 2.737-4.262 1.316-7.228s-4.314-4.538-6.462-3.511c-2.148 1.026-2.737 4.262-1.316 7.228 1.421 2.965 4.314 4.537 6.462 3.511zm-94.332-31.243c1.312-2.994.617-6.19-1.553-7.14-2.171-.949-4.995.708-6.308 3.702-1.313 2.994-.617 6.19 1.553 7.14 2.171.949 4.995-.708 6.308-3.702zm21.331-46.199c1.313-2.994.618-6.19-1.553-7.14-2.17-.949-4.994.709-6.307 3.702-1.313 2.994-.617 6.19 1.553 7.14 2.171.949 4.995-.708 6.307-3.702zm131.656 52.36c2.698-.201 4.778-1.789 4.646-3.545-.131-1.757-2.425-3.017-5.123-2.815-2.697.201-4.778 1.789-4.646 3.545.132 1.756 2.425 3.017 5.123 2.815zM250.92 96.976c.622-2.132-.125-4.224-1.67-4.674-1.545-.45-3.302.913-3.925 3.044-.622 2.131.126 4.224 1.671 4.674 1.545.45 3.302-.913 3.924-3.044z" fill="#fff"/><path d="M223.579 246.652c.616-1.638-.966-3.748-3.535-4.712-2.568-.964-5.15-.418-5.766 1.22-.617 1.638.966 3.748 3.534 4.712 2.569.964 5.15.418 5.767-1.22zm-19.251-6.592c1.374-1.054 1.006-3.834-.821-6.208-1.828-2.374-4.423-3.444-5.797-2.389-1.374 1.054-1.006 3.834.822 6.208 1.827 2.374 4.423 3.444 5.796 2.389zm.848 13.078c.843-1.578-.482-3.926-2.957-5.244-2.476-1.318-5.166-1.107-6.009.471-.842 1.578.482 3.926 2.958 5.244 2.476 1.318 5.166 1.107 6.008-.471zm48.504 76.414c1.413-4.859-.58-9.709-4.453-10.833-3.873-1.124-8.158 1.905-9.572 6.764-1.414 4.86.58 9.71 4.453 10.834 3.872 1.123 8.158-1.905 9.572-6.765zm10.688-7.81c.783-1.466-.447-3.646-2.746-4.87-2.298-1.223-4.796-1.027-5.579.439-.782 1.466.447 3.646 2.746 4.87 2.299 1.223 4.797 1.027 5.579-.439zm-57.169-52.299c2.637-.197 4.669-1.749 4.541-3.467-.129-1.718-2.371-2.951-5.007-2.754-2.636.197-4.669 1.749-4.54 3.467.129 1.718 2.37 2.951 5.006 2.754zM191.65 85.52c1.214-1.214.497-3.896-1.601-5.991-2.099-2.096-4.784-2.812-5.999-1.6-1.214 1.214-.497 3.896 1.601 5.991 2.099 2.096 4.784 2.812 5.999 1.6zm8.917 36.401c1.248-1.246.509-4.003-1.65-6.159-2.158-2.155-4.919-2.893-6.166-1.648-1.248 1.246-.509 4.003 1.65 6.159 2.158 2.155 4.919 2.893 6.166 1.648zM172.974 246.7c3.539 0 6.408-1.59 6.408-3.552s-2.869-3.552-6.408-3.552-6.408 1.59-6.408 3.552 2.869 3.552 6.408 3.552zm20.683-154.928c.607-1.613-.948-3.689-3.473-4.637-2.525-.948-5.065-.409-5.672 1.204-.606 1.613.949 3.688 3.474 4.636 2.525.948 5.064.41 5.671-1.203zm-10.386 32.966c3.922-.814 6.671-3.544 6.139-6.099-.531-2.555-4.142-3.966-8.064-3.152-3.922.814-6.67 3.545-6.139 6.1.532 2.554 4.142 3.965 8.064 3.151zm87.625-31.951c1.766-4.028 1.19-8.172-1.289-9.256-2.478-1.084-5.919 1.303-7.685 5.331-1.766 4.028-1.19 8.172 1.289 9.256 2.478 1.084 5.919-1.303 7.685-5.331zm-61.513-6.433c1.325-1.017.971-3.697-.791-5.986-1.761-2.288-4.264-3.32-5.588-2.302-1.325 1.017-.971 3.697.791 5.986 1.761 2.288 4.263 3.319 5.588 2.302zm-103.805 61.22c1.682-.624 2.734-1.968 2.349-3.002-.385-1.033-2.06-1.364-3.742-.739-1.682.625-2.734 1.969-2.349 3.002.385 1.033 2.06 1.364 3.742.739zm132.608-61.756c.267-2.044-2.506-4.092-6.195-4.574-3.689-.482-6.896.785-7.164 2.83-.268 2.044 2.506 4.092 6.195 4.574 3.688.482 6.896-.785 7.164-2.83z" fill="#fff"/><path d="M243.788 84.636c.935-2.132.438-4.41-1.111-5.087-1.548-.677-3.561.503-4.496 2.635-.935 2.133-.438 4.41 1.11 5.087 1.549.677 3.562-.502 4.497-2.635zm-20.057 37.504c.799-1.496-.456-3.722-2.802-4.971-2.347-1.249-4.896-1.048-5.695.448-.799 1.496.456 3.722 2.802 4.971 2.347 1.249 4.896 1.049 5.695-.448zM122.19 53.657c.839-1.572-.478-3.908-2.94-5.219-2.462-1.31-5.138-1.1-5.977.472-.838 1.571.478 3.908 2.94 5.218 2.462 1.311 5.138 1.1 5.977-.471zm137.941 68.07c2.43-2.798 2.946-6.325 1.153-7.878-1.793-1.553-5.216-.543-7.646 2.255-2.43 2.798-2.946 6.326-1.153 7.878 1.793 1.553 5.217.544 7.646-2.255zm14.709-13.119c1.096-2.5.371-5.232-1.619-6.102-1.991-.871-4.493.45-5.589 2.949-1.096 2.5-.371 5.232 1.619 6.102 1.991.871 4.493-.45 5.589-2.949zm-54.81-6.54c5.253-.393 9.304-3.484 9.047-6.905-.256-3.42-4.722-5.875-9.976-5.483-5.253.393-9.304 3.484-9.047 6.905.256 3.42 4.722 5.875 9.976 5.483zm5.08-27.648c.208-1.196-1.256-2.45-3.271-2.8-2.015-.35-3.818.335-4.026 1.531-.209 1.196 1.255 2.45 3.271 2.8 2.015.35 3.817-.335 4.026-1.53zm-17.885.067c.804-1.507-.46-3.748-2.824-5.006-2.363-1.259-4.931-1.057-5.735.45-.805 1.506.459 3.748 2.823 5.006s4.931 1.056 5.736-.45zm29.076-5.275c2.136-2.46 2.592-5.56 1.017-6.924-1.574-1.363-4.582-.474-6.719 1.986-2.136 2.46-2.592 5.56-1.017 6.924 1.574 1.364 4.582.474 6.719-1.986zm25.824 79.434c.997-2.273.338-4.758-1.472-5.55-1.81-.791-4.085.41-5.082 2.684-.997 2.273-.338 4.758 1.472 5.55 1.81.791 4.085-.41 5.082-2.684zm-37.711-78.713c2.455-1.173 3.129-4.869 1.507-8.255-1.623-3.386-4.927-5.18-7.382-4.008-2.454 1.173-3.128 4.869-1.506 8.255 1.622 3.386 4.927 5.18 7.381 4.008zm-88.78 202.611c.941-2.146.44-4.439-1.119-5.121-1.559-.682-3.585.506-4.527 2.652-.941 2.147-.44 4.439 1.119 5.121 1.559.682 3.586-.505 4.527-2.652zm-23.244-16.586c.221-1.268-1.335-2.598-3.475-2.97-2.141-.372-4.055.354-4.277 1.622-.221 1.268 1.335 2.598 3.476 2.97 2.14.373 4.055-.354 4.276-1.622zm10.96-5.228c2.139-2.463 2.595-5.567 1.017-6.933-1.577-1.366-4.59-.477-6.729 1.987-2.139 2.463-2.594 5.567-1.017 6.933 1.578 1.366 4.59.477 6.729-1.987zm-11.77.981c2.555-1.221 3.256-5.071 1.565-8.6-1.691-3.529-5.133-5.4-7.688-4.179-2.555 1.221-3.256 5.072-1.565 8.601 1.69 3.528 5.132 5.399 7.688 4.178zm-4.307-138.626c.694-2.655-1.721-5.585-5.395-6.543-3.675-.959-7.216.417-7.91 3.072-.695 2.655 1.72 5.584 5.395 6.543 3.674.958 7.215-.417 7.91-3.072zm60.908 32.354c.221-1.268-1.335-2.598-3.476-2.97-2.14-.372-4.055.354-4.276 1.622-.221 1.268 1.335 2.598 3.475 2.97 2.141.373 4.055-.354 4.277-1.622zm-10.967 4.147c2.243-2.583 2.721-5.837 1.067-7.268-1.653-1.432-4.811-.499-7.054 2.084-2.242 2.583-2.72 5.837-1.067 7.269 1.653 1.431 4.812.498 7.054-2.085zm-11.142 1.522c2.604-1.244 3.319-5.167 1.596-8.762-1.722-3.595-5.229-5.5-7.833-4.256-2.604 1.244-3.319 5.167-1.597 8.762 1.723 3.595 5.23 5.5 7.834 4.256zm3.028-31.14c2.569-1.228 3.274-5.098 1.575-8.644-1.699-3.546-5.159-5.425-7.728-4.198-2.569 1.228-3.275 5.098-1.576 8.644 1.699 3.546 5.159 5.426 7.729 4.198zm43.087-68.43c2.844-.212 5.037-1.886 4.898-3.739-.138-1.852-2.556-3.181-5.401-2.969-2.844.213-5.037 1.887-4.898 3.74.139 1.852 2.557 3.181 5.401 2.968zM54.789 206.444c.008-1.796-2.356-3.263-5.281-3.278-2.925-.014-5.304 1.43-5.313 3.226-.008 1.796 2.356 3.264 5.281 3.278 2.925.014 5.304-1.43 5.313-3.226zm43.08-19.892c1.583-1.018 1.52-3.93-.14-6.502-1.66-2.572-4.288-3.831-5.871-2.813-1.583 1.019-1.521 3.93.139 6.503 1.66 2.572 4.289 3.831 5.872 2.812zm24.284-4.103c4.185-.292 7.44-2.49 7.271-4.908-.169-2.418-3.699-4.142-7.884-3.85-4.185.293-7.44 2.49-7.271 4.908.17 2.419 3.699 4.142 7.884 3.85zm41.237-68.789c1.457-.937 1.589-3.323.294-5.328-1.294-2.005-3.523-2.871-4.98-1.934-1.456.938-1.588 3.323-.294 5.329 1.294 2.005 3.524 2.871 4.98 1.933zm-75.969 57.285c2.268-1.224 3.472-3.39 2.688-4.838-.783-1.448-3.257-1.629-5.525-.405-2.268 1.224-3.471 3.39-2.688 4.838.784 1.448 3.257 1.629 5.525.405zM72.805 235.81c1.745-1.123 2.014-3.809.6-5.999-1.412-2.19-3.973-3.055-5.718-1.932-1.745 1.123-2.014 3.809-.601 5.999 1.413 2.19 3.973 3.055 5.719 1.932zm64.405 13.859c1.481-.951 1.423-3.677-.129-6.089-1.553-2.412-4.012-3.596-5.494-2.645-1.481.951-1.424 3.677.129 6.089 1.552 2.412 4.012 3.596 5.494 2.645zm49.67-11.182c2.515-2.889 3.252-6.36 1.647-7.753-1.605-1.393-4.944-.181-7.458 2.707-2.514 2.889-3.252 6.36-1.647 7.753 1.605 1.393 4.944.181 7.458-2.707zm-50.579-24.531c.885-3.783-.091-7.245-2.181-7.733-2.089-.487-4.5 2.184-5.385 5.967-.885 3.783.091 7.245 2.181 7.733 2.089.487 4.5-2.184 5.385-5.967zM165.074 88.03c2.788-1.79 3.043-6.356.569-10.199-2.473-3.843-6.739-5.507-9.527-3.717-2.788 1.79-3.042 6.356-.569 10.199 2.474 3.843 6.739 5.507 9.527 3.717zm-43.622 141.038c2.071-.574 3.021-3.662 2.122-6.896-.9-3.235-3.308-5.391-5.379-4.817-2.071.575-3.021 3.662-2.122 6.897.9 3.234 3.308 5.391 5.379 4.816zm12.756-3.523c.251-1.783-1.545-3.507-4.01-3.853-2.465-.345-4.666.821-4.917 2.603-.25 1.782 1.546 3.507 4.011 3.852 2.465.345 4.666-.82 4.916-2.602zm31.827-130c.279-1.988-1.726-3.913-4.477-4.298-2.752-.385-5.209.915-5.488 2.903-.279 1.989 1.725 3.913 4.477 4.298 2.752.386 5.209-.914 5.488-2.903zm15.15-45.478c.282-2.012-1.745-3.958-4.527-4.348-2.782-.39-5.267.926-5.549 2.937-.282 2.012 1.744 3.958 4.527 4.348 2.782.389 5.266-.926 5.549-2.937zM72.1 260.841c2.179-1.399 2.095-5.406-.187-8.951-2.282-3.545-5.898-5.285-8.076-3.887-2.179 1.399-2.095 5.407.187 8.952s5.898 5.285 8.076 3.886zm79.527-87.624c.103-1.708-2.212-3.238-5.17-3.416-2.959-.179-5.441 1.061-5.544 2.769-.104 1.708 2.211 3.238 5.169 3.416 2.959.179 5.441-1.061 5.545-2.769zm27.156-11.854c.963-2.558.569-5.072-.88-5.616-1.448-.544-3.403 1.089-4.366 3.647-.962 2.558-.569 5.072.88 5.616 1.449.543 3.403-1.089 4.366-3.647zM64.268 105.264c1.069-3.199-.96-6.757-4.533-7.948-3.573-1.191-7.336.436-8.406 3.635-1.069 3.199.96 6.757 4.533 7.949 3.573 1.191 7.336-.437 8.406-3.636zm106.001 57.305c2.929-2.592 4.136-6.009 2.695-7.634-1.441-1.624-4.983-.839-7.912 1.752-2.93 2.592-4.136 6.009-2.695 7.633 1.441 1.625 4.983.84 7.912-1.751zm-76.057 33.184c2.961-2.62 4.18-6.074 2.725-7.716-1.457-1.641-5.037-.848-7.998 1.772-2.961 2.619-4.18 6.074-2.725 7.715 1.457 1.642 5.037.849 7.998-1.771zm83.774-53.731c1.559-.737 1.997-3.077.978-5.226-1.019-2.149-3.109-3.294-4.668-2.557-1.559.738-1.997 3.078-.978 5.227 1.019 2.149 3.109 3.294 4.668 2.556zm-8.157 38.193c1.733-2.32 1.909-5.116.393-6.246-1.516-1.129-4.149-.163-5.882 2.157-1.733 2.32-1.909 5.116-.393 6.245 1.515 1.129 4.149.164 5.882-2.156zm3.779-56.48c.236-1.742-1.875-3.466-4.716-3.851-2.842-.385-5.337.714-5.574 2.456-.237 1.741 1.875 3.465 4.716 3.85 2.842.386 5.337-.714 5.574-2.455zm7.383-17.243c.248-1.826-1.965-3.633-4.944-4.037-2.98-.404-5.596.749-5.844 2.574-.248 1.826 1.966 3.633 4.945 4.037 2.979.404 5.595-.749 5.843-2.574zm6.384 176.275c3.79-.786 6.445-3.427 5.931-5.899-.515-2.472-4.004-3.838-7.794-3.051-3.789.786-6.445 3.428-5.931 5.899.515 2.472 4.004 3.838 7.794 3.051zm26.843-59.906c4.126-.841 7.025-3.703 6.476-6.392-.55-2.689-4.34-4.188-8.466-3.347-4.127.841-7.026 3.703-6.477 6.392.55 2.69 4.34 4.188 8.467 3.347zm8.763-12.941c.227-1.673-1.796-3.328-4.519-3.698-2.723-.369-5.114.688-5.341 2.361-.228 1.673 1.795 3.328 4.518 3.697 2.723.369 5.114-.688 5.342-2.36zm-119.122 74.952c3.934-.816 6.69-3.555 6.157-6.117-.533-2.562-4.154-3.978-8.087-3.161-3.934.816-6.69 3.555-6.157 6.117.533 2.562 4.154 3.977 8.087 3.161zm-9.152-2.963c.234-1.722-1.852-3.427-4.659-3.807-2.807-.381-5.272.707-5.506 2.429-.234 1.723 1.851 3.427 4.658 3.808 2.807.38 5.273-.707 5.507-2.43zm134.946 122.898c.77-2.032-1.136-4.637-4.258-5.817-3.122-1.18-6.278-.489-7.048 1.544-.771 2.033 1.136 4.638 4.258 5.818 3.122 1.18 6.277.488 7.048-1.545zm-11.556-4.732c.916-1.083.23-3.167-1.533-4.655-1.763-1.487-3.935-1.814-4.852-.731-.916 1.083-.23 3.167 1.533 4.655 1.763 1.487 3.935 1.814 4.852.731zm-115.763-251.34c.11-1.808-2.337-3.427-5.465-3.616-3.128-.189-5.753 1.124-5.862 2.932-.11 1.808 2.337 3.427 5.465 3.616 3.128.189 5.753-1.124 5.862-2.932zm2.167-16.506c2.721-2.407 3.842-5.582 2.503-7.091-1.338-1.509-4.629-.78-7.35 1.628-2.722 2.407-3.842 5.582-2.504 7.091 1.339 1.508 4.63.78 7.351-1.628zm31.013 42.612c2.311-.883 3.725-2.795 3.16-4.271-.566-1.476-2.897-1.957-5.208-1.074-2.31.883-3.725 2.795-3.159 4.271.565 1.476 2.897 1.957 5.207 1.074zm22.528-34.798c2.232-.316 3.641-3.396 3.147-6.88-.494-3.484-2.704-6.053-4.936-5.737-2.231.315-3.64 3.396-3.146 6.88.494 3.484 2.704 6.052 4.935 5.737zm17.289 183.316c.204-1.169-1.23-2.396-3.203-2.739-1.974-.343-3.739.327-3.943 1.496-.203 1.17 1.231 2.396 3.204 2.739 1.973.343 3.738-.327 3.942-1.496zm-10.595 4.265c2.294-2.641 2.782-5.97 1.091-7.434-1.691-1.465-4.921-.511-7.215 2.13-2.293 2.641-2.781 5.969-1.09 7.434 1.691 1.464 4.921.511 7.214-2.13zm.73-9.646c2.213-.313 3.609-3.366 3.12-6.82-.49-3.453-2.681-5.999-4.893-5.686-2.212.313-3.609 3.366-3.119 6.82.489 3.453 2.68 5.999 4.892 5.686zm82.664-197.689c.22-1.261-1.328-2.583-3.457-2.953-2.129-.37-4.033.351-4.253 1.612-.22 1.26 1.328 2.583 3.457 2.953 2.129.37 4.033-.351 4.253-1.612zm-10.809 4.266c2.339-2.693 2.836-6.088 1.109-7.583-1.726-1.495-5.021-.523-7.36 2.17-2.338 2.694-2.835 6.089-1.109 7.584 1.726 1.494 5.021.523 7.36-2.171zm.69-9.683c2.221-.314 3.622-3.378 3.131-6.842-.492-3.465-2.69-6.02-4.91-5.706-2.22.314-3.621 3.378-3.13 6.842.491 3.465 2.689 6.02 4.909 5.706zm-42.625 225.216c2.172-2.502 2.635-5.653 1.034-7.039-1.6-1.386-4.659-.483-6.83 2.019-2.172 2.501-2.635 5.652-1.035 7.039 1.601 1.386 4.659.482 6.831-2.019zm-11.245 1.19c2.441-1.166 3.111-4.842 1.497-8.211-1.614-3.369-4.901-5.154-7.342-3.988-2.44 1.166-3.11 4.842-1.496 8.211 1.614 3.369 4.901 5.154 7.341 3.988zm19.77 8.243c2.778-2.459 3.923-5.701 2.557-7.242-1.367-1.54-4.728-.796-7.506 1.663-2.779 2.459-3.924 5.701-2.558 7.241 1.367 1.541 4.728.796 7.507-1.662zm-7.613-18.817c2.254-.318 3.677-3.432 3.178-6.954-.5-3.523-2.732-6.119-4.987-5.801-2.254.319-3.677 3.433-3.178 6.955.5 3.522 2.732 6.119 4.987 5.8zm-57.931-199.27c.718-2.597-1.614-5.505-5.207-6.496-3.594-.991-7.089.312-7.807 2.909-.718 2.596 1.614 5.505 5.207 6.495 3.594.991 7.089-.311 7.807-2.908zm-18.866 22.171c1.516-2.03 1.669-4.477.342-5.465-1.327-.989-3.632-.145-5.148 1.885-1.516 2.03-1.669 4.476-.342 5.465 1.327.989 3.632.145 5.148-1.885zM33.739 80.978c.008-1.719-2.256-3.123-5.058-3.137-2.802-.014-5.08 1.369-5.088 3.088-.009 1.718 2.256 3.123 5.058 3.137 2.802.013 5.08-1.369 5.088-3.088zm17.536 15.526c1.33-.856 1.278-3.302-.117-5.462-1.394-2.161-3.603-3.219-4.933-2.363-1.33.856-1.278 3.302.117 5.462 1.394 2.161 3.603 3.22 4.933 2.363zm42.699-51.751c3.022-.211 5.373-1.797 5.25-3.543-.122-1.745-2.67-2.99-5.693-2.778-3.022.211-5.373 1.797-5.25 3.543.121 1.745 2.67 2.989 5.693 2.778zM78.945 60.972c.856-3.659-.086-7.007-2.104-7.478-2.018-.47-4.348 2.114-5.204 5.773-.856 3.66.086 7.008 2.104 7.478 2.018.471 4.348-2.113 5.204-5.773zM51.633 77.947c2.489-2.626 3.24-5.95 1.68-7.426-1.562-1.476-4.845-.544-7.333 2.081-2.489 2.626-3.24 5.95-1.68 7.426 1.561 1.476 4.844.544 7.333-2.081zm28.555-.946c.46-2.365-1.31-4.698-3.955-5.21-2.644-.514-5.16.987-5.62 3.351-.461 2.365 1.31 4.698 3.954 5.211 2.644.513 5.16-.987 5.62-3.352zm10.863-19.939c2.514-2.889 3.252-6.36 1.647-7.753-1.605-1.393-4.944-.18-7.458 2.708-2.515 2.888-3.252 6.359-1.647 7.752 1.605 1.393 4.944.181 7.458-2.707z" fill="#fff"/><path d="M72.208 85.569c1.45-.934 1.58-3.31.29-5.31-1.29-1.998-3.511-2.862-4.961-1.929-1.45.933-1.58 3.31-.29 5.31 1.29 1.998 3.51 2.862 4.961 1.929zm-2.071 66.048c1.372-.883 1.495-3.133.274-5.025-1.22-1.892-3.323-2.709-4.695-1.826-1.372.883-1.495 3.132-.274 5.024 1.22 1.892 3.323 2.71 4.695 1.827zm100.332-82.963c2.39-1.29 3.659-3.573 2.833-5.099-.826-1.526-3.433-1.717-5.823-.427-2.39 1.29-3.658 3.573-2.833 5.099.826 1.526 3.433 1.717 5.823.427zM38.89 70.546c2.254-.625 3.288-3.983 2.31-7.5-.978-3.516-3.598-5.86-5.851-5.236-2.254.625-3.288 3.983-2.31 7.5.978 3.516 3.598 5.86 5.851 5.236zm26.226-1.27c.406-2.893-2.511-5.693-6.517-6.254-4.005-.56-7.581 1.33-7.987 4.223-.407 2.893 2.511 5.693 6.517 6.254 4.005.56 7.581-1.33 7.987-4.223zm21.777-31.922c2.372-4.226 2.057-8.904-.704-10.45-2.76-1.545-6.92.628-9.292 4.855-2.372 4.225-2.057 8.904.703 10.45 2.76 1.544 6.922-.629 9.293-4.855zm170.706 157.694c1.955-1.5 2.658-3.863 1.57-5.278-1.089-1.416-3.557-1.346-5.512.154-1.956 1.5-2.659 3.863-1.57 5.279 1.088 1.415 3.556 1.346 5.512-.155zm-8.292 6.882c2.367-2.361 3.109-5.452 1.658-6.902-1.452-1.451-4.547-.712-6.914 1.65-2.366 2.362-3.108 5.453-1.657 6.903 1.451 1.45 4.546.711 6.913-1.651zM145.739 66.058c3.223-.225 5.729-1.916 5.599-3.777-.13-1.86-2.848-3.186-6.071-2.961-3.222.225-5.729 1.916-5.598 3.776.13 1.861 2.848 3.187 6.07 2.962zm-23.096 13.404c.86-3.678-.276-7.087-2.538-7.615-2.263-.528-4.794 2.026-5.655 5.704-.86 3.678.276 7.087 2.539 7.615 2.262.528 4.794-2.026 5.654-5.704zm17.374 2.721c3.567-4.099 4.61-9.026 2.33-11.006-2.281-1.98-7.021-.262-10.589 3.836-3.567 4.098-4.611 9.026-2.33 11.006 2.281 1.98 7.021.262 10.589-3.836zm-43.64 187.57c2.156-1.384 2.074-5.349-.183-8.855-2.257-3.506-5.834-5.226-7.99-3.842-2.156 1.384-2.074 5.348.183 8.854 2.257 3.506 5.834 5.227 7.99 3.843zm13.897-213.54c2.35-1.268 3.597-3.511 2.786-5.01-.811-1.498-3.373-1.685-5.723-.417-2.349 1.268-3.596 3.51-2.785 5.01.811 1.498 3.373 1.685 5.722.417zM92.946 86.885c2.275-.63 3.32-4.023 2.33-7.577-.987-3.554-3.633-5.924-5.91-5.293-2.275.632-3.319 4.024-2.33 7.578.988 3.554 3.634 5.923 5.91 5.292zm71.938 211.096c.828-1.551-.475-3.859-2.91-5.155-2.435-1.296-5.08-1.09-5.908.461-.828 1.551.475 3.859 2.91 5.155 2.435 1.296 5.08 1.09 5.908-.461zm3.412-16.524c.473-2.429-1.346-4.826-4.062-5.353-2.716-.527-5.302 1.014-5.774 3.443-.473 2.429 1.346 4.825 4.062 5.353 2.716.527 5.301-1.015 5.774-3.443z" fill="#fff"/><path d="M160.142 289.925c1.414-.911 1.54-3.229.282-5.18-1.259-1.95-3.426-2.793-4.84-1.883-1.414.911-1.541 3.229-.282 5.18 1.258 1.95 3.425 2.793 4.84 1.883zM91.73 109.909c1.528-.983 1.764-3.335.526-5.253-1.238-1.918-3.48-2.675-5.007-1.692-1.528.983-1.764 3.335-.526 5.253 1.238 1.918 3.48 2.676 5.007 1.692zm52.438 197.466c3.557-1.373 5.634-4.567 4.64-7.134-.993-2.566-4.682-3.534-8.238-2.16-3.557 1.373-5.634 4.567-4.64 7.134.993 2.566 4.682 3.534 8.238 2.16zm-9.68-.528c.697-1.776-.549-3.925-2.783-4.801-2.235-.875-4.612-.145-5.31 1.631-.698 1.776.548 3.925 2.783 4.801 2.235.875 4.612.145 5.31-1.631zM109.879 88.425c.251-1.794-1.555-3.53-4.036-3.877-2.48-.347-4.695.825-4.947 2.62-.251 1.793 1.555 3.529 4.036 3.876 2.48.347 4.695-.825 4.947-2.62zm17.791-25.713c1.309-2.334 1.135-4.917-.39-5.77-1.526-.854-3.823.345-5.133 2.678-1.309 2.334-1.135 4.917.39 5.77 1.525.854 3.823-.345 5.133-2.678zm16.583-8.469c.151-2.485-3.213-4.71-7.512-4.97-4.299-.26-7.906 1.545-8.056 4.03-.151 2.485 3.212 4.71 7.511 4.97 4.3.26 7.907-1.545 8.057-4.03zm10.031-9.41c5.616-.993 9.709-4.394 9.141-7.597-.568-3.203-5.581-4.995-11.198-4.002-5.616.993-9.709 4.395-9.141 7.598.567 3.203 5.581 4.994 11.198 4.001zm-45.732 173.613c2.98-.208 5.297-1.773 5.177-3.495-.121-1.723-2.634-2.95-5.614-2.742-2.98.208-5.298 1.773-5.177 3.495.121 1.723 2.634 2.95 5.614 2.742zm-3.939 14.727c3.937-4.523 5.091-9.958 2.578-12.141-2.514-2.182-7.743-.284-11.68 4.239-3.937 4.523-5.091 9.959-2.578 12.141 2.514 2.182 7.743.284 11.68-4.239zm2.423-26.29c.15-2.473-3.198-4.688-7.478-4.946-4.28-.259-7.87 1.537-8.02 4.011-.15 2.473 3.198 4.688 7.478 4.947 4.28.258 7.871-1.538 8.02-4.012zm10.082-9.386c5.632-.995 9.736-4.409 9.166-7.623-.57-3.214-5.597-5.013-11.229-4.017-5.632.996-9.736 4.409-9.166 7.623.57 3.214 5.598 5.013 11.229 4.017zm41.926-142.235c2.743-1.048 4.423-3.316 3.753-5.065-.67-1.75-3.437-2.318-6.18-1.27s-4.423 3.316-3.753 5.066c.67 1.75 3.437 2.318 6.18 1.27zm-25.38 44.944c.826-2.83.085-5.537-1.656-6.044-1.742-.507-3.823 1.376-4.65 4.207-.827 2.83-.085 5.536 1.656 6.043 1.741.507 3.823-1.376 4.65-4.206zM42.067 43.221c1.858-1.218 1.755-4.655-.23-7.678-1.987-3.023-5.103-4.485-6.962-3.268-1.858 1.218-1.755 4.656.23 7.678 1.987 3.023 5.103 4.486 6.962 3.268zM33.5 10.101c1.16-2.647.78-5.372-.849-6.084-1.63-.713-3.892.856-5.053 3.503-1.161 2.648-.781 5.373.848 6.085 1.63.713 3.893-.856 5.054-3.504zm-9.489 33.694c2.26-2.604 2.74-5.885 1.073-7.329-1.668-1.444-4.852-.505-7.112 2.098-2.26 2.604-2.741 5.885-1.073 7.329 1.668 1.444 4.852.505 7.112-2.098zm24.294-24.233c1.909-4.353 1.092-8.915-1.824-10.19-2.917-1.276-6.828 1.218-8.737 5.571-1.91 4.353-1.092 8.916 1.824 10.192 2.917 1.275 6.828-1.22 8.737-5.573zm121.242 168.292c.657-2.261-.269-4.518-2.071-5.041-1.801-.522-3.794.887-4.452 3.149-.658 2.261.269 4.518 2.07 5.041 1.801.522 3.795-.887 4.453-3.149z" fill="#fff"/><path d="M173.718 200.923c1.901-4.335 1.086-8.88-1.819-10.15-2.906-1.271-6.803 1.213-8.704 5.548-1.901 4.336-1.087 8.88 1.819 10.151 2.906 1.271 6.803-1.213 8.704-5.549zM19.774 25.54c1.595-.761 2.032-3.163.978-5.363-1.054-2.201-3.202-3.368-4.796-2.606-1.595.762-2.032 3.164-.978 5.364 1.054 2.201 3.202 3.368 4.796 2.606zm103.115 81.473c2.4-.917 3.871-2.901 3.285-4.431-.587-1.529-3.008-2.026-5.408-1.109-2.401.918-3.872 2.902-3.285 4.431.586 1.53 3.007 2.027 5.408 1.109zm-13.21-71.063c1.687-2.26 1.858-4.981.383-6.08-1.476-1.1-4.039-.16-5.726 2.099-1.687 2.258-1.858 4.98-.383 6.079 1.476 1.099 4.04.16 5.726-2.099zM48.296 187.326c3.338-.233 5.935-1.985 5.8-3.912-.135-1.927-2.951-3.3-6.29-3.066-3.337.233-5.934 1.984-5.8 3.911.136 1.927 2.952 3.3 6.29 3.067zm-8.089 26.986c2.704-3.107 3.496-6.84 1.769-8.34-1.728-1.499-5.32-.196-8.024 2.91-2.704 3.107-3.496 6.84-1.769 8.34 1.727 1.499 5.32.196 8.024-2.91zm-6.828-33.426c2.257-1.219 3.455-3.375 2.675-4.816-.78-1.441-3.242-1.621-5.5-.402-2.257 1.218-3.455 3.374-2.676 4.815.78 1.441 3.243 1.622 5.5.403zm-.469 14.991c1.398-2.491 1.213-5.248-.413-6.158-1.626-.91-4.077.371-5.476 2.863-1.398 2.491-1.213 5.248.413 6.158 1.626.911 4.078-.371 5.476-2.863zm39.592-71.361c1.734-.82 2.054-3.772.716-6.593-1.338-2.821-3.827-4.444-5.56-3.624-1.734.82-2.055 3.771-.717 6.593 1.338 2.821 3.828 4.444 5.561 3.624zM38.25 170.854c.104-1.724-2.228-3.267-5.21-3.447-2.981-.18-5.483 1.071-5.587 2.795-.105 1.723 2.228 3.266 5.21 3.446 2.981.18 5.483-1.071 5.587-2.794zm30.078-.431c3.674-2.983 5.214-7.168 3.44-9.348-1.775-2.181-6.193-1.53-9.867 1.453-3.674 2.984-5.214 7.169-3.44 9.349 1.775 2.18 6.193 1.529 9.867-1.454zm8.864-37.242c.853-2.552-1.628-5.678-5.541-6.982-3.914-1.305-7.778-.294-8.63 2.258-.854 2.552 1.627 5.678 5.54 6.982 3.914 1.305 7.778.294 8.63-2.258zM63.219 34.673c1.67-.79 1.98-3.633.692-6.35-1.288-2.717-3.687-4.28-5.358-3.49-1.67.791-1.98 3.634-.692 6.351s3.687 4.279 5.358 3.489zm4.478 8.754c.818-2.446-1.561-5.442-5.313-6.693-3.753-1.251-7.457-.283-8.275 2.163-.817 2.446 1.562 5.443 5.314 6.694 3.752 1.25 7.457.282 8.274-2.164zm-28.98 104.404c2.686-2.377 3.793-5.511 2.473-6.999-1.32-1.489-4.57-.769-7.255 1.608-2.687 2.377-3.794 5.511-2.474 6.999 1.32 1.489 4.57.768 7.256-1.608zm14.747-10.512c3.126-1.478 4.003-6.169 1.96-10.478-2.044-4.308-6.233-6.603-9.359-5.125-3.125 1.478-4.002 6.169-1.959 10.478 2.044 4.308 6.233 6.603 9.358 5.125zm1.173 41.525c2.851-1.09 4.598-3.447 3.901-5.264-.696-1.818-3.572-2.409-6.423-1.319-2.851 1.09-4.598 3.446-3.901 5.264.696 1.818 3.572 2.408 6.423 1.319zm25.278-27.307c2.197-.311 3.585-3.341 3.099-6.767-.486-3.427-2.661-5.953-4.858-5.642-2.198.31-3.585 3.34-3.099 6.767.486 3.427 2.661 5.953 4.858 5.642zm12.129-19.795c3.237-1.531 4.298-6.067 2.37-10.132-1.927-4.065-6.114-6.119-9.35-4.589-3.237 1.531-4.299 6.067-2.371 10.132 1.927 4.065 6.114 6.12 9.35 4.589zm58.485 190.618c1.709-.808 2.026-3.717.708-6.497-1.318-2.779-3.772-4.377-5.481-3.569-1.709.808-2.026 3.717-.708 6.496 1.318 2.78 3.772 4.378 5.481 3.57zm4.682 8.717c.845-2.53-1.615-5.63-5.495-6.923-3.88-1.294-7.711-.292-8.557 2.238-.846 2.53 1.614 5.629 5.495 6.923 3.88 1.294 7.711.291 8.557-2.238zm30.041-13.328c3.195-1.511 4.244-5.986 2.343-9.995-1.901-4.009-6.033-6.035-9.228-4.524-3.194 1.511-4.243 5.986-2.342 9.996 1.901 4.009 6.032 6.034 9.227 4.523z" fill="#fff"/><path d="M46.978 155.828c2.866-3.837 3.158-8.461.652-10.327-2.505-1.867-6.86-.269-9.726 3.568-2.866 3.836-3.158 8.46-.652 10.327 2.506 1.866 6.86.269 9.726-3.568zm2.199-47.561c.232-1.711-1.84-3.404-4.627-3.782-2.788-.378-5.236.702-5.469 2.413-.233 1.711 1.839 3.405 4.627 3.783 2.788.378 5.236-.703 5.469-2.414zM22.22 205.115c3.057-2.704 4.314-6.272 2.81-7.968-1.505-1.696-5.203-.879-8.259 1.825-3.056 2.704-4.314 6.271-2.809 7.967 1.505 1.697 5.202.88 8.259-1.824zm9.985-74.487c2.19-.309 3.571-3.335 3.086-6.758-.486-3.423-2.654-5.947-4.844-5.638-2.19.31-3.57 3.336-3.085 6.759.485 3.423 2.654 5.947 4.843 5.637zm4.51-30.918c1.682-.795 2.233-3.15 1.232-5.261-1-2.111-3.175-3.178-4.856-2.383-1.681.795-2.233 3.151-1.232 5.262 1.001 2.11 3.175 3.177 4.856 2.382zm69.793 74.869c3.419-1.617 4.541-6.403 2.508-10.691-2.033-4.288-6.452-6.453-9.87-4.837-3.419 1.617-4.541 6.403-2.508 10.691 2.033 4.288 6.452 6.454 9.87 4.837zm48.718 73.941c4.331-.302 7.7-2.576 7.525-5.079-.175-2.503-3.828-4.287-8.16-3.984-4.331.302-7.7 2.576-7.524 5.079.175 2.503 3.828 4.287 8.159 3.984zm-9.343-5.011c1.262-2.249 1.096-4.738-.372-5.56-1.468-.821-3.681.336-4.943 2.585-1.263 2.249-1.096 4.739.372 5.56 1.468.822 3.681-.336 4.943-2.585zm175.038-42.328c2.926-.204 5.202-1.741 5.084-3.433-.119-1.691-2.587-2.897-5.513-2.693-2.925.205-5.201 1.742-5.083 3.433.119 1.692 2.587 2.898 5.512 2.693zm-182.704-38.527c1.761-.496 2.94-1.774 2.635-2.853-.306-1.08-1.98-1.552-3.741-1.055-1.76.497-2.94 1.774-2.634 2.854.305 1.079 1.98 1.551 3.74 1.054zm-4.276-3.373c.018-1.657-2.292-3.026-5.159-3.057-2.868-.031-5.206 1.287-5.224 2.945-.018 1.657 2.291 3.025 5.159 3.056 2.867.031 5.206-1.287 5.224-2.944zm54.26-93.187c1.821-.87 2.325-3.604 1.126-6.108-1.2-2.503-3.648-3.827-5.469-2.957-1.82.87-2.324 3.605-1.125 6.108 1.199 2.503 3.648 3.827 5.468 2.957z" fill="#fff"/><path d="M193.919 72.494c.387-2.76-2.394-5.43-6.212-5.965-3.818-.534-7.227 1.27-7.615 4.029-.387 2.76 2.394 5.43 6.212 5.964 3.818.535 7.228-1.269 7.615-4.028zM151.23 227.331c.733-2.912-.041-5.616-1.729-6.04-1.688-.424-3.651 1.593-4.384 4.504-.733 2.912.04 5.616 1.728 6.04 1.688.424 3.651-1.592 4.385-4.504zm16.252-10.732c1.476-2.223 1.361-4.893-.257-5.964-1.618-1.072-4.126-.138-5.602 2.084-1.475 2.223-1.36 4.893.257 5.965 1.618 1.071 4.126.138 5.602-2.085zm-8.265 10.481c2.592-1.093 3.467-4.878 1.954-8.453-1.512-3.575-4.839-5.587-7.43-4.494-2.592 1.093-3.467 4.878-1.955 8.453 1.512 3.575 4.839 5.587 7.431 4.494zm43.779-58.303c1.891-.903 2.416-3.738 1.173-6.331-1.242-2.594-3.782-3.964-5.672-3.061-1.891.903-2.416 3.738-1.173 6.332 1.242 2.593 3.782 3.963 5.672 3.06zm1.64-12.273c1.569-2.101 1.728-4.633.354-5.656-1.373-1.023-3.758-.15-5.328 1.951-1.569 2.101-1.727 4.633-.354 5.656 1.374 1.023 3.759.15 5.328-1.951zM19.228 69.6c1.833-4.18.86-8.644-2.173-9.97-3.033-1.327-6.978.986-8.81 5.166-1.834 4.18-.86 8.644 2.172 9.97 3.034 1.327 6.978-.986 8.811-5.166zM9.293 85.028c2.21-1.056 2.818-4.384 1.357-7.433-1.46-3.049-4.437-4.664-6.647-3.608-2.21 1.056-2.819 4.384-1.358 7.433 1.46 3.05 4.437 4.665 6.648 3.608zm114.382 38.67c1.578-2.113 1.739-4.659.359-5.687-1.379-1.027-3.777-.148-5.356 1.966-1.578 2.113-1.739 4.659-.359 5.687 1.379 1.027 3.777.147 5.356-1.966zm-49.657 78.431c2.169-1.037 2.77-4.292 1.342-7.272-1.427-2.979-4.343-4.554-6.511-3.518-2.17 1.036-2.77 4.292-1.343 7.271 1.428 2.98 4.343 4.555 6.512 3.519z" fill="#fff"/><path d="M80.622 209.111c.449-3.194-2.772-6.286-7.194-6.905-4.422-.619-8.37 1.469-8.819 4.663-.448 3.195 2.773 6.287 7.195 6.906 4.422.619 8.37-1.469 8.818-4.664zm-4.473-22.071c1.91-2.558 2.105-5.641.434-6.885-1.67-1.244-4.573-.18-6.484 2.378-1.91 2.558-2.105 5.641-.434 6.885 1.67 1.244 4.573.18 6.484-2.378zm147.859 117.176c.009-1.669-2.19-3.033-4.911-3.046-2.721-.013-4.933 1.329-4.941 2.998-.008 1.669 2.191 3.032 4.911 3.045 2.721.014 4.933-1.328 4.941-2.997zM243.49 317.2c1.453-.936 1.396-3.608-.128-5.97-1.524-2.362-3.938-3.518-5.391-2.583-1.454.936-1.396 3.608.128 5.97 1.524 2.362 3.937 3.518 5.391 2.583zm12.779-43.157c2.853-.199 5.072-1.697 4.956-3.347-.115-1.649-2.521-2.825-5.374-2.626-2.853.2-5.072 1.698-4.956 3.348.115 1.649 2.521 2.825 5.374 2.625zm8.255-18.656c4.292-1.351 7.145-4.43 6.372-6.878-.772-2.448-4.878-3.338-9.17-1.988-4.292 1.351-7.145 4.43-6.372 6.879.772 2.448 4.878 3.338 9.17 1.987zm-26.793 13.211c.96-4.106-.098-7.863-2.364-8.392-2.266-.528-4.882 2.372-5.842 6.477-.961 4.106.097 7.863 2.363 8.392 2.267.529 4.882-2.371 5.843-6.477zm23.841 35.424c1.32-.85 1.438-3.015.263-4.835-1.175-1.821-3.198-2.608-4.518-1.758-1.32.849-1.438 3.014-.263 4.835 1.175 1.821 3.198 2.608 4.518 1.758zm-8.604 63.921c1.392-.895 1.517-3.176.279-5.094-1.238-1.918-3.369-2.746-4.761-1.851-1.392.896-1.516 3.177-.279 5.095 1.238 1.917 3.369 2.746 4.761 1.85zm-3.893-109.724c2.428-1.31 3.716-3.628 2.877-5.178-.838-1.549-3.486-1.743-5.913-.433-2.428 1.311-3.716 3.629-2.877 5.178.838 1.55 3.486 1.744 5.913.433zm-107.547 32.27c4.064-1.279 6.765-4.196 6.033-6.516-.732-2.319-4.619-3.163-8.683-1.884s-6.765 4.196-6.033 6.515c.732 2.32 4.62 3.163 8.683 1.885zm-16.149 3.51c2.795-1.508 4.277-4.176 3.312-5.96-.965-1.783-4.013-2.006-6.807-.498-2.794 1.508-4.277 4.176-3.312 5.96.966 1.783 4.013 2.006 6.807.498zm99.008-3.797c2.893-.802 4.22-5.116 2.963-9.636-1.257-4.519-4.621-7.532-7.514-6.73-2.893.802-4.219 5.116-2.962 9.636 1.256 4.519 4.62 7.533 7.513 6.73zm43.539-24.091c1.336-2.381 1.158-5.016-.397-5.886-1.555-.871-3.899.353-5.235 2.733-1.336 2.38-1.158 5.016.397 5.886 1.556.871 3.899-.353 5.235-2.733zm-9.795 77.258c1.658-1.067 1.914-3.618.572-5.697-1.342-2.08-3.774-2.901-5.432-1.835-1.658 1.067-1.913 3.618-.571 5.698 1.342 2.08 3.774 2.901 5.431 1.834zm5.458-108.929c.102-1.689-2.186-3.201-5.109-3.378-2.924-.176-5.377 1.05-5.48 2.738-.102 1.689 2.185 3.202 5.109 3.378 2.924.177 5.377-1.049 5.48-2.738zm30.295 21.607c3.546-1.355 5.719-4.286 4.853-6.547-.866-2.26-4.443-2.994-7.99-1.639-3.547 1.356-5.72 4.287-4.854 6.548.867 2.26 4.444 2.994 7.991 1.638zM175.47 379.679c3.767-.782 6.407-3.404 5.896-5.857-.51-2.453-3.978-3.807-7.745-3.025-3.767.781-6.407 3.404-5.897 5.856.511 2.453 3.978 3.808 7.746 3.026z" fill="#fff"/><path d="M166.862 386.171c3.737-1.445 6.016-4.548 5.093-6.931-.924-2.384-4.702-3.145-8.438-1.701-3.737 1.444-6.017 4.548-5.093 6.931.924 2.384 4.702 3.145 8.438 1.701zm54.621-29.24c3.624-.752 6.163-3.273 5.673-5.632-.491-2.358-3.827-3.66-7.45-2.908-3.624.752-6.163 3.273-5.673 5.632.491 2.358 3.827 3.66 7.45 2.908zm-9.029 8.376c3.54-1.353 5.708-4.279 4.843-6.536-.865-2.257-4.435-2.99-7.974-1.637-3.54 1.353-5.708 4.279-4.843 6.536.864 2.257 4.435 2.99 7.974 1.637zm92.313-133.742c2.4-3.213 2.643-7.086.542-8.65-2.1-1.565-5.749-.229-8.148 2.984-2.4 3.213-2.643 7.086-.542 8.651 2.1 1.564 5.748.228 8.148-2.985zm-114.93 167.822c2.972-.207 5.283-1.769 5.163-3.487-.12-1.719-2.627-2.944-5.599-2.736-2.972.207-5.284 1.769-5.164 3.487.121 1.719 2.628 2.944 5.6 2.736zm-11.699 4.587c3.011-.21 5.353-1.793 5.231-3.534-.122-1.742-2.662-2.983-5.672-2.773-3.011.21-5.353 1.792-5.231 3.534.122 1.742 2.662 2.983 5.672 2.773zm26.77 2.296c2.166-1.169 3.316-3.236 2.57-4.616-.747-1.38-3.109-1.551-5.275-.382-2.166 1.17-3.316 3.236-2.569 4.616.746 1.38 3.108 1.551 5.274.382zm52.812-52.712c1.462-.691 1.732-3.18.604-5.559-1.128-2.379-3.228-3.747-4.689-3.056-1.462.691-1.732 3.18-.604 5.559 1.128 2.379 3.228 3.747 4.689 3.056zm-41.915 29.631c.104-1.715-2.217-3.252-5.183-3.431-2.966-.179-5.455 1.067-5.559 2.783-.104 1.716 2.217 3.252 5.183 3.431 2.966.179 5.455-1.067 5.559-2.783zm48.616 9.334c2.959-2.402 4.199-5.772 2.77-7.527-1.429-1.756-4.986-1.232-7.945 1.17-2.959 2.402-4.199 5.773-2.769 7.528 1.429 1.756 4.985 1.231 7.944-1.171zm-31.216-18.263c5.035-4.455 7.108-10.33 4.631-13.122-2.478-2.793-8.567-1.445-13.602 3.009-5.035 4.455-7.108 10.33-4.631 13.123 2.477 2.792 8.567 1.445 13.602-3.01zm6.557-26.836c1.569-.742 2.01-3.098.984-5.261-1.025-2.163-3.129-3.315-4.699-2.572-1.569.742-2.01 3.097-.985 5.26 1.026 2.163 3.13 3.315 4.7 2.573zm29.658 30.349c2.22-.314 3.621-3.381 3.129-6.849-.492-3.469-2.69-6.027-4.911-5.713-2.22.314-3.621 3.381-3.129 6.849.492 3.469 2.691 6.027 4.911 5.713zm-1.258-14.733c2.532-1.197 3.363-4.746 1.855-7.926-1.508-3.181-4.784-4.788-7.316-3.59-2.532 1.197-3.362 4.746-1.854 7.926 1.508 3.18 4.783 4.788 7.315 3.59zM143.765 208.114c2.155-.305 3.515-3.28 3.038-6.646-.478-3.366-2.612-5.847-4.767-5.542-2.155.305-3.515 3.28-3.038 6.646.478 3.366 2.612 5.847 4.767 5.542zm-1.19-14.458c2.581-1.22 3.428-4.836 1.892-8.075-1.536-3.24-4.874-4.876-7.455-3.656-2.581 1.221-3.428 4.837-1.892 8.076 1.536 3.24 4.874 4.876 7.455 3.655zm148.582 14.139c2.06-.292 3.36-3.133 2.905-6.346-.456-3.213-2.495-5.581-4.554-5.29-2.06.291-3.36 3.132-2.905 6.345.456 3.213 2.495 5.582 4.554 5.291zm-1.213-12.615c2.511-1.188 3.334-4.709 1.838-7.865-1.497-3.156-4.746-4.751-7.257-3.564-2.511 1.188-3.334 4.709-1.838 7.865 1.497 3.156 4.746 4.751 7.257 3.564zm-55.095 193.827c1.645-2.203 1.813-4.857.374-5.928-1.438-1.072-3.938-.155-5.583 2.048-1.646 2.202-1.813 4.857-.375 5.928 1.439 1.072 3.939.155 5.584-2.048zm1.768-53.574c.215-1.641-1.781-3.256-4.459-3.607-2.679-.351-5.025.694-5.24 2.335-.216 1.64 1.78 3.255 4.459 3.606 2.678.352 5.024-.694 5.24-2.334zm-24.692-11.524c1.619-.765 1.919-3.52.67-6.154-1.249-2.633-3.573-4.147-5.191-3.382-1.619.765-1.919 3.521-.67 6.154s3.573 4.148 5.191 3.382zm-8.662 53.264c1.671-1.356 2.373-3.258 1.567-4.248-.806-.99-2.814-.693-4.485.664-1.671 1.356-2.372 3.259-1.566 4.249.806.989 2.813.692 4.484-.665zm-9.536 7.982c3.471-1.326 5.598-4.196 4.749-6.41-.848-2.214-4.349-2.933-7.82-1.607-3.471 1.327-5.598 4.197-4.749 6.411.848 2.213 4.349 2.933 7.82 1.606z" fill="#fff"/><path d="M221.365 348.778c1.953-.276 3.185-2.971 2.753-6.02-.433-3.049-2.366-5.297-4.319-5.021-1.952.276-3.185 2.972-2.752 6.021.432 3.049 2.365 5.297 4.318 5.02zm3.043-33.773c1.682-.795 2.233-3.151 1.232-5.262-1.001-2.111-3.175-3.177-4.856-2.382-1.682.795-2.233 3.15-1.232 5.261 1.001 2.111 3.175 3.178 4.856 2.383z" fill="#fff"/></svg>