<svg width="90" height="7" fill="none" xmlns="http://www.w3.org/2000/svg" preserveAspectRatio="none"><path d="M5.605 6.462H4.298V1.846H2.784l-.068.514c-.175 1.306-.33 2.222-.465 2.749-.133.524-.326.893-.58 1.108-.251.214-.6.322-1.045.322C.39 6.539.18 6.51 0 6.454v-.973c.164.05.317.076.461.076.15 0 .268-.061.355-.184.088-.125.17-.355.246-.69.079-.337.182-.888.309-1.652.13-.767.24-1.491.33-2.174h3.904v5.605zm5.123 0H7.166V.857h3.562v.974h-2.25v1.23h2.094v.974H8.478v1.446h2.25v.98zm3.681 0h-1.312V1.846h-1.68V.857h4.67v.99H14.41v4.615zm9.374 0h-1.307V4.043h-2.45v2.419h-1.311V.857h1.311v2.197h2.45V.857h1.307v5.605zm5.351 0l-.448-1.334H26.43l-.448 1.334H24.57L26.753.834h1.603l2.191 5.628h-1.413zm-.761-2.33L27.67 2.08a5.972 5.972 0 01-.11-.375c-.093.327-.36 1.136-.799 2.426h1.612zm7.509 1.341h1.92V.857h1.307v5.605h-7.78V.857h1.312v4.616h1.92V.857h1.32v4.616zm8.35.989H40.67V.857h3.562v.974h-2.25v1.23h2.094v.974h-2.094v1.446h2.25v.98zM49.435.857v.982h-2.597v4.623h-1.311V.857h3.908zm6.485 2.795c0 .928-.253 1.64-.76 2.139-.508.498-1.236.748-2.184.748-.947 0-1.675-.25-2.183-.748-.507-.498-.761-1.214-.761-2.147 0-.932.254-1.644.761-2.135.51-.493 1.241-.74 2.192-.74.95 0 1.676.248 2.178.744.505.496.758 1.209.758 2.139zm-4.513 0c0 .626.131 1.098.393 1.414.263.317.655.476 1.176.476 1.047 0 1.57-.63 1.57-1.89 0-1.262-.52-1.894-1.561-1.894-.522 0-.915.16-1.18.48-.266.316-.398.788-.398 1.414zm13.084 0c0 .928-.254 1.64-.761 2.139-.508.498-1.235.748-2.183.748-.948 0-1.675-.25-2.183-.748-.508-.498-.761-1.214-.761-2.147 0-.932.253-1.644.761-2.135.51-.493 1.24-.74 2.191-.74.95 0 1.677.248 2.179.744.505.496.757 1.209.757 2.139zm-4.514 0c0 .626.132 1.098.394 1.414.262.317.654.476 1.176.476 1.046 0 1.57-.63 1.57-1.89 0-1.262-.521-1.894-1.562-1.894-.521 0-.915.16-1.18.48-.265.316-.398.788-.398 1.414zm10.69 2.81H69.36V1.846h-2.276v4.616h-1.311V.857h4.894v5.605zm5.792-1.752c0 .583-.215 1.021-.643 1.315-.426.291-1.058.437-1.895.437h-1.693V.857h1.312v2.151h.423c.792 0 1.406.15 1.84.448.437.297.656.715.656 1.254zm-2.92.778h.343c.432 0 .748-.064.948-.192.2-.13.3-.325.3-.586 0-.26-.097-.447-.291-.56-.192-.112-.53-.168-1.016-.168h-.283v1.506zm4.98.974h-1.307V.857h1.307v5.605zm3.947 0h-1.312V1.846h-1.679V.857h4.67v.99h-1.68v4.615zm6.121 0l-.448-1.334h-2.255l-.448 1.334h-1.413L86.205.834h1.604L90 6.462h-1.413zm-.761-2.33l-.703-2.052a5.972 5.972 0 01-.11-.375c-.093.327-.36 1.136-.8 2.426h1.613z" fill="#0A3B93"/></svg>