<svg width="333" height="419" viewBox="0 0 333 419" fill="none" xmlns="http://www.w3.org/2000/svg">
<path d="M176.245 358.057C177.892 356.988 178.028 354.28 176.55 352.008C175.072 349.736 172.538 348.761 170.891 349.83C169.244 350.899 169.107 353.608 170.585 355.879C172.064 358.151 174.598 359.126 176.245 358.057Z" fill="white"/>
<path d="M94.0336 317.654C95.6446 316.986 96.3459 314.991 95.6 313.197C94.8541 311.403 92.9434 310.49 91.3324 311.158C89.7214 311.826 89.0201 313.822 89.766 315.616C90.5119 317.41 92.4226 318.323 94.0336 317.654Z" fill="white"/>
<path d="M191.694 414.235C191.971 412.125 189.108 410.012 185.3 409.515C181.493 409.017 178.182 410.324 177.906 412.434C177.63 414.543 180.493 416.657 184.3 417.154C188.108 417.651 191.418 416.344 191.694 414.235Z" fill="white"/>
<path d="M71.3104 10.6357C72.076 8.00424 71.3837 5.49011 69.7641 5.02022C68.1446 4.55033 66.2111 6.30263 65.4456 8.93409C64.6801 11.5655 65.3724 14.0797 66.9919 14.5496C68.6114 15.0195 70.5449 13.2672 71.3104 10.6357Z" fill="white"/>
<path d="M105.982 25.1268C109.706 25.1268 112.725 23.4521 112.725 21.3863C112.725 19.3205 109.706 17.6459 105.982 17.6459C102.258 17.6459 99.2385 19.3205 99.2385 21.3863C99.2385 23.4521 102.258 25.1268 105.982 25.1268Z" fill="white"/>
<path d="M123.028 25.2713C125.121 22.1113 125.176 18.4656 123.151 17.1282C121.126 15.7909 117.789 17.2685 115.696 20.4285C113.603 23.5884 113.548 27.2342 115.573 28.5715C117.597 29.9088 120.935 28.4313 123.028 25.2713Z" fill="white"/>
<path d="M44.1341 6.47767C44.7974 4.19781 43.8629 1.9225 42.047 1.39563C40.231 0.868751 38.2212 2.28982 37.558 4.56968C36.8947 6.84953 37.8292 9.12484 39.6451 9.65172C41.4611 10.1786 43.4709 8.75752 44.1341 6.47767Z" fill="white"/>
<path d="M78.7723 9.28137C80.277 8.30476 80.4023 5.83121 79.0521 3.75654C77.702 1.68186 75.3877 0.791693 73.883 1.76829C72.3782 2.7449 72.253 5.21845 73.6031 7.29313C74.9533 9.3678 77.2676 10.258 78.7723 9.28137Z" fill="white"/>
<path d="M76.8231 93.4829C77.6364 91.9592 76.3603 89.6937 73.973 88.4229C71.5856 87.152 68.991 87.3569 68.1777 88.8806C67.3644 90.4043 68.6405 92.6697 71.0278 93.9406C73.4151 95.2115 76.0098 95.0065 76.8231 93.4829Z" fill="white"/>
<path d="M149.848 376.668C151.415 373.095 150.902 369.419 148.703 368.458C146.504 367.496 143.452 369.613 141.885 373.186C140.318 376.758 140.831 380.434 143.03 381.396C145.229 382.358 148.281 380.241 149.848 376.668Z" fill="white"/>
<path d="M277.582 196.582C277.857 194.484 275.015 192.383 271.234 191.889C267.453 191.395 264.165 192.696 263.891 194.794C263.616 196.892 266.458 198.993 270.239 199.487C274.02 199.98 277.307 198.68 277.582 196.582Z" fill="white"/>
<path d="M126.751 371.795C127.746 369.524 127.218 367.1 125.571 366.38C123.923 365.659 121.781 366.915 120.785 369.186C119.79 371.456 120.318 373.88 121.966 374.6C123.613 375.321 125.755 374.065 126.751 371.795Z" fill="white"/>
<path d="M173.865 363.797C174.808 361.647 174.182 359.296 172.468 358.547C170.753 357.797 168.599 358.932 167.656 361.082C166.714 363.232 167.339 365.583 169.054 366.332C170.768 367.082 172.922 365.947 173.865 363.797Z" fill="white"/>
<path d="M78.7981 243.676C80.0703 242.583 79.6543 240.017 77.8689 237.946C76.0835 235.876 73.6049 235.084 72.3328 236.178C71.0606 237.272 71.4766 239.837 73.262 241.908C75.0474 243.979 77.526 244.77 78.7981 243.676Z" fill="white"/>
<path d="M100.882 299.767C101.723 296.876 100.963 294.115 99.1841 293.599C97.4052 293.082 95.2815 295.007 94.4406 297.898C93.5997 300.788 94.36 303.55 96.1389 304.066C97.9178 304.582 100.042 302.657 100.882 299.767Z" fill="white"/>
<path d="M182 301.319C183.681 299.64 182.69 295.929 179.787 293.029C176.883 290.129 173.167 289.139 171.486 290.818C169.805 292.497 170.796 296.209 173.699 299.108C176.603 302.008 180.319 302.998 182 301.319Z" fill="white"/>
<path d="M191.237 195.162C193.772 192.63 192.277 187.032 187.897 182.658C183.517 178.284 177.911 176.791 175.376 179.322C172.841 181.854 174.337 187.452 178.717 191.826C183.096 196.2 188.702 197.694 191.237 195.162Z" fill="white"/>
<path d="M164.174 260.879C164.23 259.57 162.484 258.433 160.275 258.339C158.065 258.245 156.229 259.231 156.173 260.54C156.118 261.849 157.864 262.986 160.073 263.08C162.282 263.174 164.119 262.188 164.174 260.879Z" fill="white"/>
<path d="M120.299 310.235C120.987 307.87 120.154 305.55 118.438 305.052C116.722 304.554 114.774 306.068 114.086 308.433C113.398 310.798 114.231 313.118 115.947 313.616C117.663 314.114 119.611 312.6 120.299 310.235Z" fill="white"/>
<path d="M186.36 157.618C187.014 155.372 186.225 153.168 184.598 152.696C182.971 152.224 181.122 153.662 180.469 155.909C179.815 158.155 180.604 160.359 182.231 160.831C183.858 161.303 185.707 159.865 186.36 157.618Z" fill="white"/>
<path d="M155.356 263.836C156.572 260.604 153.453 256.442 148.388 254.541C143.324 252.64 138.231 253.719 137.015 256.952C135.798 260.184 138.918 264.346 143.982 266.247C149.047 268.148 154.139 267.069 155.356 263.836Z" fill="white"/>
<path d="M113.113 272.795C114.904 270.091 114.951 266.973 113.219 265.829C111.488 264.685 108.632 265.949 106.842 268.653C105.051 271.356 105.004 274.475 106.736 275.619C108.467 276.763 111.323 275.498 113.113 272.795Z" fill="white"/>
<path d="M115.913 294.962C117.641 293.841 117.782 290.996 116.228 288.608C114.674 286.219 112.013 285.193 110.285 286.314C108.557 287.436 108.416 290.281 109.97 292.669C111.524 295.057 114.185 296.084 115.913 294.962Z" fill="white"/>
<path d="M120.279 326.591C122.286 324.866 121.632 320.823 118.819 317.56C116.006 314.298 112.1 313.052 110.093 314.777C108.087 316.502 108.741 320.545 111.554 323.808C114.367 327.07 118.273 328.316 120.279 326.591Z" fill="white"/>
<path d="M197.873 372.922C199.873 370.925 198.694 366.508 195.239 363.058C191.784 359.608 187.362 358.43 185.362 360.428C183.362 362.426 184.541 366.842 187.996 370.292C191.45 373.742 195.873 374.92 197.873 372.922Z" fill="white"/>
<path d="M100.683 327.712C102.56 326.494 102.721 323.416 101.043 320.837C99.3649 318.258 96.4829 317.155 94.6061 318.373C92.7293 319.591 92.5683 322.669 94.2465 325.248C95.9247 327.827 98.8066 328.93 100.683 327.712Z" fill="white"/>
<path d="M157.153 358.299C160.982 358.299 164.085 356.578 164.085 354.454C164.085 352.331 160.982 350.609 157.153 350.609C153.325 350.609 150.222 352.331 150.222 354.454C150.222 356.578 153.325 358.299 157.153 358.299Z" fill="white"/>
<path d="M137.853 355.762C138.489 353.575 137.719 351.429 136.133 350.969C134.547 350.508 132.745 351.909 132.109 354.096C131.473 356.283 132.243 358.429 133.829 358.89C135.415 359.35 137.217 357.95 137.853 355.762Z" fill="white"/>
<path d="M128.92 324.491C130.943 321.442 131.002 317.924 129.051 316.633C127.1 315.342 123.879 316.767 121.856 319.816C119.833 322.864 119.775 326.382 121.726 327.673C123.676 328.964 126.898 327.539 128.92 324.491Z" fill="white"/>
<path d="M138.433 346.481C140.115 345.4 140.266 342.64 138.77 340.316C137.274 337.991 134.697 336.983 133.014 338.063C131.332 339.143 131.181 341.903 132.677 344.228C134.173 346.552 136.75 347.561 138.433 346.481Z" fill="white"/>
<path d="M159.812 349.427C162.661 348.836 164.658 346.852 164.271 344.995C163.885 343.139 161.262 342.113 158.413 342.704C155.564 343.295 153.568 345.28 153.954 347.136C154.34 348.993 156.963 350.019 159.812 349.427Z" fill="white"/>
<path d="M171.894 268.942C173.338 267.834 172.953 264.914 171.034 262.42C169.115 259.927 166.388 258.804 164.944 259.913C163.5 261.022 163.885 263.942 165.804 266.435C167.724 268.929 170.45 270.051 171.894 268.942Z" fill="white"/>
<path d="M195.508 291.734C196.256 290.333 195.079 288.248 192.879 287.076C190.679 285.905 188.289 286.092 187.541 287.493C186.793 288.894 187.97 290.98 190.17 292.151C192.37 293.322 194.76 293.135 195.508 291.734Z" fill="white"/>
<path d="M203.693 310.283C206.395 310.081 208.478 308.49 208.346 306.73C208.214 304.969 205.917 303.706 203.215 303.908C200.514 304.11 198.431 305.701 198.562 307.461C198.694 309.221 200.991 310.485 203.693 310.283Z" fill="white"/>
<path d="M85.5678 304.648C86.9779 303.724 86.9007 301.118 85.3954 298.826C83.8901 296.535 81.5268 295.427 80.1167 296.351C78.7066 297.275 78.7838 299.881 80.2891 302.172C81.7944 304.463 84.1577 305.572 85.5678 304.648Z" fill="white"/>
<path d="M76.8768 284.478C79.2207 279.133 78.4556 273.635 75.1679 272.197C71.8802 270.759 67.315 273.926 64.9711 279.271C62.6272 284.616 63.3923 290.115 66.68 291.553C69.9676 292.991 74.5329 289.823 76.8768 284.478Z" fill="white"/>
<path d="M83.5231 293.493C84.4303 291.424 83.8302 289.163 82.1829 288.443C80.5355 287.722 78.4646 288.815 77.5574 290.884C76.6502 292.953 77.2502 295.214 78.8976 295.935C80.5449 296.655 82.6158 295.562 83.5231 293.493Z" fill="white"/>
<path d="M191.356 134.522C192.325 132.312 191.684 129.896 189.923 129.126C188.163 128.356 185.95 129.524 184.981 131.734C184.012 133.944 184.653 136.359 186.414 137.129C188.174 137.899 190.387 136.732 191.356 134.522Z" fill="white"/>
<path d="M183.48 230.041C185.358 228.426 184.747 224.643 182.115 221.591C179.484 218.539 175.829 217.374 173.951 218.988C172.074 220.603 172.685 224.386 175.316 227.438C177.948 230.49 181.603 231.655 183.48 230.041Z" fill="white"/>
<path d="M200.58 174.585C201.324 172.027 200.653 169.585 199.082 169.129C197.51 168.673 195.633 170.376 194.889 172.934C194.145 175.491 194.816 177.934 196.388 178.39C197.959 178.846 199.836 177.142 200.58 174.585Z" fill="white"/>
<path d="M264.413 176.071C265.725 174.76 264.949 171.859 262.678 169.592C260.408 167.324 257.503 166.549 256.191 167.86C254.878 169.171 255.655 172.071 257.925 174.339C260.196 176.606 263.1 177.382 264.413 176.071Z" fill="white"/>
<path d="M229.006 133.991C229.066 132.578 227.183 131.35 224.8 131.249C222.417 131.148 220.437 132.212 220.376 133.625C220.316 135.039 222.199 136.266 224.582 136.367C226.965 136.468 228.946 135.404 229.006 133.991Z" fill="white"/>
<path d="M238.659 185.694C244.907 185.694 249.972 182.885 249.972 179.421C249.972 175.956 244.907 173.147 238.659 173.147C232.411 173.147 227.346 175.956 227.346 179.421C227.346 182.885 232.411 185.694 238.659 185.694Z" fill="white"/>
<path d="M210.782 180.242C211.444 177.966 210.644 175.733 208.994 175.254C207.345 174.776 205.472 176.233 204.809 178.509C204.147 180.785 204.947 183.018 206.597 183.497C208.246 183.975 210.119 182.518 210.782 180.242Z" fill="white"/>
<path d="M247.791 138.86C248.395 137.255 246.844 135.187 244.326 134.242C241.808 133.297 239.277 133.832 238.673 135.437C238.069 137.043 239.62 139.11 242.138 140.056C244.656 141.001 247.187 140.466 247.791 138.86Z" fill="white"/>
<path d="M193.82 260.03C195.194 255.308 193.258 250.594 189.497 249.503C185.735 248.412 181.572 251.355 180.198 256.078C178.824 260.8 180.76 265.514 184.521 266.605C188.283 267.696 192.446 264.753 193.82 260.03Z" fill="white"/>
<path d="M245.938 159.833C248.723 159.255 250.674 157.315 250.297 155.5C249.919 153.685 247.355 152.682 244.57 153.26C241.786 153.838 239.834 155.778 240.212 157.593C240.59 159.408 243.153 160.411 245.938 159.833Z" fill="white"/>
<path d="M277.77 208.251C279.112 207.097 278.675 204.393 276.794 202.211C274.913 200.029 272.3 199.196 270.958 200.351C269.615 201.505 270.052 204.209 271.933 206.391C273.814 208.573 276.427 209.406 277.77 208.251Z" fill="white"/>
<path d="M220.573 226.192C221.342 223.55 220.646 221.025 219.02 220.553C217.393 220.081 215.45 221.84 214.682 224.483C213.913 227.125 214.609 229.65 216.236 230.122C217.863 230.594 219.805 228.835 220.573 226.192Z" fill="white"/>
<path d="M187.831 43.6136C188.589 41.008 187.905 38.5192 186.304 38.0547C184.703 37.5902 182.791 39.3259 182.033 41.9314C181.275 44.537 181.959 47.0257 183.56 47.4902C185.16 47.9548 187.073 46.2191 187.831 43.6136Z" fill="white"/>
<path d="M279.361 227.728C281.176 225.916 280.105 221.908 276.969 218.777C273.834 215.645 269.821 214.576 268.006 216.388C266.191 218.201 267.262 222.208 270.398 225.34C273.533 228.471 277.546 229.54 279.361 227.728Z" fill="white"/>
<path d="M208.006 292.194C208.763 286.408 206.769 281.377 203.55 280.957C200.332 280.537 197.109 284.886 196.351 290.672C195.594 296.458 197.589 301.489 200.807 301.909C204.025 302.33 207.248 297.98 208.006 292.194Z" fill="white"/>
<path d="M215.832 329.199C216.463 327.03 215.698 324.902 214.123 324.445C212.548 323.988 210.76 325.375 210.129 327.544C209.498 329.713 210.263 331.842 211.838 332.299C213.413 332.756 215.201 331.368 215.832 329.199Z" fill="white"/>
<path d="M272.19 181.073C272.778 179.511 271.269 177.5 268.82 176.58C266.371 175.661 263.908 176.182 263.321 177.744C262.733 179.306 264.241 181.318 266.691 182.237C269.14 183.157 271.602 182.636 272.19 181.073Z" fill="white"/>
<path d="M242.198 283.318C243.573 281.944 242.764 278.909 240.389 276.538C238.015 274.167 234.976 273.358 233.6 274.732C232.225 276.105 233.035 279.141 235.409 281.512C237.783 283.883 240.822 284.691 242.198 283.318Z" fill="white"/>
<path d="M249.899 288.162C250.502 286.56 248.955 284.498 246.445 283.555C243.934 282.613 241.41 283.147 240.807 284.749C240.204 286.351 241.751 288.413 244.262 289.356C246.772 290.298 249.296 289.764 249.899 288.162Z" fill="white"/>
<path d="M251.123 381.323C252.431 380.017 251.656 377.128 249.394 374.868C247.132 372.609 244.238 371.836 242.931 373.141C241.624 374.447 242.398 377.336 244.66 379.596C246.923 381.855 249.816 382.628 251.123 381.323Z" fill="white"/>
<path d="M258.945 386.331C259.537 384.758 258.02 382.733 255.556 381.808C253.092 380.884 250.615 381.409 250.023 382.982C249.431 384.555 250.948 386.58 253.412 387.504C255.876 388.429 258.353 387.904 258.945 386.331Z" fill="white"/>
<path d="M192.387 214.201C193.708 212.882 192.927 209.964 190.643 207.683C188.359 205.402 185.436 204.622 184.116 205.941C182.795 207.26 183.576 210.178 185.86 212.459C188.144 214.74 191.066 215.52 192.387 214.201Z" fill="white"/>
<path d="M200.144 219.167C200.733 217.601 199.222 215.585 196.769 214.665C194.317 213.744 191.85 214.267 191.261 215.832C190.672 217.398 192.182 219.414 194.635 220.335C197.088 221.255 199.554 220.732 200.144 219.167Z" fill="white"/>
<path d="M99.563 66.1208C100.832 64.8535 100.084 62.0522 97.8929 59.8638C95.7016 57.6754 92.8965 56.9287 91.6276 58.1959C90.3586 59.4632 91.1064 62.2645 93.2977 64.4529C95.489 66.6413 98.2941 67.388 99.563 66.1208Z" fill="white"/>
<path d="M107.585 71.3061C108.186 69.7079 106.645 67.6505 104.141 66.7108C101.638 65.771 99.1206 66.3048 98.5191 67.903C97.9176 69.5012 99.4594 71.5586 101.963 72.4983C104.466 73.4381 106.983 72.9043 107.585 71.3061Z" fill="white"/>
<path d="M230.86 196.776C232.663 194.053 232.713 190.913 230.971 189.763C229.23 188.613 226.356 189.888 224.553 192.61C222.75 195.333 222.7 198.473 224.441 199.623C226.183 200.773 229.056 199.498 230.86 196.776Z" fill="white"/>
<path d="M206.056 195.492C207.219 191.495 205.581 187.506 202.397 186.582C199.214 185.659 195.691 188.15 194.528 192.147C193.365 196.145 195.003 200.134 198.186 201.057C201.37 201.981 204.893 199.489 206.056 195.492Z" fill="white"/>
<path d="M239.08 216.667C240.769 215.571 240.909 212.793 239.393 210.463C237.877 208.133 235.278 207.133 233.589 208.229C231.9 209.326 231.76 212.103 233.276 214.433C234.792 216.763 237.391 217.763 239.08 216.667Z" fill="white"/>
<path d="M302.957 247.932C306.803 247.134 309.499 244.456 308.978 241.95C308.456 239.444 304.915 238.06 301.069 238.859C297.222 239.657 294.527 242.335 295.048 244.841C295.569 247.347 299.11 248.731 302.957 247.932Z" fill="white"/>
<path d="M73.3834 24.0176C74.797 22.9324 74.4214 20.076 72.5444 17.6376C70.6675 15.1992 68 14.1022 66.5864 15.1874C65.1729 16.2726 65.5485 19.129 67.4254 21.5674C69.3023 24.0058 71.9698 25.1027 73.3834 24.0176Z" fill="white"/>
<path d="M312.39 199.3C314.094 198.667 315.16 197.308 314.771 196.264C314.383 195.22 312.686 194.887 310.983 195.519C309.279 196.152 308.213 197.511 308.602 198.555C308.99 199.599 310.687 199.933 312.39 199.3Z" fill="white"/>
<path d="M313.615 223.303C313.85 221.959 312.2 220.549 309.93 220.154C307.66 219.76 305.63 220.529 305.396 221.873C305.161 223.217 306.811 224.627 309.081 225.022C311.351 225.417 313.381 224.647 313.615 223.303Z" fill="white"/>
<path d="M310.436 182.784C310.685 180.878 308.102 178.968 304.666 178.519C301.229 178.07 298.241 179.252 297.991 181.159C297.742 183.066 300.325 184.976 303.761 185.425C307.198 185.874 310.186 184.691 310.436 182.784Z" fill="white"/>
<path d="M330.346 182.388C331.309 180.192 330.8 177.848 329.209 177.152C327.618 176.456 325.548 177.673 324.585 179.869C323.622 182.064 324.131 184.409 325.722 185.104C327.312 185.8 329.383 184.584 330.346 182.388Z" fill="white"/>
<path d="M303.344 220.012C304.119 218.56 302.9 216.4 300.622 215.187C298.344 213.974 295.868 214.168 295.093 215.62C294.318 217.072 295.537 219.233 297.815 220.446C300.093 221.659 302.569 221.465 303.344 220.012Z" fill="white"/>
<path d="M198.997 102.12C200.006 99.8181 199.472 97.3606 197.803 96.6308C196.134 95.9011 193.963 97.1755 192.954 99.4773C191.945 101.779 192.479 104.237 194.148 104.966C195.816 105.696 197.987 104.422 198.997 102.12Z" fill="white"/>
<path d="M208.791 112.135C211.364 110.905 212.069 107.028 210.367 103.475C208.665 99.9221 205.199 98.0383 202.626 99.2676C200.054 100.497 199.348 104.374 201.05 107.927C202.753 111.48 206.218 113.364 208.791 112.135Z" fill="white"/>
<path d="M48.8626 53.5558C50.6793 52.3655 50.5798 49.0076 48.6405 46.0559C46.7012 43.1042 43.6565 41.6764 41.8398 42.8667C40.0232 44.0571 40.1226 47.4149 42.0619 50.3666C44.0012 53.3183 47.046 54.7462 48.8626 53.5558Z" fill="white"/>
<path d="M256.275 218.814C256.952 216.498 256.14 214.224 254.461 213.735C252.783 213.246 250.874 214.728 250.198 217.044C249.521 219.36 250.333 221.634 252.012 222.123C253.69 222.611 255.599 221.13 256.275 218.814Z" fill="white"/>
<path d="M250.955 228.201C252.343 227.291 252.266 224.726 250.784 222.47C249.302 220.214 246.976 219.123 245.589 220.032C244.201 220.941 244.278 223.507 245.76 225.762C247.242 228.018 249.568 229.11 250.955 228.201Z" fill="white"/>
<path d="M110.202 340.5C110.874 338.19 110.061 335.924 108.386 335.438C106.711 334.952 104.808 336.43 104.136 338.74C103.464 341.049 104.278 343.315 105.953 343.801C107.628 344.287 109.531 342.809 110.202 340.5Z" fill="white"/>
<path d="M105.099 350.217C106.5 349.299 106.422 346.708 104.925 344.43C103.428 342.152 101.079 341.049 99.679 341.966C98.2786 342.884 98.3568 345.475 99.8536 347.753C101.35 350.031 103.699 351.134 105.099 350.217Z" fill="white"/>
<path d="M327.182 141.436C328.647 138.096 328.169 134.66 326.115 133.762C324.061 132.864 321.209 134.843 319.745 138.183C318.28 141.523 318.758 144.958 320.812 145.856C322.866 146.755 325.718 144.776 327.182 141.436Z" fill="white"/>
<path d="M277.496 135.94C279.158 134.665 278.716 131.307 276.51 128.441C274.304 125.575 271.168 124.286 269.507 125.561C267.845 126.836 268.287 130.194 270.493 133.06C272.699 135.926 275.835 137.216 277.496 135.94Z" fill="white"/>
<path d="M306.263 168.748C306.761 165.893 303.256 162.898 298.435 162.06C293.614 161.221 289.302 162.856 288.804 165.711C288.306 168.567 291.811 171.561 296.632 172.4C301.453 173.238 305.765 171.603 306.263 168.748Z" fill="white"/>
<path d="M274.942 159.683C276.532 157.72 275.032 153.877 271.593 151.1C268.154 148.323 264.078 147.663 262.488 149.626C260.899 151.589 262.398 155.431 265.837 158.209C269.276 160.986 273.353 161.646 274.942 159.683Z" fill="white"/>
<path d="M289.705 123.844C289.992 121.65 287.02 119.453 283.067 118.937C279.114 118.421 275.677 119.781 275.39 121.974C275.102 124.168 278.074 126.364 282.027 126.881C285.98 127.397 289.417 126.037 289.705 123.844Z" fill="white"/>
<path d="M19.8526 113.406C21.4069 112.213 20.9929 109.071 18.9278 106.388C16.8627 103.705 13.9286 102.498 12.3742 103.691C10.8199 104.884 11.234 108.026 13.2991 110.709C15.3641 113.392 18.2983 114.599 19.8526 113.406Z" fill="white"/>
<path d="M32.8824 101.692C33.1917 99.3302 29.9866 96.9643 25.7237 96.4076C21.4608 95.8509 17.7543 97.3142 17.445 99.6759C17.1358 102.038 20.3409 104.403 24.6038 104.96C28.8667 105.517 32.5732 104.054 32.8824 101.692Z" fill="white"/>
<path d="M316.345 139.354C318.183 135.163 317.208 130.688 314.168 129.359C311.128 128.029 307.173 130.348 305.336 134.539C303.498 138.73 304.473 143.205 307.513 144.534C310.553 145.864 314.508 143.545 316.345 139.354Z" fill="white"/>
<path d="M282.131 166.15C282.863 164.78 281.714 162.741 279.565 161.597C277.416 160.453 275.081 160.637 274.349 162.008C273.617 163.378 274.766 165.417 276.915 166.561C279.064 167.705 281.399 167.521 282.131 166.15Z" fill="white"/>
<path d="M287.435 233.207C288.169 231.833 287.018 229.791 284.866 228.645C282.714 227.499 280.374 227.684 279.641 229.058C278.907 230.432 280.058 232.475 282.21 233.621C284.362 234.766 286.702 234.581 287.435 233.207Z" fill="white"/>
<path d="M320.813 168.017C322.99 165.51 323.453 162.35 321.846 160.959C320.24 159.567 317.172 160.472 314.996 162.979C312.819 165.486 312.356 168.646 313.963 170.037C315.569 171.429 318.636 170.524 320.813 168.017Z" fill="white"/>
<path d="M306.372 154.729C308.558 153.685 309.158 150.392 307.713 147.374C306.267 144.356 303.322 142.757 301.136 143.801C298.95 144.846 298.35 148.139 299.795 151.157C301.241 154.175 304.186 155.774 306.372 154.729Z" fill="white"/>
<path d="M130.071 343.491C131.918 339.279 130.939 334.782 127.885 333.446C124.83 332.11 120.857 334.442 119.01 338.654C117.163 342.865 118.142 347.363 121.196 348.698C124.251 350.034 128.224 347.703 130.071 343.491Z" fill="white"/>
<path d="M120.247 359.214C122.579 358.1 123.219 354.586 121.677 351.367C120.135 348.148 116.993 346.441 114.661 347.556C112.328 348.67 111.688 352.184 113.23 355.403C114.773 358.622 117.914 360.329 120.247 359.214Z" fill="white"/>
<path d="M241.381 237.26C243.164 233.193 242.22 228.85 239.272 227.561C236.323 226.272 232.488 228.523 230.704 232.59C228.921 236.657 229.865 241 232.813 242.289C235.762 243.578 239.597 241.327 241.381 237.26Z" fill="white"/>
<path d="M231.702 252.968C233.993 251.873 234.622 248.424 233.108 245.264C231.594 242.103 228.51 240.429 226.219 241.523C223.928 242.618 223.299 246.067 224.813 249.227C226.327 252.388 229.411 254.062 231.702 252.968Z" fill="white"/>
<path d="M214.832 131.401C216.641 127.274 215.681 122.867 212.687 121.558C209.693 120.248 205.798 122.532 203.988 126.659C202.179 130.786 203.139 135.193 206.133 136.503C209.127 137.813 213.022 135.528 214.832 131.401Z" fill="white"/>
<path d="M204.885 146.674C207.016 145.656 207.6 142.446 206.191 139.505C204.782 136.564 201.912 135.005 199.782 136.023C197.651 137.041 197.067 140.25 198.476 143.192C199.885 146.133 202.755 147.692 204.885 146.674Z" fill="white"/>
<path d="M232.031 158.734C233.878 154.522 232.899 150.025 229.845 148.689C226.791 147.354 222.817 149.685 220.97 153.897C219.124 158.109 220.102 162.606 223.157 163.942C226.211 165.277 230.184 162.946 232.031 158.734Z" fill="white"/>
<path d="M221.992 174.006C224.139 172.98 224.729 169.744 223.308 166.778C221.887 163.812 218.994 162.24 216.846 163.267C214.698 164.293 214.109 167.529 215.53 170.495C216.951 173.46 219.844 175.032 221.992 174.006Z" fill="white"/>
<path d="M127.66 142.763C128.972 139.769 128.277 136.573 126.107 135.623C123.936 134.674 121.112 136.331 119.799 139.325C118.486 142.319 119.182 145.515 121.352 146.465C123.523 147.414 126.347 145.757 127.66 142.763Z" fill="white"/>
<path d="M148.991 96.564C150.304 93.5702 149.609 90.3738 147.438 89.4245C145.268 88.4752 142.444 90.1326 141.131 93.1264C139.818 96.1201 140.514 99.3166 142.684 100.266C144.855 101.215 147.679 99.5578 148.991 96.564Z" fill="white"/>
<path d="M280.647 148.924C283.345 148.723 285.425 147.135 285.293 145.379C285.162 143.622 282.868 142.362 280.17 142.564C277.473 142.765 275.392 144.353 275.524 146.109C275.656 147.865 277.949 149.126 280.647 148.924Z" fill="white"/>
<path d="M250.92 96.9757C251.542 94.8445 250.795 92.752 249.25 92.302C247.705 91.852 245.948 93.2149 245.325 95.346C244.703 97.4772 245.451 99.5696 246.996 100.02C248.541 100.47 250.298 99.1068 250.92 96.9757Z" fill="white"/>
<path d="M223.579 246.652C224.195 245.014 222.613 242.904 220.044 241.94C217.476 240.976 214.894 241.522 214.278 243.16C213.661 244.798 215.244 246.908 217.812 247.872C220.381 248.836 222.962 248.29 223.579 246.652Z" fill="white"/>
<path d="M204.328 240.06C205.702 239.006 205.334 236.226 203.507 233.852C201.679 231.478 199.084 230.408 197.71 231.463C196.336 232.517 196.704 235.297 198.532 237.671C200.359 240.045 202.955 241.115 204.328 240.06Z" fill="white"/>
<path d="M205.176 253.138C206.019 251.56 204.694 249.212 202.219 247.894C199.743 246.576 197.053 246.787 196.21 248.365C195.368 249.943 196.692 252.291 199.168 253.609C201.644 254.927 204.334 254.716 205.176 253.138Z" fill="white"/>
<path d="M253.68 329.552C255.093 324.693 253.1 319.843 249.227 318.719C245.354 317.595 241.069 320.624 239.655 325.483C238.241 330.343 240.235 335.193 244.108 336.317C247.98 337.44 252.266 334.412 253.68 329.552Z" fill="white"/>
<path d="M264.368 321.742C265.151 320.276 263.921 318.096 261.622 316.872C259.324 315.649 256.826 315.845 256.043 317.311C255.261 318.777 256.49 320.957 258.789 322.181C261.088 323.404 263.586 323.208 264.368 321.742Z" fill="white"/>
<path d="M207.199 269.443C209.836 269.246 211.868 267.694 211.74 265.976C211.611 264.258 209.369 263.025 206.733 263.222C204.097 263.419 202.064 264.971 202.193 266.689C202.322 268.407 204.563 269.64 207.199 269.443Z" fill="white"/>
<path d="M191.65 85.5192C192.864 84.3064 192.147 81.6244 190.049 79.5287C187.95 77.433 185.265 76.7172 184.05 77.9299C182.836 79.1426 183.553 81.8247 185.651 83.9204C187.75 86.0161 190.435 86.7319 191.65 85.5192Z" fill="white"/>
<path d="M200.567 121.921C201.815 120.675 201.076 117.918 198.917 115.762C196.759 113.607 193.998 112.869 192.751 114.114C191.503 115.36 192.242 118.117 194.401 120.273C196.559 122.428 199.32 123.166 200.567 121.921Z" fill="white"/>
<path d="M172.974 246.7C176.513 246.7 179.382 245.11 179.382 243.148C179.382 241.186 176.513 239.596 172.974 239.596C169.435 239.596 166.566 241.186 166.566 243.148C166.566 245.11 169.435 246.7 172.974 246.7Z" fill="white"/>
<path d="M193.657 91.7715C194.264 90.1589 192.709 88.0832 190.184 87.1354C187.659 86.1875 185.119 86.7264 184.512 88.339C183.906 89.9516 185.461 92.0273 187.986 92.9752C190.511 93.9231 193.05 93.3842 193.657 91.7715Z" fill="white"/>
<path d="M183.271 124.738C187.193 123.924 189.942 121.194 189.41 118.639C188.879 116.084 185.268 114.673 181.346 115.487C177.424 116.301 174.676 119.032 175.207 121.587C175.739 124.141 179.349 125.552 183.271 124.738Z" fill="white"/>
<path d="M270.896 92.787C272.662 88.7588 272.086 84.6147 269.607 83.5309C267.129 82.4471 263.688 84.8341 261.922 88.8622C260.156 92.8904 260.732 97.0345 263.211 98.1183C265.689 99.2021 269.13 96.8152 270.896 92.787Z" fill="white"/>
<path d="M209.383 86.3539C210.708 85.3368 210.354 82.657 208.592 80.3683C206.831 78.0797 204.328 77.0489 203.004 78.0659C201.679 79.083 202.033 81.7628 203.795 84.0515C205.556 86.3401 208.058 87.371 209.383 86.3539Z" fill="white"/>
<path d="M105.578 147.574C107.26 146.95 108.312 145.606 107.927 144.572C107.542 143.539 105.867 143.208 104.185 143.833C102.503 144.458 101.451 145.802 101.836 146.835C102.221 147.868 103.896 148.199 105.578 147.574Z" fill="white"/>
<path d="M238.186 85.8181C238.453 83.7736 235.68 81.7257 231.991 81.2439C228.302 80.7622 225.095 82.0291 224.827 84.0736C224.559 86.1181 227.333 88.1661 231.022 88.6478C234.71 89.1296 237.918 87.8627 238.186 85.8181Z" fill="white"/>
<path d="M243.788 84.6365C244.723 82.5041 244.226 80.2265 242.677 79.5494C241.129 78.8722 239.116 80.0518 238.181 82.1842C237.246 84.3166 237.743 86.5942 239.291 87.2713C240.84 87.9485 242.853 86.7688 243.788 84.6365Z" fill="white"/>
<path d="M223.731 122.14C224.53 120.644 223.275 118.418 220.929 117.169C218.582 115.92 216.033 116.121 215.234 117.617C214.435 119.113 215.69 121.339 218.036 122.588C220.383 123.837 222.932 123.637 223.731 122.14Z" fill="white"/>
<path d="M122.19 53.6565C123.029 52.0852 121.712 49.7488 119.25 48.4381C116.788 47.1273 114.112 47.3385 113.273 48.9098C112.435 50.4811 113.751 52.8175 116.213 54.1282C118.675 55.439 121.351 55.2278 122.19 53.6565Z" fill="white"/>
<path d="M260.131 121.727C262.561 118.929 263.077 115.402 261.284 113.849C259.491 112.296 256.068 113.306 253.638 116.104C251.208 118.902 250.692 122.43 252.485 123.982C254.278 125.535 257.702 124.526 260.131 121.727Z" fill="white"/>
<path d="M274.84 108.608C275.936 106.108 275.211 103.376 273.221 102.506C271.23 101.635 268.728 102.956 267.632 105.455C266.536 107.955 267.261 110.687 269.251 111.557C271.242 112.428 273.744 111.107 274.84 108.608Z" fill="white"/>
<path d="M220.03 102.068C225.283 101.675 229.334 98.5837 229.077 95.1631C228.821 91.7425 224.355 89.2879 219.101 89.6805C213.848 90.0731 209.797 93.1643 210.054 96.5849C210.31 100.005 214.776 102.46 220.03 102.068Z" fill="white"/>
<path d="M225.11 74.4203C225.318 73.2243 223.854 71.9706 221.839 71.6201C219.824 71.2696 218.021 71.9551 217.813 73.1511C217.604 74.3471 219.068 75.6008 221.084 75.9513C223.099 76.3018 224.901 75.6164 225.11 74.4203Z" fill="white"/>
<path d="M207.225 74.4868C208.029 72.9802 206.765 70.7388 204.401 69.4806C202.038 68.2224 199.47 68.4239 198.666 69.9305C197.861 71.4372 199.125 73.6786 201.489 74.9368C203.853 76.1949 206.42 75.9935 207.225 74.4868Z" fill="white"/>
<path d="M236.301 69.2119C238.437 66.7515 238.893 63.6515 237.318 62.288C235.744 60.9246 232.736 61.8139 230.599 64.2743C228.463 66.7348 228.007 69.8348 229.582 71.1982C231.156 72.5617 234.164 71.6724 236.301 69.2119Z" fill="white"/>
<path d="M262.125 148.646C263.122 146.373 262.463 143.888 260.653 143.096C258.843 142.305 256.568 143.506 255.571 145.78C254.574 148.053 255.233 150.538 257.043 151.33C258.853 152.121 261.128 150.92 262.125 148.646Z" fill="white"/>
<path d="M224.414 69.933C226.869 68.7602 227.543 65.0644 225.921 61.6782C224.298 58.292 220.994 56.4976 218.539 57.6703C216.085 58.8431 215.411 62.5389 217.033 65.9251C218.655 69.3113 221.96 71.1057 224.414 69.933Z" fill="white"/>
<path d="M135.634 272.544C136.575 270.398 136.074 268.105 134.515 267.423C132.956 266.741 130.93 267.929 129.988 270.075C129.047 272.222 129.548 274.514 131.107 275.196C132.666 275.878 134.693 274.691 135.634 272.544Z" fill="white"/>
<path d="M112.39 255.958C112.611 254.69 111.055 253.36 108.915 252.988C106.774 252.616 104.86 253.342 104.638 254.61C104.417 255.878 105.973 257.208 108.114 257.58C110.254 257.953 112.169 257.226 112.39 255.958Z" fill="white"/>
<path d="M123.35 250.73C125.489 248.267 125.945 245.163 124.367 243.797C122.79 242.431 119.777 243.32 117.638 245.784C115.499 248.247 115.044 251.351 116.621 252.717C118.199 254.083 121.211 253.194 123.35 250.73Z" fill="white"/>
<path d="M111.58 251.711C114.135 250.49 114.836 246.64 113.145 243.111C111.454 239.582 108.012 237.711 105.457 238.932C102.902 240.153 102.201 244.004 103.892 247.533C105.582 251.061 109.024 252.932 111.58 251.711Z" fill="white"/>
<path d="M107.273 113.085C107.967 110.43 105.552 107.5 101.878 106.542C98.2033 105.583 94.6618 106.959 93.9673 109.614C93.2728 112.269 95.6883 115.198 99.3626 116.157C103.037 117.115 106.578 115.74 107.273 113.085Z" fill="white"/>
<path d="M168.181 145.439C168.402 144.171 166.846 142.841 164.705 142.469C162.565 142.097 160.65 142.823 160.429 144.091C160.208 145.359 161.764 146.689 163.904 147.061C166.045 147.434 167.959 146.707 168.181 145.439Z" fill="white"/>
<path d="M157.214 149.586C159.457 147.003 159.935 143.749 158.281 142.318C156.628 140.886 153.47 141.819 151.227 144.402C148.985 146.985 148.507 150.239 150.16 151.671C151.813 153.102 154.972 152.169 157.214 149.586Z" fill="white"/>
<path d="M146.072 151.108C148.676 149.864 149.391 145.941 147.668 142.346C145.946 138.751 142.439 136.846 139.835 138.09C137.231 139.334 136.516 143.257 138.238 146.852C139.961 150.447 143.468 152.352 146.072 151.108Z" fill="white"/>
<path d="M149.1 119.968C151.669 118.74 152.374 114.87 150.675 111.324C148.976 107.778 145.516 105.899 142.947 107.126C140.378 108.354 139.672 112.224 141.371 115.77C143.07 119.316 146.53 121.196 149.1 119.968Z" fill="white"/>
<path d="M192.187 51.5385C195.031 51.3259 197.224 49.6519 197.085 47.7994C196.947 45.9469 194.529 44.6175 191.684 44.83C188.84 45.0426 186.647 46.7166 186.786 48.5691C186.925 50.4216 189.343 51.7511 192.187 51.5385Z" fill="white"/>
<path d="M54.7888 206.444C54.7975 204.648 52.4332 203.181 49.508 203.166C46.5827 203.152 44.2041 204.596 44.1954 206.392C44.1866 208.188 46.5508 209.656 49.4761 209.67C52.4014 209.684 54.78 208.24 54.7888 206.444Z" fill="white"/>
<path d="M97.8689 186.552C99.452 185.534 99.3896 182.622 97.7297 180.05C96.0698 177.478 93.4408 176.219 91.8578 177.237C90.2747 178.256 90.337 181.167 91.997 183.74C93.6569 186.312 96.2859 187.571 97.8689 186.552Z" fill="white"/>
<path d="M122.153 182.449C126.338 182.157 129.593 179.959 129.424 177.541C129.255 175.123 125.725 173.399 121.54 173.691C117.355 173.984 114.1 176.181 114.269 178.599C114.439 181.018 117.968 182.741 122.153 182.449Z" fill="white"/>
<path d="M163.39 113.66C164.847 112.723 164.979 110.337 163.684 108.332C162.39 106.327 160.161 105.461 158.704 106.398C157.248 107.336 157.116 109.721 158.41 111.727C159.704 113.732 161.934 114.598 163.39 113.66Z" fill="white"/>
<path d="M87.4215 170.945C89.6894 169.721 90.8928 167.555 90.1092 166.107C89.3257 164.659 86.852 164.478 84.5841 165.702C82.3161 166.926 81.1128 169.092 81.8963 170.54C82.6798 171.988 85.1535 172.169 87.4215 170.945Z" fill="white"/>
<path d="M72.8047 235.81C74.5499 234.687 74.8191 232.001 73.4058 229.811C71.9926 227.621 69.4321 226.756 67.6869 227.879C65.9416 229.002 65.6725 231.688 67.0857 233.878C68.4989 236.068 71.0594 236.933 72.8047 235.81Z" fill="white"/>
<path d="M137.21 249.669C138.691 248.718 138.633 245.992 137.081 243.58C135.528 241.168 133.069 239.984 131.587 240.935C130.106 241.886 130.163 244.612 131.716 247.024C133.268 249.436 135.728 250.62 137.21 249.669Z" fill="white"/>
<path d="M186.88 238.487C189.395 235.598 190.132 232.127 188.527 230.734C186.922 229.341 183.583 230.553 181.069 233.441C178.555 236.33 177.817 239.801 179.422 241.194C181.027 242.587 184.366 241.375 186.88 238.487Z" fill="white"/>
<path d="M136.301 213.956C137.186 210.173 136.21 206.711 134.12 206.223C132.031 205.736 129.62 208.407 128.735 212.19C127.85 215.973 128.826 219.435 130.916 219.923C133.005 220.41 135.416 217.739 136.301 213.956Z" fill="white"/>
<path d="M165.074 88.0301C167.862 86.2403 168.117 81.6741 165.643 77.8312C163.17 73.9884 158.904 72.3241 156.116 74.1139C153.328 75.9038 153.074 80.47 155.547 84.3128C158.021 88.1557 162.286 89.8199 165.074 88.0301Z" fill="white"/>
<path d="M121.452 229.068C123.523 228.494 124.473 225.406 123.574 222.172C122.674 218.937 120.266 216.781 118.195 217.355C116.124 217.93 115.174 221.017 116.073 224.252C116.973 227.486 119.381 229.643 121.452 229.068Z" fill="white"/>
<path d="M134.208 225.545C134.459 223.762 132.663 222.038 130.198 221.692C127.733 221.347 125.532 222.513 125.281 224.295C125.031 226.077 126.827 227.802 129.292 228.147C131.757 228.492 133.958 227.327 134.208 225.545Z" fill="white"/>
<path d="M166.035 95.5452C166.314 93.5567 164.309 91.6323 161.558 91.2471C158.806 90.8619 156.349 92.1616 156.07 94.1501C155.791 96.1387 157.795 98.063 160.547 98.4482C163.299 98.8335 165.756 97.5337 166.035 95.5452Z" fill="white"/>
<path d="M181.185 50.0667C181.467 48.0553 179.44 46.1089 176.658 45.7194C173.876 45.3299 171.391 46.6447 171.109 48.6562C170.827 50.6676 172.853 52.614 175.636 53.0035C178.418 53.393 180.902 52.0782 181.185 50.0667Z" fill="white"/>
<path d="M72.1004 260.841C74.2788 259.442 74.1949 255.435 71.9129 251.89C69.6309 248.345 66.015 246.605 63.8366 248.003C61.6581 249.402 61.742 253.41 64.024 256.955C66.306 260.5 69.9219 262.24 72.1004 260.841Z" fill="white"/>
<path d="M151.627 173.217C151.73 171.509 149.415 169.979 146.457 169.801C143.498 169.622 141.016 170.862 140.913 172.57C140.809 174.278 143.124 175.808 146.082 175.986C149.041 176.165 151.523 174.925 151.627 173.217Z" fill="white"/>
<path d="M178.783 161.363C179.746 158.805 179.352 156.291 177.903 155.747C176.455 155.203 174.5 156.836 173.537 159.394C172.575 161.952 172.968 164.466 174.417 165.01C175.866 165.553 177.82 163.921 178.783 161.363Z" fill="white"/>
<path d="M64.2677 105.264C65.337 102.065 63.3074 98.5067 59.7346 97.3156C56.1618 96.1246 52.3986 97.7521 51.3294 100.951C50.2601 104.15 52.2897 107.708 55.8625 108.9C59.4353 110.091 63.1984 108.463 64.2677 105.264Z" fill="white"/>
<path d="M170.269 162.569C173.198 159.977 174.405 156.56 172.964 154.935C171.523 153.311 167.981 154.096 165.052 156.687C162.122 159.279 160.916 162.696 162.357 164.32C163.798 165.945 167.34 165.16 170.269 162.569Z" fill="white"/>
<path d="M94.2122 195.753C97.173 193.133 98.3928 189.679 96.9366 188.037C95.4804 186.396 91.8996 187.189 88.9388 189.809C85.9779 192.428 84.7582 195.883 86.2144 197.524C87.6706 199.166 91.2513 198.373 94.2122 195.753Z" fill="white"/>
<path d="M177.986 142.022C179.545 141.285 179.983 138.945 178.964 136.796C177.945 134.647 175.855 133.502 174.296 134.239C172.737 134.977 172.299 137.317 173.318 139.466C174.337 141.615 176.427 142.76 177.986 142.022Z" fill="white"/>
<path d="M169.829 180.215C171.562 177.895 171.738 175.099 170.222 173.969C168.706 172.84 166.073 173.806 164.34 176.126C162.607 178.446 162.431 181.242 163.947 182.371C165.462 183.5 168.096 182.535 169.829 180.215Z" fill="white"/>
<path d="M173.608 123.735C173.844 121.993 171.733 120.269 168.892 119.884C166.05 119.499 163.555 120.598 163.318 122.34C163.081 124.081 165.193 125.805 168.034 126.19C170.876 126.576 173.371 125.476 173.608 123.735Z" fill="white"/>
<path d="M180.991 106.492C181.239 104.666 179.026 102.859 176.047 102.455C173.067 102.051 170.451 103.204 170.203 105.029C169.955 106.855 172.169 108.662 175.148 109.066C178.127 109.47 180.743 108.317 180.991 106.492Z" fill="white"/>
<path d="M187.375 282.767C191.165 281.981 193.82 279.34 193.306 276.868C192.791 274.396 189.302 273.03 185.512 273.817C181.723 274.603 179.067 277.245 179.581 279.716C180.096 282.188 183.585 283.554 187.375 282.767Z" fill="white"/>
<path d="M214.218 222.861C218.344 222.02 221.243 219.158 220.694 216.469C220.144 213.78 216.354 212.281 212.228 213.122C208.101 213.963 205.202 216.825 205.751 219.514C206.301 222.204 210.091 223.702 214.218 222.861Z" fill="white"/>
<path d="M222.981 209.92C223.208 208.247 221.185 206.592 218.462 206.222C215.739 205.853 213.348 206.91 213.121 208.583C212.893 210.256 214.916 211.911 217.639 212.28C220.362 212.649 222.753 211.592 222.981 209.92Z" fill="white"/>
<path d="M103.859 284.872C107.793 284.056 110.549 281.317 110.016 278.755C109.483 276.193 105.862 274.777 101.929 275.594C97.9951 276.41 95.2387 279.149 95.7719 281.711C96.305 284.273 99.926 285.688 103.859 284.872Z" fill="white"/>
<path d="M94.7067 281.909C94.9408 280.187 92.8551 278.482 90.0481 278.102C87.2412 277.721 84.7759 278.809 84.5418 280.531C84.3077 282.254 86.3934 283.958 89.2004 284.339C92.0073 284.719 94.4726 283.632 94.7067 281.909Z" fill="white"/>
<path d="M229.653 404.807C230.423 402.775 228.517 400.17 225.395 398.99C222.273 397.81 219.117 398.501 218.347 400.534C217.576 402.567 219.483 405.172 222.605 406.352C225.727 407.532 228.882 406.84 229.653 404.807Z" fill="white"/>
<path d="M218.097 400.075C219.013 398.992 218.327 396.908 216.564 395.42C214.801 393.933 212.629 393.606 211.712 394.689C210.796 395.772 211.482 397.856 213.245 399.344C215.008 400.831 217.18 401.158 218.097 400.075Z" fill="white"/>
<path d="M102.334 148.735C102.444 146.927 99.9966 145.308 96.8686 145.119C93.7406 144.93 91.1162 146.243 91.0067 148.051C90.8972 149.859 93.3442 151.478 96.4722 151.667C99.6002 151.856 102.225 150.543 102.334 148.735Z" fill="white"/>
<path d="M104.501 132.229C107.222 129.822 108.343 126.647 107.004 125.138C105.666 123.629 102.375 124.358 99.6535 126.766C96.9324 129.173 95.8116 132.348 97.1501 133.857C98.4886 135.365 101.78 134.637 104.501 132.229Z" fill="white"/>
<path d="M135.514 174.841C137.825 173.958 139.239 172.046 138.674 170.57C138.108 169.094 135.777 168.613 133.466 169.496C131.156 170.379 129.741 172.291 130.307 173.767C130.872 175.243 133.204 175.724 135.514 174.841Z" fill="white"/>
<path d="M158.042 140.043C160.274 139.727 161.683 136.647 161.189 133.163C160.695 129.679 158.485 127.11 156.253 127.426C154.022 127.741 152.613 130.822 153.107 134.306C153.601 137.79 155.811 140.358 158.042 140.043Z" fill="white"/>
<path d="M175.331 323.359C175.535 322.19 174.101 320.963 172.128 320.62C170.154 320.277 168.389 320.947 168.185 322.116C167.982 323.286 169.416 324.512 171.389 324.855C173.362 325.198 175.127 324.528 175.331 323.359Z" fill="white"/>
<path d="M164.736 327.624C167.03 324.983 167.518 321.654 165.827 320.19C164.136 318.725 160.906 319.679 158.612 322.32C156.319 324.961 155.831 328.289 157.522 329.754C159.213 331.218 162.443 330.265 164.736 327.624Z" fill="white"/>
<path d="M165.466 317.978C167.679 317.665 169.075 314.612 168.586 311.158C168.096 307.705 165.905 305.159 163.693 305.472C161.481 305.785 160.084 308.838 160.574 312.292C161.063 315.745 163.254 318.291 165.466 317.978Z" fill="white"/>
<path d="M248.13 120.289C248.35 119.028 246.802 117.706 244.673 117.336C242.544 116.966 240.64 117.687 240.42 118.948C240.2 120.208 241.748 121.531 243.877 121.901C246.006 122.271 247.91 121.55 248.13 120.289Z" fill="white"/>
<path d="M237.321 124.555C239.66 121.862 240.157 118.467 238.43 116.972C236.704 115.477 233.409 116.449 231.07 119.142C228.732 121.836 228.235 125.231 229.961 126.726C231.687 128.22 234.982 127.249 237.321 124.555Z" fill="white"/>
<path d="M238.011 114.872C240.232 114.558 241.633 111.494 241.142 108.03C240.65 104.565 238.452 102.01 236.232 102.324C234.012 102.638 232.611 105.702 233.102 109.166C233.593 112.631 235.791 115.186 238.011 114.872Z" fill="white"/>
<path d="M195.386 340.088C197.558 337.586 198.021 334.435 196.42 333.049C194.82 331.663 191.761 332.566 189.59 335.068C187.418 337.569 186.955 340.72 188.555 342.107C190.156 343.493 193.214 342.589 195.386 340.088Z" fill="white"/>
<path d="M184.141 341.278C186.582 340.112 187.252 336.436 185.638 333.067C184.024 329.698 180.737 327.913 178.296 329.079C175.856 330.245 175.186 333.921 176.8 337.29C178.414 340.659 181.701 342.444 184.141 341.278Z" fill="white"/>
<path d="M203.911 349.521C206.689 347.062 207.834 343.82 206.468 342.279C205.101 340.739 201.74 341.483 198.962 343.942C196.183 346.401 195.038 349.643 196.404 351.183C197.771 352.724 201.132 351.979 203.911 349.521Z" fill="white"/>
<path d="M196.298 330.704C198.552 330.386 199.975 327.272 199.476 323.75C198.976 320.227 196.744 317.631 194.489 317.949C192.235 318.268 190.812 321.382 191.311 324.904C191.811 328.426 194.043 331.023 196.298 330.704Z" fill="white"/>
<path d="M138.367 131.434C139.085 128.837 136.753 125.929 133.16 124.938C129.566 123.947 126.071 125.25 125.353 127.847C124.635 130.443 126.967 133.352 130.56 134.342C134.154 135.333 137.649 134.031 138.367 131.434Z" fill="white"/>
<path d="M119.501 153.605C121.017 151.575 121.17 149.128 119.843 148.14C118.516 147.151 116.211 147.995 114.695 150.025C113.179 152.055 113.026 154.501 114.353 155.49C115.68 156.479 117.985 155.635 119.501 153.605Z" fill="white"/>
<path d="M33.739 80.9781C33.7474 79.2592 31.4829 77.8546 28.6812 77.841C25.8794 77.8273 23.6012 79.2097 23.5928 80.9286C23.5844 82.6475 25.8489 84.052 28.6507 84.0657C31.4525 84.0794 33.7306 82.697 33.739 80.9781Z" fill="white"/>
<path d="M51.2747 96.5041C52.6047 95.6481 52.5525 93.2025 51.1581 91.0416C49.7637 88.8808 47.5551 87.823 46.225 88.679C44.895 89.535 44.9472 91.9806 46.3416 94.1415C47.7361 96.3023 49.9447 97.3601 51.2747 96.5041Z" fill="white"/>
<path d="M93.9736 44.753C96.9957 44.5419 99.3465 42.9558 99.2243 41.2103C99.1021 39.4648 96.5531 38.2209 93.531 38.432C90.5088 38.643 88.158 40.2291 88.2802 41.9746C88.4024 43.7201 90.9514 44.964 93.9736 44.753Z" fill="white"/>
<path d="M78.9452 60.9724C79.8012 57.3132 78.8592 53.9651 76.8411 53.4942C74.823 53.0234 72.4931 55.6081 71.6371 59.2673C70.781 62.9265 71.723 66.2746 73.7411 66.7454C75.7592 67.2162 78.0891 64.6316 78.9452 60.9724Z" fill="white"/>
<path d="M51.6329 77.9466C54.1216 75.3212 54.8735 71.9966 53.3124 70.5208C51.7513 69.045 48.4684 69.9769 45.9798 72.6022C43.4912 75.2276 42.7392 78.5523 44.3003 80.0281C45.8614 81.5039 49.1443 80.572 51.6329 77.9466Z" fill="white"/>
<path d="M80.1878 77.001C80.6481 74.6365 78.8776 72.3035 76.2333 71.7902C73.589 71.2769 71.0723 72.7776 70.6121 75.1422C70.1518 77.5067 71.9223 79.8397 74.5666 80.353C77.2109 80.8663 79.7276 79.3656 80.1878 77.001Z" fill="white"/>
<path d="M91.0513 57.0617C93.5655 54.1734 94.3026 50.7025 92.6978 49.3093C91.0929 47.916 87.7538 49.1281 85.2396 52.0165C82.7254 54.9048 81.9883 58.3757 83.5931 59.7689C85.198 61.1622 88.5371 59.9501 91.0513 57.0617Z" fill="white"/>
<path d="M72.208 85.5687C73.658 84.6355 73.7879 82.2586 72.498 80.2597C71.2081 78.2609 68.9869 77.397 67.5368 78.3303C66.0868 79.2635 65.957 81.6404 67.2468 83.6393C68.5367 85.6381 70.7579 86.502 72.208 85.5687Z" fill="white"/>
<path d="M70.1372 151.617C71.5094 150.734 71.6321 148.484 70.4112 146.592C69.1903 144.7 67.0881 143.883 65.7159 144.766C64.3437 145.649 64.2211 147.898 65.442 149.79C66.6629 151.682 68.765 152.5 70.1372 151.617Z" fill="white"/>
<path d="M170.469 68.6537C172.859 67.3636 174.128 65.0809 173.302 63.5552C172.476 62.0294 169.869 61.8384 167.479 63.1284C165.089 64.4185 163.821 66.7012 164.646 68.227C165.472 69.7527 168.079 69.9438 170.469 68.6537Z" fill="white"/>
<path d="M38.8901 70.5455C41.1435 69.9206 42.1775 66.5631 41.1996 63.0463C40.2217 59.5296 37.6022 57.1853 35.3488 57.8102C33.0953 58.4352 32.0613 61.7927 33.0392 65.3094C34.0171 68.8262 36.6367 71.1705 38.8901 70.5455Z" fill="white"/>
<path d="M65.1162 69.2757C65.5224 66.3826 62.6046 63.5827 58.5993 63.0219C54.5939 62.4612 51.0177 64.352 50.6116 67.2451C50.2055 70.1382 53.1233 72.9381 57.1286 73.4988C61.1339 74.0596 64.7101 72.1688 65.1162 69.2757Z" fill="white"/>
<path d="M86.8933 37.3541C89.2652 33.128 88.95 28.4495 86.1895 26.9043C83.4289 25.3591 79.2683 27.5324 76.8965 31.7585C74.5247 35.9845 74.8398 40.663 77.6004 42.2082C80.3609 43.7534 84.5215 41.5801 86.8933 37.3541Z" fill="white"/>
<path d="M257.599 195.048C259.554 193.548 260.257 191.185 259.169 189.77C258.08 188.354 255.612 188.424 253.657 189.924C251.701 191.424 250.998 193.787 252.087 195.203C253.175 196.618 255.643 196.549 257.599 195.048Z" fill="white"/>
<path d="M249.307 201.93C251.674 199.569 252.416 196.478 250.965 195.028C249.513 193.577 246.418 194.316 244.051 196.678C241.685 199.04 240.943 202.131 242.394 203.581C243.845 205.031 246.94 204.292 249.307 201.93Z" fill="white"/>
<path d="M145.739 66.0583C148.962 65.8333 151.468 64.1423 151.338 62.2815C151.208 60.4207 148.49 59.0946 145.267 59.3196C142.045 59.5446 139.538 61.2356 139.669 63.0964C139.799 64.9572 142.517 66.2833 145.739 66.0583Z" fill="white"/>
<path d="M122.643 79.4623C123.503 75.7843 122.367 72.3748 120.105 71.847C117.842 71.3191 115.311 73.8728 114.45 77.5508C113.59 81.2288 114.726 84.6383 116.989 85.1661C119.251 85.6939 121.783 83.1402 122.643 79.4623Z" fill="white"/>
<path d="M140.017 82.1826C143.584 78.0842 144.627 73.1569 142.347 71.177C140.066 69.1972 135.326 70.9146 131.758 75.013C128.191 79.1114 127.147 84.0388 129.428 86.0186C131.709 87.9985 136.449 86.281 140.017 82.1826Z" fill="white"/>
<path d="M96.3771 269.753C98.5328 268.369 98.4508 264.404 96.1938 260.898C93.9369 257.392 90.3596 255.672 88.2038 257.056C86.0481 258.44 86.1301 262.404 88.387 265.91C90.644 269.416 94.2213 271.137 96.3771 269.753Z" fill="white"/>
<path d="M110.274 56.2128C112.624 54.9447 113.871 52.7018 113.06 51.2032C112.249 49.7045 109.687 49.5177 107.337 50.7858C104.988 52.0539 103.741 54.2967 104.552 55.7954C105.363 57.294 107.925 57.4809 110.274 56.2128Z" fill="white"/>
<path d="M92.9456 86.8852C95.2213 86.2541 96.2651 82.8615 95.2768 79.3076C94.2886 75.7537 91.6426 73.3844 89.3669 74.0155C87.0911 74.6466 86.0474 78.0393 87.0356 81.5931C88.0239 85.147 90.6699 87.5164 92.9456 86.8852Z" fill="white"/>
<path d="M164.884 297.981C165.712 296.43 164.409 294.122 161.974 292.826C159.539 291.53 156.894 291.736 156.066 293.287C155.238 294.838 156.541 297.146 158.976 298.442C161.411 299.738 164.056 299.532 164.884 297.981Z" fill="white"/>
<path d="M168.296 281.457C168.769 279.028 166.95 276.631 164.234 276.104C161.518 275.577 158.932 277.118 158.46 279.547C157.987 281.976 159.806 284.372 162.522 284.9C165.238 285.427 167.823 283.885 168.296 281.457Z" fill="white"/>
<path d="M160.142 289.925C161.556 289.014 161.682 286.696 160.424 284.745C159.165 282.795 156.998 281.952 155.584 282.862C154.17 283.773 154.043 286.091 155.302 288.042C156.56 289.992 158.727 290.835 160.142 289.925Z" fill="white"/>
<path d="M91.7304 109.909C93.2583 108.926 93.4936 106.574 92.256 104.656C91.0184 102.738 88.7765 101.981 87.2485 102.964C85.7206 103.947 85.4853 106.299 86.723 108.217C87.9606 110.135 90.2025 110.893 91.7304 109.909Z" fill="white"/>
<path d="M144.168 307.375C147.725 306.002 149.802 302.808 148.808 300.241C147.815 297.675 144.126 296.707 140.57 298.081C137.013 299.454 134.936 302.648 135.93 305.215C136.923 307.781 140.612 308.749 144.168 307.375Z" fill="white"/>
<path d="M134.488 306.847C135.185 305.071 133.939 302.922 131.705 302.046C129.47 301.171 127.093 301.901 126.395 303.677C125.697 305.453 126.943 307.602 129.178 308.478C131.413 309.353 133.79 308.623 134.488 306.847Z" fill="white"/>
<path d="M109.879 88.4248C110.13 86.6309 108.324 84.8952 105.843 84.5479C103.363 84.2007 101.148 85.3734 100.896 87.1673C100.645 88.9612 102.451 90.6969 104.932 91.0442C107.412 91.3914 109.627 90.2187 109.879 88.4248Z" fill="white"/>
<path d="M127.67 62.7115C128.979 60.3783 128.805 57.7948 127.28 56.9412C125.754 56.0876 123.457 57.287 122.147 59.6203C120.838 61.9535 121.012 64.537 122.537 65.3906C124.062 66.2442 126.36 65.0448 127.67 62.7115Z" fill="white"/>
<path d="M144.253 54.2431C144.404 51.7579 141.04 49.5328 136.741 49.2732C132.442 49.0136 128.835 50.8179 128.685 53.3031C128.534 55.7883 131.897 58.0134 136.196 58.273C140.496 58.5325 144.103 56.7283 144.253 54.2431Z" fill="white"/>
<path d="M154.284 44.8333C159.9 43.8403 163.993 40.4386 163.425 37.2356C162.857 34.0326 157.844 32.241 152.227 33.2341C146.611 34.2272 142.518 37.6288 143.086 40.8319C143.653 44.0349 148.667 45.8264 154.284 44.8333Z" fill="white"/>
<path d="M108.552 218.446C111.532 218.238 113.849 216.673 113.729 214.951C113.608 213.228 111.095 212.001 108.115 212.209C105.135 212.417 102.817 213.982 102.938 215.704C103.059 217.427 105.572 218.654 108.552 218.446Z" fill="white"/>
<path d="M104.613 233.173C108.55 228.65 109.704 223.215 107.191 221.032C104.677 218.85 99.4479 220.748 95.5108 225.271C91.5737 229.794 90.4197 235.23 92.9333 237.412C95.4469 239.594 100.676 237.696 104.613 233.173Z" fill="white"/>
<path d="M107.036 206.883C107.186 204.41 103.838 202.195 99.5583 201.937C95.2785 201.678 91.6877 203.474 91.5379 205.948C91.3881 208.421 94.7362 210.636 99.016 210.895C103.296 211.153 106.887 209.357 107.036 206.883Z" fill="white"/>
<path d="M117.118 197.497C122.75 196.502 126.854 193.088 126.284 189.874C125.714 186.66 120.687 184.861 115.055 185.857C109.423 186.853 105.319 190.266 105.889 193.48C106.459 196.694 111.487 198.493 117.118 197.497Z" fill="white"/>
<path d="M159.044 55.2624C161.787 54.2142 163.467 51.9463 162.797 50.1969C162.127 48.4475 159.36 47.8791 156.617 48.9273C153.874 49.9755 152.194 52.2434 152.864 53.9928C153.534 55.7422 156.301 56.3106 159.044 55.2624Z" fill="white"/>
<path d="M133.664 100.206C134.49 97.3751 133.749 94.6694 132.008 94.1622C130.266 93.655 128.185 95.5384 127.358 98.3688C126.531 101.199 127.273 103.905 129.014 104.412C130.755 104.919 132.837 103.036 133.664 100.206Z" fill="white"/>
<path d="M42.0667 43.2211C43.9253 42.0033 43.8221 38.5657 41.8363 35.5431C39.8504 32.5205 36.7339 31.0575 34.8753 32.2753C33.0167 33.4931 33.1199 36.9307 35.1057 39.9533C37.0916 42.9759 40.2082 44.4389 42.0667 43.2211Z" fill="white"/>
<path d="M33.4996 10.1015C34.6607 7.4537 34.2808 4.72945 32.6512 4.01671C31.0215 3.30397 28.7591 4.87266 27.598 7.52046C26.4369 10.1683 26.8167 12.8925 28.4464 13.6053C30.0761 14.318 32.3385 12.7493 33.4996 10.1015Z" fill="white"/>
<path d="M24.0112 43.7946C26.2715 41.1914 26.7519 37.9103 25.0841 36.466C23.4163 35.0218 20.2319 35.9612 17.9716 38.5644C15.7112 41.1676 15.2309 44.4486 16.8987 45.8929C18.5665 47.3372 21.7508 46.3977 24.0112 43.7946Z" fill="white"/>
<path d="M48.3052 19.5624C50.214 15.2094 49.3972 10.6466 46.4807 9.37107C43.5642 8.09557 39.6525 10.5904 37.7437 14.9434C35.8348 19.2963 36.6517 23.8591 39.5681 25.1346C42.4846 26.4101 46.3963 23.9154 48.3052 19.5624Z" fill="white"/>
<path d="M169.547 187.854C170.204 185.593 169.278 183.336 167.476 182.813C165.675 182.291 163.682 183.7 163.024 185.962C162.366 188.223 163.293 190.48 165.094 191.003C166.895 191.525 168.889 190.116 169.547 187.854Z" fill="white"/>
<path d="M173.718 200.923C175.619 196.588 174.804 192.043 171.899 190.773C168.993 189.502 165.096 191.986 163.195 196.321C161.294 200.657 162.108 205.201 165.014 206.472C167.92 207.743 171.817 205.259 173.718 200.923Z" fill="white"/>
<path d="M19.7741 25.5408C21.3686 24.7789 21.8063 22.3772 20.752 20.1765C19.6976 17.9758 17.5503 16.8094 15.9558 17.5713C14.3614 18.3332 13.9236 20.7348 14.978 22.9355C16.0324 25.1362 18.1797 26.3026 19.7741 25.5408Z" fill="white"/>
<path d="M122.889 107.013C125.289 106.096 126.76 104.112 126.174 102.582C125.587 101.053 123.166 100.556 120.766 101.473C118.365 102.391 116.894 104.375 117.481 105.904C118.067 107.434 120.488 107.931 122.889 107.013Z" fill="white"/>
<path d="M109.679 35.9491C111.366 33.6908 111.537 30.969 110.062 29.8698C108.586 28.7706 106.023 29.7103 104.336 31.9686C102.649 34.2268 102.478 36.9486 103.953 38.0478C105.429 39.147 107.993 38.2074 109.679 35.9491Z" fill="white"/>
<path d="M48.2959 187.326C51.6341 187.093 54.2308 185.341 54.0958 183.414C53.9607 181.487 51.145 180.114 47.8067 180.348C44.4685 180.581 41.8718 182.332 42.0068 184.259C42.1419 186.186 44.9576 187.559 48.2959 187.326Z" fill="white"/>
<path d="M40.2068 214.312C42.9109 211.205 43.7028 207.472 41.9756 205.972C40.2484 204.473 36.6562 205.776 33.9521 208.882C31.2481 211.989 30.4561 215.722 32.1833 217.222C33.9105 218.721 37.5027 217.418 40.2068 214.312Z" fill="white"/>
<path d="M33.3785 180.886C35.6362 179.667 36.8343 177.511 36.0544 176.07C35.2746 174.629 32.8121 174.449 30.5544 175.668C28.2966 176.886 27.0985 179.042 27.8784 180.483C28.6583 181.924 31.1207 182.105 33.3785 180.886Z" fill="white"/>
<path d="M32.9099 195.877C34.3081 193.386 34.1234 190.629 32.4974 189.719C30.8713 188.809 28.4197 190.09 27.0215 192.582C25.6234 195.073 25.8081 197.83 27.4341 198.74C29.0601 199.651 31.5117 198.369 32.9099 195.877Z" fill="white"/>
<path d="M72.502 124.516C74.2355 123.696 74.5563 120.744 73.2184 117.923C71.8805 115.102 69.3906 113.479 67.6571 114.299C65.9236 115.119 65.6029 118.07 66.9408 120.892C68.2787 123.713 70.7685 125.336 72.502 124.516Z" fill="white"/>
<path d="M38.2501 170.854C38.3544 169.13 36.0219 167.587 33.0403 167.407C30.0587 167.227 27.557 168.478 27.4527 170.202C27.3483 171.925 29.6808 173.468 32.6624 173.648C35.6441 173.828 38.1457 172.577 38.2501 170.854Z" fill="white"/>
<path d="M68.3279 170.423C72.0022 167.44 73.5421 163.255 71.7674 161.075C69.9927 158.894 65.5753 159.545 61.901 162.528C58.2267 165.512 56.6868 169.697 58.4616 171.877C60.2363 174.057 64.6536 173.406 68.3279 170.423Z" fill="white"/>
<path d="M77.1916 133.181C78.0446 130.629 75.5637 127.503 71.6505 126.199C67.7372 124.894 63.8734 125.905 63.0204 128.457C62.1675 131.009 64.6483 134.135 68.5616 135.439C72.4749 136.744 76.3387 135.733 77.1916 133.181Z" fill="white"/>
<path d="M63.2187 34.6729C64.8894 33.8827 65.1994 31.0397 63.911 28.3227C62.6227 25.6058 60.2239 24.0438 58.5532 24.8339C56.8824 25.624 56.5725 28.4671 57.8608 31.184C59.1491 33.901 61.5479 35.463 63.2187 34.6729Z" fill="white"/>
<path d="M67.6973 43.427C68.5148 40.9813 66.1358 37.9846 62.3836 36.7337C58.6314 35.4828 54.9269 36.4514 54.1093 38.8972C53.2918 41.3429 55.6708 44.3396 59.423 45.5905C63.1752 46.8413 66.8797 45.8727 67.6973 43.427Z" fill="white"/>
<path d="M38.7167 147.831C41.4031 145.454 42.5103 142.32 41.1898 140.832C39.8692 139.343 36.6209 140.063 33.9345 142.44C31.2481 144.817 30.1408 147.951 31.4614 149.439C32.7819 150.928 36.0303 150.207 38.7167 147.831Z" fill="white"/>
<path d="M53.4644 137.319C56.5896 135.841 57.4668 131.15 55.4236 126.841C53.3804 122.533 49.1906 120.238 46.0654 121.716C42.9402 123.194 42.0631 127.885 44.1063 132.194C46.1495 136.502 50.3392 138.797 53.4644 137.319Z" fill="white"/>
<path d="M54.6372 178.844C57.4883 177.754 59.2349 175.397 58.5383 173.58C57.8418 171.762 54.9659 171.171 52.1149 172.261C49.2638 173.351 47.5172 175.707 48.2137 177.525C48.9102 179.343 51.7861 179.933 54.6372 178.844Z" fill="white"/>
<path d="M79.9153 151.537C82.1124 151.226 83.4997 148.196 83.0138 144.77C82.5278 141.343 80.3528 138.817 78.1556 139.128C75.9585 139.438 74.5712 142.468 75.0572 145.895C75.5431 149.322 77.7181 151.848 79.9153 151.537Z" fill="white"/>
<path d="M92.0437 131.742C95.2805 130.211 96.3419 125.675 94.4143 121.61C92.4868 117.545 88.3002 115.491 85.0634 117.021C81.8266 118.552 80.7653 123.088 82.6928 127.153C84.6204 131.218 88.8069 133.273 92.0437 131.742Z" fill="white"/>
<path d="M150.529 322.36C152.238 321.552 152.555 318.643 151.237 315.863C149.919 313.084 147.465 311.486 145.756 312.294C144.047 313.102 143.73 316.011 145.048 318.79C146.366 321.57 148.82 323.168 150.529 322.36Z" fill="white"/>
<path d="M155.211 331.077C156.056 328.547 153.596 325.447 149.716 324.154C145.836 322.86 142.005 323.862 141.159 326.392C140.313 328.922 142.773 332.021 146.654 333.315C150.534 334.609 154.365 333.606 155.211 331.077Z" fill="white"/>
<path d="M185.252 317.749C188.447 316.238 189.496 311.763 187.595 307.754C185.694 303.745 181.562 301.719 178.367 303.23C175.173 304.741 174.124 309.216 176.025 313.226C177.926 317.235 182.057 319.26 185.252 317.749Z" fill="white"/>
<path d="M46.9783 155.828C49.8442 151.991 50.1361 147.367 47.6305 145.501C45.1248 143.634 40.7702 145.232 37.9043 149.069C35.0385 152.905 34.7465 157.529 37.2522 159.396C39.7579 161.262 44.1124 159.665 46.9783 155.828Z" fill="white"/>
<path d="M49.1767 108.267C49.4093 106.556 47.3378 104.863 44.55 104.485C41.7621 104.107 39.3136 105.187 39.0811 106.898C38.8485 108.609 40.92 110.303 43.7078 110.681C46.4957 111.059 48.9442 109.978 49.1767 108.267Z" fill="white"/>
<path d="M22.2206 205.115C25.2768 202.411 26.5344 198.843 25.0295 197.147C23.5247 195.451 19.8273 196.268 16.7711 198.972C13.7149 201.676 12.4573 205.243 13.9622 206.939C15.467 208.636 19.1644 207.819 22.2206 205.115Z" fill="white"/>
<path d="M32.205 130.628C34.3945 130.319 35.776 127.293 35.2906 123.87C34.8052 120.447 32.6368 117.923 30.4473 118.232C28.2578 118.542 26.8763 121.568 27.3617 124.991C27.8471 128.414 30.0155 130.938 32.205 130.628Z" fill="white"/>
<path d="M36.7155 99.7103C38.3967 98.9152 38.9481 96.5595 37.9472 94.4486C36.9463 92.3378 34.772 91.2711 33.0908 92.0662C31.4096 92.8612 30.8581 95.217 31.8591 97.3278C32.86 99.4387 35.0343 100.505 36.7155 99.7103Z" fill="white"/>
<path d="M106.508 174.579C109.927 172.962 111.049 168.176 109.016 163.888C106.983 159.6 102.564 157.435 99.1453 159.051C95.7272 160.668 94.6045 165.454 96.6377 169.742C98.671 174.03 103.09 176.196 106.508 174.579Z" fill="white"/>
<path d="M155.226 248.52C159.557 248.218 162.926 245.944 162.751 243.441C162.576 240.938 158.923 239.154 154.591 239.457C150.26 239.759 146.891 242.033 147.067 244.536C147.242 247.039 150.895 248.823 155.226 248.52Z" fill="white"/>
<path d="M145.883 243.509C147.145 241.26 146.979 238.771 145.511 237.949C144.043 237.128 141.83 238.285 140.568 240.534C139.305 242.783 139.472 245.273 140.94 246.094C142.408 246.916 144.621 245.758 145.883 243.509Z" fill="white"/>
<path d="M320.921 201.181C323.847 200.977 326.123 199.44 326.005 197.748C325.886 196.057 323.418 194.851 320.492 195.055C317.567 195.26 315.291 196.797 315.409 198.488C315.528 200.18 317.996 201.386 320.921 201.181Z" fill="white"/>
<path d="M138.217 162.654C139.978 162.158 141.157 160.88 140.852 159.801C140.546 158.721 138.872 158.249 137.111 158.746C135.351 159.243 134.171 160.52 134.477 161.6C134.782 162.679 136.457 163.151 138.217 162.654Z" fill="white"/>
<path d="M133.941 159.281C133.959 157.624 131.649 156.255 128.782 156.224C125.914 156.193 123.576 157.511 123.558 159.169C123.54 160.826 125.849 162.194 128.717 162.225C131.584 162.256 133.923 160.938 133.941 159.281Z" fill="white"/>
<path d="M188.201 66.094C190.022 65.224 190.526 62.4896 189.327 59.9864C188.127 57.4832 185.679 56.1593 183.858 57.0293C182.038 57.8993 181.534 60.6338 182.733 63.1369C183.932 65.6401 186.381 66.964 188.201 66.094Z" fill="white"/>
<path d="M193.919 72.4936C194.306 69.734 191.525 67.0637 187.707 66.5291C183.889 65.9946 180.48 67.7984 180.092 70.5579C179.705 73.3174 182.486 75.9878 186.304 76.5223C190.122 77.0568 193.532 75.2531 193.919 72.4936Z" fill="white"/>
<path d="M151.23 227.331C151.963 224.419 151.189 221.715 149.501 221.291C147.813 220.867 145.85 222.884 145.117 225.795C144.384 228.707 145.157 231.411 146.845 231.835C148.533 232.259 150.496 230.243 151.23 227.331Z" fill="white"/>
<path d="M167.482 216.599C168.958 214.376 168.843 211.706 167.225 210.635C165.607 209.563 163.099 210.497 161.623 212.719C160.148 214.942 160.263 217.612 161.88 218.684C163.498 219.755 166.006 218.822 167.482 216.599Z" fill="white"/>
<path d="M159.217 227.08C161.809 225.987 162.684 222.202 161.171 218.627C159.659 215.052 156.332 213.04 153.741 214.133C151.149 215.226 150.274 219.011 151.786 222.586C153.298 226.161 156.625 228.173 159.217 227.08Z" fill="white"/>
<path d="M202.996 168.777C204.887 167.874 205.412 165.039 204.169 162.446C202.927 159.852 200.387 158.482 198.497 159.385C196.606 160.288 196.081 163.123 197.324 165.717C198.566 168.31 201.106 169.68 202.996 168.777Z" fill="white"/>
<path d="M204.636 156.504C206.205 154.403 206.364 151.871 204.99 150.848C203.617 149.825 201.232 150.698 199.662 152.799C198.093 154.9 197.935 157.432 199.308 158.455C200.682 159.478 203.067 158.605 204.636 156.504Z" fill="white"/>
<path d="M19.2283 69.5998C21.0613 65.4198 20.0883 60.9559 17.0552 59.6294C14.0221 58.3028 10.0773 60.616 8.24428 64.796C6.41129 68.976 7.3842 73.44 10.4173 74.7665C13.4505 76.093 17.3953 73.7798 19.2283 69.5998Z" fill="white"/>
<path d="M9.29279 85.0283C11.5034 83.972 12.1112 80.6439 10.6504 77.5949C9.18957 74.546 6.21328 72.9306 4.00267 73.9869C1.79206 75.0432 1.18423 78.3712 2.64506 81.4202C4.10589 84.4692 7.08218 86.0846 9.29279 85.0283Z" fill="white"/>
<path d="M123.675 123.698C125.253 121.585 125.414 119.039 124.034 118.011C122.655 116.984 120.257 117.863 118.678 119.977C117.1 122.09 116.939 124.636 118.319 125.664C119.698 126.691 122.096 125.811 123.675 123.698Z" fill="white"/>
<path d="M74.0181 202.129C76.1869 201.092 76.7879 197.837 75.3604 194.857C73.9329 191.878 71.0174 190.303 68.8486 191.339C66.6798 192.375 66.0788 195.631 67.5063 198.61C68.9338 201.59 71.8492 203.165 74.0181 202.129Z" fill="white"/>
<path d="M80.6223 209.111C81.0707 205.917 77.8496 202.825 73.4276 202.206C69.0057 201.587 65.0575 203.675 64.6091 206.869C64.1606 210.064 67.3818 213.156 71.8037 213.775C76.2256 214.394 80.1738 212.306 80.6223 209.111Z" fill="white"/>
<path d="M76.1486 187.04C78.0592 184.482 78.2538 181.399 76.5834 180.155C74.9129 178.911 72.0099 179.975 70.0993 182.533C68.1887 185.091 67.9941 188.174 69.6645 189.418C71.335 190.662 74.238 189.598 76.1486 187.04Z" fill="white"/>
<path d="M224.008 304.216C224.017 302.547 221.818 301.183 219.097 301.17C216.376 301.157 214.164 302.499 214.156 304.168C214.148 305.837 216.347 307.2 219.067 307.213C221.788 307.227 224 305.885 224.008 304.216Z" fill="white"/>
<path d="M243.49 317.2C244.943 316.264 244.886 313.592 243.362 311.23C241.838 308.868 239.424 307.712 237.971 308.647C236.517 309.583 236.575 312.255 238.099 314.617C239.623 316.979 242.036 318.135 243.49 317.2Z" fill="white"/>
<path d="M256.269 274.043C259.122 273.844 261.341 272.346 261.225 270.696C261.11 269.047 258.704 267.871 255.851 268.07C252.998 268.27 250.779 269.768 250.895 271.418C251.01 273.067 253.416 274.243 256.269 274.043Z" fill="white"/>
<path d="M264.524 255.387C268.816 254.036 271.669 250.957 270.896 248.509C270.124 246.061 266.018 245.171 261.726 246.521C257.434 247.872 254.581 250.951 255.354 253.4C256.126 255.848 260.232 256.738 264.524 255.387Z" fill="white"/>
<path d="M237.731 268.598C238.691 264.492 237.633 260.735 235.367 260.206C233.101 259.678 230.485 262.578 229.525 266.683C228.564 270.789 229.622 274.546 231.888 275.075C234.155 275.604 236.77 272.704 237.731 268.598Z" fill="white"/>
<path d="M261.572 304.022C262.892 303.172 263.01 301.007 261.835 299.187C260.66 297.366 258.637 296.579 257.317 297.429C255.997 298.278 255.879 300.443 257.054 302.264C258.229 304.085 260.252 304.872 261.572 304.022Z" fill="white"/>
<path d="M252.968 367.943C254.36 367.048 254.485 364.767 253.247 362.849C252.009 360.931 249.878 360.103 248.486 360.998C247.094 361.894 246.97 364.175 248.207 366.093C249.445 368.01 251.576 368.839 252.968 367.943Z" fill="white"/>
<path d="M249.075 258.219C251.503 256.909 252.791 254.591 251.952 253.041C251.114 251.492 248.466 251.298 246.039 252.608C243.611 253.919 242.323 256.237 243.162 257.786C244 259.336 246.648 259.53 249.075 258.219Z" fill="white"/>
<path d="M141.528 290.489C145.592 289.21 148.293 286.293 147.561 283.973C146.829 281.654 142.942 280.81 138.878 282.089C134.814 283.368 132.113 286.285 132.845 288.604C133.577 290.924 137.465 291.767 141.528 290.489Z" fill="white"/>
<path d="M125.379 293.999C128.174 292.491 129.656 289.823 128.691 288.039C127.726 286.256 124.678 286.033 121.884 287.541C119.09 289.049 117.607 291.717 118.572 293.501C119.538 295.284 122.585 295.507 125.379 293.999Z" fill="white"/>
<path d="M224.387 290.202C227.28 289.4 228.607 285.086 227.35 280.566C226.093 276.047 222.729 273.034 219.836 273.836C216.943 274.638 215.617 278.952 216.874 283.472C218.13 287.991 221.494 291.005 224.387 290.202Z" fill="white"/>
<path d="M267.926 266.111C269.262 263.73 269.084 261.095 267.529 260.225C265.974 259.354 263.63 260.578 262.294 262.958C260.958 265.338 261.136 267.974 262.691 268.844C264.247 269.715 266.59 268.491 267.926 266.111Z" fill="white"/>
<path d="M258.131 343.369C259.789 342.302 260.045 339.751 258.703 337.672C257.361 335.592 254.929 334.771 253.271 335.837C251.613 336.904 251.358 339.455 252.7 341.535C254.042 343.615 256.474 344.436 258.131 343.369Z" fill="white"/>
<path d="M263.589 234.44C263.691 232.751 261.403 231.239 258.48 231.062C255.556 230.886 253.103 232.112 253 233.8C252.898 235.489 255.185 237.002 258.109 237.178C261.033 237.355 263.486 236.129 263.589 234.44Z" fill="white"/>
<path d="M293.884 256.047C297.43 254.692 299.603 251.761 298.737 249.5C297.871 247.24 294.294 246.506 290.747 247.861C287.2 249.217 285.027 252.148 285.893 254.409C286.76 256.669 290.337 257.403 293.884 256.047Z" fill="white"/>
<path d="M175.47 379.679C179.237 378.897 181.877 376.275 181.366 373.822C180.856 371.369 177.388 370.015 173.621 370.797C169.854 371.578 167.214 374.201 167.724 376.653C168.235 379.106 171.702 380.461 175.47 379.679Z" fill="white"/>
<path d="M166.862 386.171C170.599 384.726 172.878 381.623 171.955 379.24C171.031 376.856 167.253 376.095 163.517 377.539C159.78 378.983 157.5 382.087 158.424 384.47C159.348 386.854 163.126 387.615 166.862 386.171Z" fill="white"/>
<path d="M221.483 356.931C225.107 356.179 227.646 353.658 227.156 351.299C226.665 348.941 223.329 347.639 219.706 348.391C216.082 349.143 213.543 351.664 214.033 354.023C214.524 356.381 217.86 357.683 221.483 356.931Z" fill="white"/>
<path d="M212.454 365.307C215.994 363.954 218.162 361.028 217.297 358.771C216.432 356.514 212.862 355.781 209.323 357.134C205.783 358.487 203.615 361.413 204.48 363.67C205.344 365.927 208.915 366.66 212.454 365.307Z" fill="white"/>
<path d="M304.767 231.565C307.167 228.352 307.41 224.479 305.309 222.915C303.209 221.35 299.56 222.686 297.161 225.899C294.761 229.112 294.518 232.985 296.619 234.55C298.719 236.114 302.367 234.778 304.767 231.565Z" fill="white"/>
<path d="M189.837 399.387C192.809 399.18 195.12 397.618 195 395.9C194.88 394.181 192.373 392.956 189.401 393.164C186.429 393.371 184.117 394.933 184.237 396.651C184.358 398.37 186.865 399.595 189.837 399.387Z" fill="white"/>
<path d="M178.138 403.974C181.149 403.764 183.491 402.181 183.369 400.44C183.247 398.698 180.707 397.457 177.697 397.667C174.686 397.877 172.344 399.459 172.466 401.201C172.588 402.943 175.128 404.184 178.138 403.974Z" fill="white"/>
<path d="M204.908 406.27C207.074 405.101 208.224 403.034 207.478 401.654C206.731 400.274 204.369 400.103 202.203 401.272C200.037 402.442 198.887 404.508 199.634 405.888C200.38 407.268 202.742 407.439 204.908 406.27Z" fill="white"/>
<path d="M257.72 353.558C259.182 352.867 259.452 350.378 258.324 347.999C257.196 345.62 255.096 344.252 253.635 344.943C252.173 345.634 251.903 348.123 253.031 350.502C254.159 352.881 256.259 354.249 257.72 353.558Z" fill="white"/>
<path d="M215.805 383.189C215.909 381.474 213.588 379.937 210.622 379.758C207.656 379.579 205.167 380.825 205.063 382.541C204.959 384.257 207.28 385.793 210.246 385.972C213.212 386.151 215.701 384.905 215.805 383.189Z" fill="white"/>
<path d="M264.421 392.523C267.38 390.121 268.62 386.751 267.191 384.996C265.762 383.24 262.205 383.764 259.246 386.166C256.287 388.568 255.047 391.939 256.477 393.694C257.906 395.45 261.462 394.925 264.421 392.523Z" fill="white"/>
<path d="M233.205 374.26C238.24 369.805 240.313 363.93 237.836 361.138C235.358 358.345 229.269 359.693 224.234 364.147C219.199 368.602 217.126 374.477 219.603 377.27C222.08 380.062 228.17 378.715 233.205 374.26Z" fill="white"/>
<path d="M239.762 347.424C241.331 346.682 241.772 344.326 240.746 342.163C239.721 340 237.617 338.848 236.047 339.591C234.478 340.333 234.037 342.688 235.062 344.851C236.088 347.014 238.192 348.166 239.762 347.424Z" fill="white"/>
<path d="M269.42 377.773C271.64 377.459 273.041 374.392 272.549 370.924C272.057 367.455 269.859 364.897 267.638 365.211C265.418 365.525 264.017 368.592 264.509 372.06C265.001 375.529 267.2 378.087 269.42 377.773Z" fill="white"/>
<path d="M268.162 363.04C270.694 361.843 271.525 358.294 270.017 355.114C268.509 351.933 265.233 350.326 262.701 351.524C260.169 352.721 259.339 356.27 260.847 359.45C262.355 362.63 265.63 364.238 268.162 363.04Z" fill="white"/>
<path d="M143.765 208.114C145.92 207.809 147.28 204.834 146.803 201.468C146.325 198.102 144.191 195.621 142.036 195.926C139.881 196.231 138.521 199.206 138.998 202.572C139.476 205.938 141.61 208.419 143.765 208.114Z" fill="white"/>
<path d="M142.575 193.656C145.156 192.436 146.003 188.82 144.467 185.581C142.931 182.341 139.593 180.705 137.012 181.925C134.431 183.146 133.584 186.762 135.12 190.001C136.656 193.241 139.994 194.877 142.575 193.656Z" fill="white"/>
<path d="M291.157 207.795C293.217 207.503 294.517 204.662 294.062 201.449C293.606 198.236 291.567 195.868 289.508 196.159C287.448 196.45 286.148 199.291 286.603 202.504C287.059 205.717 289.098 208.086 291.157 207.795Z" fill="white"/>
<path d="M289.944 195.18C292.455 193.992 293.278 190.471 291.782 187.315C290.285 184.159 287.036 182.564 284.525 183.751C282.014 184.939 281.191 188.46 282.687 191.616C284.184 194.772 287.433 196.367 289.944 195.18Z" fill="white"/>
<path d="M234.849 389.007C236.494 386.804 236.662 384.15 235.223 383.079C233.785 382.007 231.285 382.924 229.64 385.127C227.994 387.329 227.827 389.984 229.265 391.055C230.704 392.127 233.204 391.21 234.849 389.007Z" fill="white"/>
<path d="M236.617 335.433C236.832 333.792 234.836 332.177 232.158 331.826C229.479 331.475 227.133 332.52 226.918 334.161C226.702 335.801 228.698 337.416 231.377 337.767C234.055 338.119 236.401 337.073 236.617 335.433Z" fill="white"/>
<path d="M211.925 323.909C213.544 323.144 213.844 320.389 212.595 317.755C211.346 315.122 209.022 313.608 207.404 314.373C205.785 315.138 205.485 317.894 206.734 320.527C207.983 323.16 210.307 324.675 211.925 323.909Z" fill="white"/>
<path d="M203.263 377.173C204.934 375.817 205.636 373.915 204.83 372.925C204.024 371.935 202.016 372.232 200.345 373.589C198.674 374.945 197.973 376.848 198.779 377.838C199.585 378.827 201.592 378.53 203.263 377.173Z" fill="white"/>
<path d="M193.727 385.155C197.198 383.829 199.325 380.959 198.476 378.745C197.628 376.531 194.127 375.812 190.656 377.138C187.185 378.465 185.058 381.335 185.907 383.549C186.755 385.762 190.256 386.482 193.727 385.155Z" fill="white"/>
<path d="M221.365 348.778C223.318 348.502 224.55 345.807 224.118 342.758C223.685 339.709 221.752 337.461 219.799 337.737C217.847 338.013 216.614 340.709 217.047 343.758C217.479 346.807 219.412 349.055 221.365 348.778Z" fill="white"/>
<path d="M224.408 315.005C226.09 314.21 226.641 311.854 225.64 309.743C224.639 307.632 222.465 306.566 220.784 307.361C219.102 308.156 218.551 310.511 219.552 312.622C220.553 314.733 222.727 315.8 224.408 315.005Z" fill="white"/>
</svg>
