<svg xmlns="http://www.w3.org/2000/svg" width="437" height="323" fill="none">
  <path fill="#2A5EBC" d="M60.3904 134.374c.7714 1.813 3.4259 2.418 5.9291 1.353 2.5032-1.065 3.9072-3.398 3.1358-5.211-.7714-1.812-3.4259-2.418-5.9291-1.352-2.5033 1.065-3.9072 3.398-3.1358 5.21Zm54.2216-74.1719c.381 1.7071 2.233 2.7465 4.137 2.3216 1.903-.425 3.137-2.1534 2.756-3.8605-.381-1.7072-2.233-2.7466-4.136-2.3216-1.904.4249-3.138 2.1533-2.757 3.8605ZM2.15368 139.872c2.03824.639 4.62481-1.821 5.77725-5.495 1.15243-3.674.43434-7.171-1.60389-7.81-2.03824-.639-4.62479 1.821-5.777226 5.495-1.152438 3.674-.434367 7.17 1.603866 7.81ZM422.177 91.1076c2.47 1.2133 5.076.9664 5.822-.5514.746-1.5179-.652-3.7319-3.121-4.9452-2.47-1.2132-5.076-.9664-5.822.5515-.746 1.5178.652 3.7318 3.121 4.9451ZM401.83 122.831c-.646 3.678.486 6.951 2.529 7.31s4.223-2.332 4.869-6.01c.646-3.678-.486-6.95-2.529-7.309s-4.223 2.331-4.869 6.009Zm-3.101 16.81c2.762 2.616 6.358 3.304 8.032 1.537 1.674-1.767.792-5.321-1.97-7.936-2.762-2.616-6.358-3.304-8.032-1.537-1.674 1.767-.792 5.32 1.97 7.936Zm32.276-74.6507c2.14 1.0512 4.552.5236 5.388-1.1783.836-1.7019-.22-3.9337-2.36-4.9849-2.14-1.0511-4.552-.5236-5.388 1.1783-.836 1.7019.22 3.9337 2.36 4.9849Zm-8.783 33.7219c.704 1.6558 3.129 2.2088 5.415 1.2363 2.286-.9729 3.568-3.1039 2.863-4.7596-.705-1.6558-3.129-2.2093-5.415-1.2364-2.286.973-3.568 3.1039-2.863 4.7597ZM339.29 82.1565c1.366 1.068 3.827.2014 5.499-1.9355 1.671-2.137 1.918-4.7351.553-5.8031-1.366-1.0679-3.828-.2014-5.499 1.9356-1.671 2.1369-1.919 4.735-.553 5.803ZM46.566 105.071c3.2614 2.168 6.9856 2.301 8.3181.296 1.3326-2.004-.231-5.3871-3.4924-7.5552s-6.9855-2.3007-8.3181-.2962c-1.3326 2.0045.231 5.3874 3.4924 7.5554Zm155.929 157.443c2.027.636 4.598-1.806 5.742-5.454 1.144-3.648.429-7.121-1.598-7.757-2.028-.636-4.599 1.806-5.743 5.455-1.144 3.648-.429 7.121 1.599 7.756ZM55.3936 83.1067c2.0722 1.3776 4.5613 1.2769 5.5597-.2249.9984-1.5017.1279-3.8359-1.9444-5.2135-2.0722-1.3776-4.5614-1.2769-5.5597.2249-.9984 1.5018-.1279 3.836 1.9444 5.2135Zm-.2668 47.9203c1.9626 1.305 4.396 1.095 5.4351-.468 1.039-1.563.2903-3.887-1.6723-5.192-1.9626-1.305-4.396-1.095-5.435.468-1.0391 1.563-.2904 3.887 1.6722 5.192ZM190.415 58.0096c.861 1.4465 3.471 1.4813 5.828.0779 2.358-1.4035 3.571-3.7138 2.71-5.1603-.861-1.4465-3.47-1.4813-5.828-.0779-2.358 1.4035-3.571 3.7138-2.71 5.1603Zm-59.302 12.0646c2.713 1.3328 5.576 1.0617 6.395-.6055.819-1.6672-.716-4.0991-3.429-5.4318-2.712-1.3328-5.575-1.0617-6.394.6055-.819 1.6672.716 4.0991 3.428 5.4318Zm-15.611 79.8428c1.369 1.952 5.211 1.619 8.583-.745 3.371-2.364 4.995-5.863 3.626-7.814-1.368-1.952-5.211-1.618-8.582.745-3.371 2.364-4.995 5.863-3.627 7.814Zm103.38 27.569c2.064 2.944 7.859 2.439 12.945-1.126 5.086-3.566 7.535-8.843 5.472-11.786-2.064-2.944-7.86-2.44-12.946 1.126-5.085 3.565-7.535 8.842-5.471 11.786Zm-60.294-38.147c1.285.283 2.713-1.244 3.189-3.41.476-2.166-.18-4.15-1.465-4.433-1.285-.282-2.713 1.245-3.189 3.41-.476 2.166.18 4.151 1.465 4.433Zm-41.197-51.9072c2.22 1.0904 4.659.6707 5.449-.9374.79-1.6082-.368-3.7958-2.588-4.8862-2.219-1.0904-4.659-.6707-5.449.9374-.79 1.6081.369 3.7957 2.588 4.8862Zm139.466 91.7612c2.108 1.036 4.424.639 5.173-.885.749-1.525-.352-3.601-2.461-4.637-2.108-1.036-4.424-.639-5.173.886-.75 1.524.352 3.6 2.461 4.636Zm-99.663-49.077c2.985 1.763 7.642-.594 10.401-5.266 2.759-4.672 2.575-9.888-.41-11.651-2.986-1.764-7.643.594-10.402 5.266-2.759 4.671-2.575 9.888.411 11.651Zm-1.53-43.276c2.363 2.2381 5.439 2.827 6.871 1.3154 1.432-1.5116.677-4.5512-1.686-6.7893-2.363-2.238-5.439-2.8269-6.871-1.3153-1.431 1.5116-.676 4.5512 1.686 6.7892Zm-22.408-1.0865c.81 1.9014 3.599 2.535 6.23 1.415 2.632-1.1199 4.109-3.5692 3.299-5.4707-.809-1.9014-3.598-2.535-6.229-1.415-2.632 1.1199-4.109 3.5692-3.3 5.4707Zm-32.036-1.1836c1.358 2.2812 5.47 2.338 9.184.1269 3.715-2.2111 5.625-5.8527 4.267-8.1339-1.358-2.2811-5.47-2.3379-9.184-.1268-3.715 2.2111-5.6248 5.8527-4.267 8.1338ZM41.9369 153.152c1.6284 2.323 6.2004 1.925 10.212-.887 4.0115-2.813 5.9433-6.975 4.3149-9.298-1.6284-2.323-6.2004-1.926-10.212.887-4.0115 2.812-5.9434 6.975-4.3149 9.298Zm61.5751-88.13c.879 2.0653 3.895 2.7591 6.736 1.5498 2.842-1.2094 4.433-3.8639 3.554-5.9292-.879-2.0652-3.895-2.7591-6.737-1.5497-2.841 1.2093-4.432 3.8639-3.553 5.9291Zm-40.0483 50.456c-.6643 3.781.4996 7.145 2.5997 7.514 2.1002.369 4.3412-2.397 5.0055-6.178.6643-3.781-.4996-7.145-2.5997-7.514-2.1001-.369-4.3412 2.397-5.0055 6.178Zm5.858-18.6209c2.0528 1.0085 4.3089.621 5.0393-.8656.7303-1.4865-.3417-3.5092-2.3944-4.5177-2.0527-1.0085-4.3088-.621-5.0392.8656-.7303 1.4865.3416 3.5092 2.3943 4.5177Z"/>
  <path fill="#2A5EBC" d="M101.798 93.4688c2.663 2.5275 6.132 3.1965 7.747 1.4942 1.616-1.7023.765-5.1312-1.898-7.6587-2.664-2.5274-6.133-3.1964-7.7482-1.4942-1.6151 1.7023-.765 5.1312 1.8992 7.6587Zm-23.3977 5.5737c.7763 1.8495 3.4796 2.4775 6.038 1.4045 2.5584-1.0743 4.0031-3.444 3.2269-5.2933-.7763-1.8494-3.4795-2.478-6.038-1.4041-2.5584 1.0739-4.0031 3.4436-3.2269 5.2929Zm-6.624 20.6025c.0904 2.916 1.7064 5.233 3.6094 5.174 1.9031-.059 3.3725-2.471 3.2822-5.387-.0904-2.917-1.7064-5.233-3.6094-5.174-1.9031.059-3.3726 2.471-3.2822 5.387Zm77.4977 25.917c.846 1.619 3.801 1.746 6.599.284 2.799-1.462 4.382-3.96 3.537-5.579-.846-1.619-3.801-1.746-6.6-.284-2.798 1.463-4.382 3.96-3.536 5.579Zm-26.637 19.361c1.256.983 3.522.182 5.062-1.787 1.54-1.969 1.771-4.362.515-5.344-1.256-.982-3.523-.182-5.063 1.787-1.54 1.97-1.77 4.362-.514 5.344Zm-19.764 4.861c-.269 2.703.943 5.037 2.707 5.213 1.763.175 3.411-1.874 3.68-4.577.269-2.703-.942-5.037-2.706-5.213-1.764-.175-3.411 1.874-3.681 4.577Zm26.071-115.6829c.669 1.5532 3.26 1.9298 5.787.8413 2.527-1.0885 4.033-3.23 3.364-4.7832-.669-1.5531-3.26-1.9298-5.787-.8413-2.527 1.0886-4.033 3.2301-3.364 4.7832Zm21.454-5.0788c4.879 3.2436 10.45 3.4434 12.442.4463 1.993-2.9971-.347-8.0562-5.227-11.2998-4.879-3.2436-10.449-3.4434-12.442-.4463-1.992 2.9971.348 8.0563 5.227 11.2998Z"/>
  <path fill="#2A5EBC" d="M140.33 54.02c1.888 1.2554 4.229 1.0557 5.227-.4461.998-1.5017.277-3.7369-1.612-4.9924-1.888-1.2554-4.229-1.0557-5.227.446-.998 1.5018-.277 3.737 1.612 4.9925Zm138.5 134.12c2.018 1.341 4.518 1.127 5.585-.477 1.067-1.605.297-3.994-1.721-5.335-2.017-1.341-4.518-1.127-5.585.478-1.066 1.605-.296 3.993 1.721 5.334Zm-93.095-24.375c1.271 2.134 5.118 2.188 8.593.12 3.475-2.069 5.261-5.476 3.991-7.611-1.271-2.135-5.118-2.189-8.593-.12-3.475 2.068-5.262 5.476-3.991 7.611Zm51.875 26.523c2.4 1.179 4.932.941 5.656-.531.723-1.473-.636-3.623-3.036-4.802-2.4-1.179-4.932-.941-5.655.532-.724 1.472.635 3.622 3.035 4.801Zm-12.546 62.784c1.069 1.524 4.072 1.262 6.708-.587 2.637-1.848 3.908-4.582 2.839-6.106s-4.072-1.261-6.708.587c-2.637 1.848-3.908 4.582-2.839 6.106Zm47.758-27.657c1.387.305 2.928-1.341 3.441-3.677.514-2.336-.195-4.476-1.582-4.781-1.387-.305-2.927 1.341-3.441 3.677-.513 2.336.195 4.477 1.582 4.781Zm-52.806.551c-1.084 6.17.815 11.661 4.241 12.263 3.427.602 7.083-3.912 8.167-10.083 1.085-6.171-.814-11.661-4.241-12.263-3.426-.602-7.083 3.912-8.167 10.083Zm10.23-26.585c2.136 1.049 4.483.647 5.242-.899.76-1.545-.356-3.649-2.492-4.699-2.137-1.049-4.484-.647-5.243.899-.759 1.545.357 3.649 2.493 4.699Zm34.501 43.741c1.483.876 3.797-.297 5.169-2.62 1.371-2.322 1.281-4.915-.202-5.79-1.482-.876-3.796.297-5.168 2.619-1.372 2.323-1.282 4.915.201 5.791Zm-110.464-74.357c4.432 2.178 9.429 1.085 11.161-2.44 1.732-3.526-.457-8.149-4.888-10.326-4.432-2.178-9.429-1.085-11.161 2.44-1.732 3.526.456 8.149 4.888 10.326Zm90.045 68.883c.088 2.851 1.668 5.115 3.528 5.057 1.861-.057 3.298-2.415 3.209-5.266-.088-2.851-1.668-5.115-3.528-5.057-1.861.057-3.298 2.415-3.209 5.266Zm-53.406 23.024c.908 1.526 3.658 1.565 6.142.086 2.484-1.479 3.762-3.915 2.853-5.441-.909-1.526-3.659-1.565-6.143-.086-2.484 1.479-3.761 3.915-2.852 5.441Zm-7.818-59.605c2.48 1.218 5.098.97 5.847-.555.749-1.525-.654-3.748-3.134-4.967-2.48-1.218-5.097-.97-5.847.555-.749 1.525.654 3.748 3.134 4.967Zm186.241-.613c2.445 1.202 5.025.959 5.762-.541.737-1.501-.647-3.691-3.093-4.892-2.445-1.202-5.025-.959-5.762.541-.737 1.501.648 3.691 3.093 4.892Zm-197.96 58.405c1.477 2.107 5.626 1.746 9.267-.806 3.641-2.553 5.394-6.33 3.917-8.437-1.477-2.108-5.626-1.747-9.267.806-3.641 2.553-5.395 6.33-3.917 8.437Zm-51.372-81.673c5.591 1.754 10.912.658 11.886-2.447.974-3.106-2.768-7.044-8.358-8.798-5.59-1.754-10.912-.658-11.886 2.448-.974 3.105 2.768 7.044 8.358 8.797Zm-37.9532 1.3c2.0353 1 4.2732.614 4.9985-.862.7252-1.476-.3368-3.483-2.3722-4.483-2.0353-1-4.2732-.614-4.9985.862-.7252 1.476.3368 3.483 2.3722 4.483Zm136.7072 81.398c1.443.852 3.694-.289 5.028-2.548 1.335-2.259 1.247-4.781-.196-5.633-1.443-.852-3.694.288-5.028 2.548-1.335 2.259-1.247 4.781.196 5.633Zm-95.909-47.387c1.12 1.597 4.263 1.325 7.019-.608 2.757-1.932 4.084-4.794 2.964-6.391-1.119-1.597-4.262-1.325-7.018.608-2.757 1.933-4.084 4.794-2.965 6.391Z"/>
  <path fill="#2A5EBC" d="M116.731 219.261c1.48.874 3.788-.295 5.156-2.611 1.367-2.316 1.277-4.901-.203-5.775-1.479-.874-3.787.295-5.155 2.611-1.368 2.316-1.277 4.902.202 5.775Zm-92.3421-14.978c1.0641 1.518 4.0562 1.255 6.683-.586 2.6269-1.842 3.8936-4.565 2.8295-6.083-1.0641-1.518-4.0562-1.255-6.683.586-2.6269 1.842-3.8937 4.565-2.8295 6.083Zm-6.3099 6.854c1.4528.858 3.7185-.288 5.0606-2.561 1.3421-2.272 1.2523-4.81-.2005-5.668-1.4528-.858-3.7185.289-5.0606 2.561-1.3421 2.273-1.2523 4.81.2005 5.668Zm181.775-35.824c1.075 1.534 4.097 1.27 6.749-.59 2.652-1.859 3.93-4.61 2.855-6.144-1.075-1.533-4.097-1.269-6.749.59-2.652 1.86-3.93 4.61-2.855 6.144Zm-6.257 6.798c1.446.854 3.702-.288 5.038-2.55 1.336-2.263 1.247-4.789-.199-5.643-1.446-.854-3.702.287-5.038 2.55-1.336 2.262-1.247 4.789.199 5.643Zm168.806-72.742c1.033 1.474 3.933 1.222 6.478-.562 2.544-1.784 3.77-4.425 2.737-5.898-1.033-1.473-3.934-1.222-6.478.562-2.544 1.784-3.77 4.425-2.737 5.898Zm-6.52 7.022c1.476.872 3.779-.294 5.142-2.603 1.364-2.309 1.273-4.888-.203-5.759-1.476-.872-3.778.293-5.142 2.602-1.364 2.309-1.273 4.888.203 5.76Zm-145.472 99.946c2.379 2.254 5.476 2.849 6.915 1.329 1.44-1.52.678-4.58-1.702-6.834-2.38-2.254-5.476-2.849-6.916-1.329-1.439 1.52-.677 4.58 1.703 6.834Zm5.573-24.273c3.751 1.843 7.98.918 9.446-2.066 1.466-2.983-.387-6.896-4.138-8.739-3.751-1.843-7.98-.918-9.446 2.065-1.466 2.984.387 6.897 4.138 8.74ZM189.313 221c.791 1.858 3.513 2.479 6.081 1.387 2.567-1.093 4.007-3.486 3.216-5.344-.791-1.859-3.514-2.48-6.081-1.387-2.567 1.092-4.007 3.485-3.216 5.344Zm-42.004 57.652c.122 3.938 2.303 7.066 4.871 6.986 2.569-.08 4.552-3.336 4.43-7.274-.122-3.937-2.303-7.065-4.871-6.985-2.569.079-4.552 3.336-4.43 7.273ZM408.584 90.8296c.827 1.5846 3.718 1.71 6.455.28s4.284-3.8738 3.457-5.4585c-.828-1.5846-3.718-1.71-6.455-.28-2.738 1.43-4.285 3.8738-3.457 5.4585ZM193.766 296.419c.33 1.793 1.49 3.082 2.59 2.879 1.1-.202 1.724-1.82 1.393-3.612-.33-1.793-1.489-3.082-2.589-2.879-1.1.202-1.724 1.82-1.394 3.612Zm-23.95-2.961c1.289.465 2.969-.919 3.754-3.092.784-2.173.375-4.312-.913-4.777-1.289-.465-2.969.919-3.754 3.093-.784 2.173-.375 4.311.913 4.776Zm40.622 3.901c1.843.577 4.18-1.642 5.22-4.958 1.04-3.316.389-6.472-1.453-7.05-1.843-.578-4.18 1.641-5.22 4.957s-.389 6.473 1.453 7.051Zm-3.062 19.732c2.004 1.332 4.411 1.237 5.375-.213.964-1.451.12-3.706-1.884-5.039-2.005-1.333-4.411-1.237-5.375.213-.964 1.45-.121 3.706 1.884 5.039Zm-32.523-33.205c1.302 1.018 3.65.19 5.245-1.85 1.594-2.039 1.832-4.518.53-5.535-1.301-1.018-3.649-.19-5.244 1.849-1.595 2.04-1.833 4.518-.531 5.536Zm134.695-82.57c2.101 1.397 4.624 1.296 5.636-.225 1.011-1.521.127-3.887-1.974-5.284-2.101-1.396-4.624-1.296-5.635.225-1.012 1.522-.128 3.887 1.973 5.284Zm-11.603 7.933c.769 2.754 4.481 4.125 8.29 3.061 3.809-1.064 6.273-4.159 5.504-6.914-.769-2.754-4.481-4.125-8.29-3.061-3.809 1.064-6.274 4.16-5.504 6.914ZM383.627 61.48c.862 2.0009 4.2 2.4862 7.456 1.0838 3.255-1.4024 5.196-4.1614 4.334-6.1623-.862-2.001-4.2-2.4863-7.456-1.0839-3.255 1.4024-5.196 4.1614-4.334 6.1624ZM184.206 237.609c2.173 1.07 4.563.663 5.337-.909.775-1.573-.359-3.716-2.532-4.786-2.173-1.071-4.563-.664-5.337.909-.775 1.573.359 3.715 2.532 4.786Zm-8.36-6.885c.658 1.528 3.209 1.898 5.697.826 2.488-1.071 3.971-3.179 3.313-4.707-.659-1.529-3.209-1.899-5.697-.827s-3.971 3.179-3.313 4.708ZM89.2138 72.201c2.1673 1.0648 4.5496.6554 5.3209-.9145.7713-1.57-.3604-3.7058-2.5277-4.7707-2.1673-1.0648-4.5496-.6553-5.3209.9146-.7713 1.5699.3604 3.7058 2.5277 4.7706Zm-8.7239-6.7281c.6644 1.5425 3.24 1.9154 5.7528.833 2.5127-1.0824 4.0111-3.2103 3.3466-4.7528-.6644-1.5425-3.24-1.9154-5.7528-.833-2.5127 1.0824-4.0111 3.2103-3.3466 4.7528ZM248.424 321.083c3.048 2.026 6.529 2.151 7.774.279 1.244-1.872-.218-5.033-3.267-7.06-3.048-2.027-6.529-2.152-7.774-.279-1.244 1.872.218 5.033 3.267 7.06Zm14.056-48.116c.973 1.862 4.37 2.009 7.587.329 3.218-1.681 5.037-4.554 4.064-6.416-.973-1.863-4.37-2.01-7.587-.329-3.218 1.681-5.037 4.553-4.064 6.416Zm-37.436 22.709c2.737.988 6.306-1.953 7.972-6.568 1.666-4.616.798-9.158-1.94-10.146-2.737-.988-6.306 1.953-7.972 6.568-1.666 4.616-.798 9.158 1.94 10.146Zm14.399-29.357c1.666 1.911 5.726 1.098 9.069-1.816 3.344-2.914 4.704-6.825 3.038-8.736-1.665-1.911-5.725-1.098-9.069 1.816-3.343 2.914-4.703 6.825-3.038 8.736Zm32.882 20.807c2.119.664 4.807-1.889 6.004-5.703 1.196-3.814.448-7.445-1.672-8.11-2.119-.665-4.807 1.888-6.004 5.702-1.196 3.815-.448 7.446 1.672 8.111Zm57.148-264.6963c.91 1.7425 4.089 1.8795 7.101.3062 3.012-1.5734 4.715-4.2613 3.805-6.0037-.911-1.7425-4.09-1.8795-7.102-.3062-3.011 1.5734-4.714 4.2613-3.804 6.0037Zm9.324 14.9039c2.282.7158 5.177-2.0385 6.468-6.1519 1.29-4.1134.486-8.0282-1.796-8.744-2.282-.7158-5.178 2.0385-6.468 6.1519s-.486 8.0282 1.796 8.744ZM252.363 310.741c3.825 2.543 8.42 2.358 10.262-.413 1.843-2.772.235-7.08-3.59-9.623-3.825-2.543-8.42-2.358-10.262.414-1.843 2.771-.235 7.079 3.59 9.622ZM231.8 272.295c1.229.961 3.444.18 4.948-1.744 1.504-1.923 1.728-4.261.499-5.222-1.228-.961-3.443-.18-4.948 1.743-1.504 1.924-1.727 4.262-.499 5.223Zm-67.235-6.413c1.231.963 3.451.182 4.957-1.745 1.507-1.927 1.73-4.269.498-5.232-1.231-.963-3.451-.182-4.957 1.744-1.507 1.927-1.73 4.27-.498 5.233Zm58.677 44.292c2.101 2.585 5.146 3.591 6.801 2.246 1.654-1.345 1.292-4.531-.81-7.117-2.101-2.585-5.146-3.591-6.801-2.246-1.654 1.345-1.292 4.531.81 7.117Zm15.646-11.954c.654 2.341 3.807 3.506 7.042 2.602 3.235-.904 5.328-3.534 4.674-5.874-.654-2.341-3.806-3.506-7.042-2.602-3.235.903-5.328 3.533-4.674 5.874ZM82.8079 91.3036c3.8447 2.5559 8.462 2.3707 10.313-.4137 1.8511-2.7845.2349-7.1136-3.6098-9.6695-3.8447-2.5559-8.462-2.3706-10.313.4138-1.851 2.7844-.2349 7.1136 3.6098 9.6694ZM68.9635 78.869c.6975 2.4972 4.0608 3.7402 7.5122 2.7762 3.4514-.9639 5.6839-3.7697 4.9864-6.267-.6974-2.4972-4.0607-3.7402-7.5121-2.7762-3.4514.9639-5.684 3.7697-4.9865 6.267Zm99.5855 140.825c3.712 2.468 8.17 2.289 9.957-.398 1.787-2.688.226-6.868-3.487-9.336-3.712-2.468-8.17-2.29-9.957.398-1.787 2.688-.226 6.867 3.487 9.336Zm-13.855-12.289c.685 2.453 3.987 3.674 7.375 2.727 3.388-.946 5.579-3.701 4.894-6.154-.685-2.452-3.987-3.673-7.375-2.727-3.388.946-5.579 3.702-4.894 6.154Zm123.149 4.462c3.767 2.504 8.292 2.322 10.107-.408 1.814-2.729.231-6.972-3.536-9.477-3.767-2.504-8.292-2.322-10.107.408-1.815 2.729-.232 6.972 3.536 9.477Zm-13.378-12.477c.637 2.281 3.71 3.416 6.863 2.535 3.153-.88 5.193-3.443 4.556-5.724-.637-2.281-3.71-3.417-6.863-2.536-3.153.881-5.193 3.444-4.556 5.725Zm-16.637 24.714c3.844 2.556 8.462 2.371 10.313-.413 1.851-2.785.235-7.114-3.61-9.67-3.845-2.556-8.462-2.371-10.313.414-1.851 2.784-.235 7.113 3.61 9.669Zm-13.361-12.569c.642 2.3 3.74 3.444 6.92 2.556 3.179-.887 5.236-3.472 4.593-5.771-.642-2.3-3.74-3.444-6.919-2.556-3.18.888-5.236 3.472-4.594 5.771Zm47.267-87.734c2.733 1.816 6.014 1.685 7.33-.294 1.315-1.978.166-5.055-2.567-6.872-2.732-1.817-6.014-1.685-7.33.293-1.315 1.979-.166 5.056 2.567 6.873Zm41.986 29.095c2.733 1.816 6.014 1.685 7.33-.294 1.315-1.978.166-5.055-2.567-6.872-2.732-1.817-6.014-1.686-7.33.293-1.315 1.979-.166 5.056 2.567 6.873Zm-74.627 120.926c-.269 2.7.94 5.03 2.7 5.205 1.76.176 3.404-1.871 3.673-4.57.269-2.7-.94-5.03-2.7-5.205-1.76-.175-3.404 1.871-3.673 4.57Zm56.532-20.332c2 .985 4.199.61 4.912-.837.713-1.448-.33-3.42-2.329-4.405-2-.985-4.199-.61-4.912.837-.713 1.448.33 3.42 2.329 4.405Z"/>
  <path fill="#2A5EBC" d="M162.35 200.48c1.512.894 3.873-.303 5.272-2.672s1.307-5.014-.205-5.907c-1.513-.894-3.874.303-5.273 2.672-1.399 2.369-1.307 5.014.206 5.907Zm9.859-17.867c.804 1.54 3.617 1.66 6.282.268 2.665-1.393 4.173-3.77 3.369-5.31-.805-1.54-3.618-1.66-6.283-.267-2.665 1.392-4.173 3.769-3.368 5.309Zm-13.081-1.435c1.415 1.107 3.966.207 5.699-2.01 1.733-2.216 1.992-4.909.577-6.015-1.414-1.106-3.966-.206-5.699 2.01-1.733 2.216-1.991 4.909-.577 6.015Zm-83.9852 34.625c4.5604 2.241 9.703 1.115 11.4862-2.515 1.7833-3.629-.4681-8.388-5.0285-10.628-4.5604-2.241-9.703-1.115-11.4862 2.515-1.7832 3.629.4681 8.388 5.0285 10.628Zm5.8691 11.913c1.3139 1.028 3.6834.193 5.2925-1.865 1.6091-2.058 1.8484-4.559.5346-5.586-1.3139-1.028-3.6834-.192-5.2925 1.865-1.6091 2.058-1.8485 4.559-.5346 5.586Zm61.6411-47.373c-.263 2.638.92 4.915 2.641 5.087 1.721.171 3.33-1.828 3.592-4.466.263-2.638-.92-4.915-2.641-5.087-1.721-.171-3.33 1.828-3.592 4.466Zm184.587 16.602c.989 1.41 3.765 1.168 6.202-.541 2.437-1.708 3.611-4.236 2.622-5.646-.988-1.41-3.765-1.168-6.202.54-2.437 1.709-3.61 4.237-2.622 5.647Zm-37.546 2.482c1.015 1.448 3.87 1.197 6.376-.56 2.507-1.757 3.716-4.356 2.7-5.804-1.015-1.448-3.87-1.197-6.376.56-2.507 1.757-3.715 4.356-2.7 5.804Zm-118.611-48.934c-.614 3.496.461 6.605 2.401 6.946 1.94.341 4.011-2.216 4.625-5.711.614-3.495-.461-6.605-2.401-6.946-1.94-.341-4.011 2.216-4.625 5.711Zm149.626 47.347c1.489.88 3.812-.295 5.187-2.624 1.376-2.329 1.283-4.931-.206-5.81-1.489-.88-3.812.295-5.188 2.624-1.375 2.33-1.283 4.931.207 5.81Zm-30.8-15.985c.124 4.015 2.348 7.204 4.966 7.123 2.619-.081 4.641-3.401 4.516-7.416-.124-4.015-2.348-7.204-4.966-7.123-2.619.081-4.641 3.401-4.516 7.416Zm16.392 92.092c3.677 2.444 7.876 2.594 9.378.335 1.501-2.259-.262-6.072-3.939-8.516-3.677-2.445-7.875-2.595-9.377-.336-1.502 2.259.261 6.072 3.938 8.517Zm17.036-59.634c.776 1.486 3.488 1.602 6.057.259 2.569-1.342 4.023-3.634 3.247-5.119-.776-1.485-3.488-1.601-6.057-.259-2.569 1.342-4.023 3.634-3.247 5.119Zm-42.53-113.156c.326 1.769 1.473 3.042 2.561 2.841 1.089-.2 1.707-1.798 1.381-3.567-.326-1.77-1.473-3.0421-2.561-2.8417-1.088.2005-1.707 1.7976-1.381 3.5677Zm38.062 141.695c1.976.62 4.482-1.763 5.599-5.323 1.116-3.559.42-6.947-1.555-7.567-1.976-.62-4.482 1.764-5.599 5.323-1.116 3.56-.42 6.948 1.555 7.567Z"/>
  <path fill="#2A5EBC" d="M319.066 248.59c1.946 1.294 4.285 1.199 5.223-.212.939-1.412.121-3.605-1.825-4.899-1.947-1.294-4.285-1.199-5.224.213-.938 1.411-.121 3.604 1.826 4.898Zm-33.609-26.325c1.341 1.049 3.76.197 5.403-1.903 1.642-2.101 1.886-4.654.545-5.703-1.341-1.049-3.76-.196-5.403 1.904-1.642 2.101-1.886 4.654-.545 5.702Zm85.346-88.383c1.409 1.101 3.948.207 5.671-1.997 1.724-2.204 1.979-4.883.571-5.985-1.409-1.101-3.947-.207-5.671 1.997-1.724 2.204-1.979 4.883-.571 5.985Zm-91.254 124.405c2.346 2.885 5.744 4.008 7.591 2.507 1.847-1.501 1.443-5.058-.903-7.944-2.346-2.885-5.744-4.008-7.591-2.507-1.847 1.501-1.443 5.058.903 7.944Zm10.422 16.805c2.282 1.517 5.11 1.276 6.316-.538 1.206-1.815.334-4.515-1.948-6.032-2.281-1.517-5.109-1.276-6.315.539-1.206 1.814-.334 4.515 1.947 6.031Zm15.979-52.994c-.523 5.256 1.831 9.794 5.258 10.135 3.427.341 6.63-3.643 7.153-8.9.524-5.256-1.831-9.794-5.258-10.135-3.427-.341-6.63 3.643-7.153 8.9Zm26.46 9.821c1.147.414 2.641-.815 3.337-2.744.696-1.929.331-3.829-.816-4.243-1.146-.413-2.64.815-3.336 2.744-.697 1.93-.332 3.829.815 4.243Zm3.038-17.675c1.35 1.056 3.786.197 5.44-1.919 1.655-2.115 1.901-4.687.551-5.743-1.351-1.056-3.787-.197-5.441 1.919s-1.901 4.687-.55 5.743Zm.171 29.632c2.062 2.538 5.049 3.526 6.671 2.208 1.621-1.318 1.264-4.443-.799-6.981-2.062-2.537-5.049-3.526-6.671-2.208-1.621 1.318-1.264 4.444.799 6.981Zm-83.037 11.702c2.076 1.38 4.647 1.161 5.744-.489 1.097-1.65.304-4.106-1.772-5.486-2.075-1.38-4.647-1.161-5.744.489-1.096 1.65-.303 4.106 1.772 5.486Zm84.386-23.566c.734 2.628 4.272 3.936 7.902 2.922 3.631-1.014 5.979-3.966 5.245-6.594s-4.272-3.936-7.902-2.922c-3.631 1.014-5.979 3.966-5.245 6.594ZM152.004 109.125c1.96 1.303 4.314 1.207 5.259-.214.945-1.422.122-3.63-1.837-4.932-1.96-1.303-4.314-1.207-5.259.215-.944 1.421-.122 3.629 1.837 4.931Zm20.436-20.0737c1.216.4388 2.801-.8668 3.541-2.9161.74-2.0493.354-4.0664-.862-4.5052-1.216-.4387-2.801.8669-3.541 2.9162-.739 2.0493-.353 4.0663.862 4.5051Zm3.268 11.7327c2.065 2.541 5.056 3.53 6.681 2.209 1.625-1.32 1.268-4.4501-.797-6.9906-2.065-2.5405-5.056-3.5295-6.681-2.209s-1.268 4.4505.797 6.9906Zm1.073-11.795c.764 2.7358 4.45 4.097 8.233 3.0404 3.784-1.0565 6.231-4.1309 5.467-6.8666-.764-2.7358-4.45-4.097-8.234-3.0404-3.783 1.0566-6.23 4.1309-5.466 6.8666Zm137.84 19.834c2.505 1.147 5.821-.729 7.407-4.192 1.585-3.462.84-7.1984-1.665-8.3456-2.505-1.1472-5.822.7294-7.407 4.1916-1.585 3.462-.84 7.199 1.665 8.346Zm-42.566 54.532c1.216.438 2.801-.867 3.541-2.917.74-2.049.354-4.066-.862-4.505-1.216-.439-2.801.867-3.541 2.916-.739 2.05-.353 4.067.862 4.506Zm-2.198-11.552c2.165 2.664 5.301 3.701 7.003 2.317 1.703-1.384 1.328-4.665-.837-7.328-2.165-2.664-5.3-3.701-7.003-2.317-1.703 1.383-1.328 4.665.837 7.328Zm.429-11.268c.779 2.788 4.534 4.175 8.388 3.099 3.854-1.076 6.347-4.209 5.568-6.997-.778-2.788-4.534-4.175-8.388-3.099-3.854 1.076-6.347 4.209-5.568 6.997Zm30.27 8.401c.768 2.75 4.473 4.12 8.275 3.058 3.801-1.062 6.261-4.153 5.492-6.903-.768-2.751-4.473-4.12-8.274-3.058-3.802 1.061-6.261 4.152-5.493 6.903Zm60.196 54.444c-.284 2.846.991 5.302 2.847 5.487 1.856.185 3.591-1.972 3.874-4.818.283-2.846-.992-5.302-2.848-5.487-1.856-.185-3.59 1.972-3.873 4.818ZM231.402 40.7671c1.775.3207 3.636-1.7593 4.158-4.6458.522-2.8866-.494-5.4867-2.269-5.8074-1.774-.3208-3.636 1.7592-4.158 4.6458-.521 2.8866.494 5.4866 2.269 5.8074ZM243.598 86.77c.733 1.7405 3.623 2.1848 6.455.9924 2.831-1.1925 4.533-3.57 3.8-5.3105-.733-1.7405-3.623-2.1848-6.454-.9924-2.832 1.1924-4.534 3.57-3.801 5.3105Zm-.156 24.697c-.437 4.183 1.171 7.78 3.592 8.033 2.421.253 4.738-2.934 5.175-7.117.437-4.184-1.171-7.781-3.592-8.034-2.421-.253-4.738 2.934-5.175 7.118Zm60.872 52.679c.674 1.601 3.011 2.146 5.219 1.216 2.207-.93 3.45-2.981 2.776-4.583-.674-1.601-3.011-2.146-5.218-1.216-2.208.929-3.451 2.981-2.777 4.583Zm-43.468-84.9822c.817 2.4526 2.75 4.0174 4.318 3.4951 1.568-.5222 2.176-2.9338 1.359-5.3863-.817-2.4526-2.75-4.0174-4.318-3.4951-1.568.5222-2.176 2.9338-1.359 5.3863Zm-61.611-25.7065c.808 1.9188 3.417 2.6513 5.828 1.6361 2.411-1.0152 3.711-3.3937 2.903-5.3125-.808-1.9188-3.417-2.6513-5.828-1.6361-2.411 1.0152-3.711 3.3937-2.903 5.3125Zm-24.882 61.1987c.683 1.629 3.39 2.046 6.044.931 2.655-1.114 4.253-3.337 3.569-4.966-.683-1.628-3.389-2.045-6.044-.931-2.655 1.115-4.253 3.338-3.569 4.966Zm2.439 50.999c2.421 2.985 5.725 4.316 7.382 2.973 1.656-1.343 1.037-4.851-1.384-7.836-2.42-2.985-5.724-4.316-7.381-2.973-1.656 1.342-1.037 4.851 1.383 7.836Zm33.037-45.69c3.587 1.531 7.181 1.168 8.025-.811.845-1.978-1.379-4.824-4.966-6.355-3.588-1.532-7.181-1.169-8.026.81-.844 1.979 1.379 4.824 4.967 6.356Zm119.54 50.297c1.286 3.064 5.757 4.109 9.987 2.334 4.229-1.775 6.615-5.699 5.329-8.763-1.286-3.064-5.758-4.109-9.987-2.334-4.23 1.775-6.616 5.699-5.329 8.763ZM197.46 102.673c.209 2.146 3.097 3.621 6.452 3.294 3.355-.326 5.906-2.33 5.697-4.475-.209-2.1454-3.097-3.6201-6.452-3.2938-3.355.3262-5.906 2.3298-5.697 4.4748Zm1.271 13.211c1.72.557 3.737-.917 4.506-3.291.769-2.375-.001-4.751-1.721-5.308-1.719-.557-3.736.917-4.505 3.291-.769 2.375.001 4.751 1.72 5.308Zm123.039 54.021c1.918.621 4.169-1.024 5.027-3.675.859-2.651 0-5.303-1.918-5.924-1.918-.622-4.169 1.024-5.028 3.674-.858 2.651.001 5.304 1.919 5.925Zm42.346 22.864c1.94.629 4.217-1.035 5.085-3.715.868-2.68-.001-5.362-1.941-5.99-1.941-.629-4.217 1.034-5.085 3.715-.868 2.68.001 5.362 1.941 5.99ZM174.603 48.4123c1.005 2.3945 4.983 3.008 8.884 1.3702 3.902-1.6377 6.25-4.9065 5.245-7.301s-4.983-3.008-8.884-1.3703c-3.902 1.6378-6.25 4.9066-5.245 7.3011Zm72.855 93.7667c1.671.399 3.585-1.621 4.275-4.512.69-2.891-.105-5.558-1.776-5.957-1.672-.399-3.586 1.621-4.276 4.512-.69 2.891.106 5.558 1.777 5.957Zm7.01 28.88c2.363 1.395 4.918 1.443 5.707.107.789-1.336-.487-3.551-2.849-4.946-2.363-1.395-4.917-1.443-5.707-.107-.789 1.336.487 3.551 2.849 4.946Zm75.35-103.3495c2.977 1.6118 6.849.2258 8.647-3.0958s.841-7.321-2.137-8.9328c-2.978-1.6118-6.849-.2258-8.647 3.0958s-.841 7.321 2.137 8.9328Zm-75.065 94.7315c2.055 3.343 5.225 5.128 7.081 3.988 1.856-1.141 1.696-4.776-.359-8.119-2.055-3.343-5.225-5.129-7.081-3.988-1.857 1.141-1.696 4.776.359 8.119Zm-19.619-80.8811c2.077 3.3793 5.281 5.1842 7.157 4.0312 1.876-1.1529 1.713-4.8271-.364-8.2065-2.076-3.3793-5.281-5.1842-7.157-4.0312-1.876 1.1529-1.713 4.8271.364 8.2065Zm38.599 92.0721c.459 1.668 2.697 2.507 4.999 1.874 2.302-.633 3.797-2.498 3.338-4.166-.458-1.668-2.697-2.507-4.999-1.874-2.302.633-3.797 2.499-3.338 4.166Zm-36.354-14.692c1.993 2.114 4.728 2.774 6.108 1.473 1.379-1.3.882-4.069-1.112-6.184-1.994-2.114-4.729-2.774-6.108-1.473-1.38 1.301-.882 4.069 1.112 6.184Zm55.199 13.546c1.681.536 3.753-1.25 4.627-3.989.874-2.739.219-5.395-1.462-5.931-1.681-.536-3.752 1.25-4.626 3.989-.874 2.739-.22 5.394 1.461 5.931Zm15.771 10.288c1.763.562 3.934-1.31 4.85-4.182.917-2.872.231-5.656-1.531-6.218-1.763-.563-3.934 1.31-4.85 4.182-.917 2.872-.231 5.656 1.531 6.218Zm-175.433-24.325c.12 3.88 2.271 6.961 4.805 6.883 2.533-.079 4.49-3.287 4.37-7.167-.121-3.88-2.272-6.961-4.805-6.882-2.534.078-4.49 3.287-4.37 7.166Zm54.586 36.92c.115 4.221 2.442 7.582 5.197 7.506 2.755-.075 4.894-3.558 4.779-7.78-.116-4.221-2.443-7.582-5.198-7.506-2.755.075-4.894 3.558-4.778 7.78Zm11.277 10.903c1.615.515 3.603-1.195 4.441-3.82.837-2.625.207-5.171-1.408-5.686-1.615-.515-3.603 1.195-4.44 3.82-.838 2.625-.208 5.171 1.407 5.686ZM145.327 75.6023c.124 4.0266 2.355 7.2248 4.981 7.1434 2.626-.0813 4.654-3.4115 4.53-7.4381-.125-4.0265-2.355-7.2248-4.982-7.1434-2.626.0814-4.654 3.4116-4.529 7.4381Zm4.518-8.5245c1.663.5305 3.711-1.2331 4.574-3.9392s.215-5.3298-1.447-5.8603c-1.663-.5305-3.711 1.2331-4.574 3.9392-.864 2.7061-.216 5.3298 1.447 5.8603ZM4.88958 178.998c1.87678 1.114 4.78345-.316 6.49222-3.195 1.7087-2.878 1.5725-6.115-.3043-7.229-1.87675-1.114-4.7834.316-6.49215 3.195-1.70875 2.878-1.57256 6.115.30423 7.229Zm6.68552-10.591c.9124 1.093 3.0925.778 4.8692-.705 1.7768-1.483 2.4775-3.571 1.5651-4.664-.9125-1.094-3.0925-.778-4.8693.704-1.7767 1.483-2.4774 3.572-1.565 4.665ZM280.222 97.751c1.769.4223 3.795-1.7131 4.524-4.7696.73-3.0564-.113-5.8765-1.882-6.2988-1.769-.4223-3.795 1.7131-4.524 4.7696-.73 3.0564.113 5.8765 1.882 6.2988Zm15.947 5.008c1.909 3.105 4.854 4.764 6.579 3.704 1.724-1.059 1.574-4.436-.334-7.5419-1.909-3.1058-4.854-4.7644-6.579-3.7046-1.724 1.0597-1.574 4.4365.334 7.5425Zm-47.521 23.225c.472 2.435 2.118 4.164 3.675 3.862 1.558-.302 2.438-2.521 1.966-4.956-.473-2.435-2.118-4.164-3.676-3.862-1.557.302-2.437 2.521-1.965 4.956Zm30.504 28.296c-.076 2.258 2.726 4.185 6.257 4.302 3.532.118 6.455-1.618 6.53-3.877.075-2.259-2.726-4.185-6.258-4.302-3.531-.118-6.454 1.618-6.529 3.877ZM94.8633 139.502c1.1211.404 2.5827-.799 3.2646-2.688.6818-1.89.3257-3.749-.7955-4.154-1.1211-.404-2.5827.799-3.2645 2.688-.6819 1.889-.3257 3.749.7954 4.154Zm-2.3789-11.205c2.2138 2.724 5.4204 3.784 7.1622 2.368 1.7414-1.415 1.3594-4.771-.8549-7.495-2.2139-2.723-5.4205-3.784-7.1622-2.368-1.7418 1.416-1.359 4.771.8549 7.495Zm9.4116 2.397c-.074 2.239 2.703 4.149 6.203 4.265 3.501.117 6.399-1.604 6.473-3.843.075-2.24-2.703-4.15-6.203-4.266-3.5-.117-6.398 1.604-6.473 3.844Zm181.158 115.99c1.209.436 2.785-.863 3.52-2.901.736-2.039.353-4.045-.856-4.481-1.208-.436-2.784.863-3.52 2.901-.736 2.039-.352 4.045.856 4.481Zm-2.343-11.417c2.257 2.778 5.529 3.859 7.307 2.414 1.777-1.445 1.388-4.869-.87-7.646-2.257-2.778-5.529-3.858-7.307-2.413-1.777 1.445-1.388 4.868.87 7.645Zm9.456 2.365c-.075 2.247 2.712 4.163 6.224 4.28 3.512.117 6.419-1.61 6.494-3.857.075-2.247-2.712-4.164-6.224-4.28-3.511-.117-6.419 1.61-6.494 3.857ZM74.8397 156.401c2.0967 2.58 5.1329 3.585 6.7815 2.245 1.6487-1.34 1.2854-4.518-.8113-7.097-2.0967-2.58-5.1329-3.585-6.7815-2.245-1.6486 1.34-1.2854 4.518.8113 7.097Zm.7736-11.312c.7297 2.613 4.2491 3.913 7.8608 2.904 3.6117-1.008 5.9479-3.944 5.2182-6.557-.7297-2.613-4.2491-3.913-7.8608-2.904-3.6116 1.008-5.9479 3.944-5.2182 6.557Zm-11.5814 18.092c1.9493 3.172 4.9568 4.866 6.7174 3.784 1.7605-1.082 1.6075-4.531-.3418-7.702-1.9493-3.172-4.9567-4.866-6.7173-3.784-1.7605 1.082-1.6076 4.53.3417 7.702Zm19.929-4.249c-.076 2.282 2.7565 4.228 6.3264 4.347 3.5698.119 6.5254-1.635 6.6013-3.917.0759-2.282-2.7566-4.228-6.3264-4.347-3.5699-.118-6.5254 1.635-6.6013 3.917ZM291.08 136.344c2.443 1.16 5.724-.637 7.327-4.014 1.603-3.378.922-7.056-1.522-8.216-2.443-1.16-5.724.637-7.327 4.015-1.603 3.377-.922 7.055 1.522 8.215Zm-18.653-22.485c1.744 1.85 4.138 2.427 5.345 1.288 1.208-1.139.774-3.562-.97-5.412-1.745-1.85-4.138-2.426-5.346-1.287-1.208 1.138-.773 3.561.971 5.411Zm86.706-72.0801c1.698.307 3.48-1.6854 3.98-4.4501.499-2.7647-.472-5.2548-2.171-5.5618-1.698-.307-3.48 1.6854-3.98 4.4501s.472 5.2548 2.171 5.5618Zm-18.397 14.6206c.615 1.4623 3.043 1.8357 5.422.834 2.379-1.0017 3.808-2.9991 3.192-4.4614-.615-1.4623-3.043-1.8357-5.422-.834-2.379 1.0017-3.808 2.9991-3.192 4.4614Zm43.769 51.1625c-.316 3.021.845 5.618 2.592 5.801 1.747.183 3.42-2.119 3.736-5.14.315-3.021-.845-5.619-2.593-5.801-1.747-.183-3.42 2.118-3.735 5.14Zm-13.432-17.6607c3.47 1.4813 6.944 1.1327 7.76-.7786.816-1.9113-1.336-4.6614-4.806-6.1427-3.47-1.4813-6.945-1.1326-7.761.7786-.815 1.9113 1.336 4.6615 4.807 6.1427Zm-12.048-29.9234c2.165 2.914 5.322 4.2343 7.053 2.949 1.73-1.2853 1.378-4.6895-.786-7.6035-2.165-2.914-5.322-4.2343-7.053-2.949-1.73 1.2853-1.378 4.6895.786 7.6035Zm-4.019 28.3655c2.258.8654 4.873-.4778 5.839-3.0001.966-2.5223-.081-5.2686-2.339-6.134-2.259-.8654-4.873.4778-5.84 3.0001-.966 2.5223.081 5.2686 2.34 6.134Zm17.833 14.1936c2.42 2.985 5.725 4.316 7.381 2.973 1.656-1.343 1.037-4.851-1.383-7.8361-2.42-2.985-5.725-4.3161-7.381-2.9732-1.656 1.3429-1.037 4.8513 1.383 7.8363Z"/>
  <path fill="#2A5EBC" d="M347.917 78.9736c.672 1.5942 3 2.1355 5.2 1.2089 2.201-.9266 3.441-2.9702 2.769-4.5644-.671-1.5943-2.999-2.1355-5.2-1.2089-2.2.9266-3.44 2.9701-2.769 4.5644Zm-64.958-13.5215c.635 1.5086 2.839 2.0207 4.922 1.1436 2.083-.877 3.256-2.811 2.621-4.3197-.635-1.5086-2.839-2.0206-4.922-1.1436-2.083.877-3.256 2.811-2.621 4.3197Zm64.635 113.5049c.861 2.585 2.899 4.234 4.551 3.684 1.652-.551 2.293-3.092 1.432-5.677-.861-2.585-2.898-4.234-4.55-3.684-1.652.551-2.294 3.092-1.433 5.677Zm20.962-130.2782c.227 2.3341 3.368 3.9387 7.015 3.584 3.648-.3547 6.421-2.5345 6.194-4.8686-.227-2.3341-3.368-3.9387-7.016-3.584-3.647.3548-6.42 2.5345-6.193 4.8686Zm-3.295 26.1221c2.79.9038 6.066-1.4913 7.315-5.3496 1.25-3.8583.001-7.7188-2.79-8.6226-2.791-.9038-6.066 1.4914-7.316 5.3497-1.249 3.8583 0 7.7187 2.791 8.6225Zm27.789 27.0541c3.768 3.077 8.45 3.578 10.457 1.12 2.007-2.457.58-6.9442-3.188-10.0209-3.768-3.0768-8.449-3.5785-10.456-1.1206-2.008 2.4578-.58 6.9445 3.187 10.0215Zm-185.571 141.19c1.144 2.192 3.359 3.297 4.948 2.468 1.588-.829 1.948-3.278.804-5.471-1.145-2.192-3.36-3.297-4.948-2.468-1.589.83-1.948 3.279-.804 5.471Zm-5.367-9.385c1.925 2.748 4.852 4.018 6.538 2.837 1.687-1.182 1.493-4.367-.432-7.115s-4.853-4.018-6.539-2.836c-1.686 1.181-1.493 4.366.433 7.114Zm152.34-78.676c-.336 3.222.901 5.991 2.764 6.186 1.863.194 3.646-2.259 3.982-5.481.337-3.221-.9-5.991-2.763-6.185-1.863-.195-3.646 2.259-3.983 5.48Zm-9.248-25.139c3.488 1.489 7.057.959 7.972-1.184.915-2.142-1.172-5.086-4.66-6.575-3.487-1.489-7.056-.959-7.971 1.184-.915 2.142 1.172 5.086 4.659 6.575Zm-5.705 16.686c3.434 4.235 8.126 6.122 10.48 4.214 2.354-1.909 1.478-6.889-1.956-11.125-3.434-4.235-8.126-6.121-10.48-4.213-2.353 1.908-1.478 6.889 1.956 11.124ZM161.577 70.8399c.995 2.3696 4.93 2.9774 8.789 1.3576s6.181-4.8538 5.186-7.2234c-.995-2.3695-4.929-2.9774-8.788-1.3576s-6.181 4.8538-5.187 7.2234ZM370.343 121.67c.846 2.54 2.848 4.162 4.471 3.621 1.623-.541 2.252-3.039 1.406-5.579-.847-2.541-2.848-4.162-4.471-3.622-1.623.541-2.252 3.039-1.406 5.58Zm-27.326-22.4444c.229 2.3574 3.403 3.9774 7.089 3.6194 3.686-.359 6.489-2.56 6.259-4.9176-.229-2.3572-3.403-3.9775-7.089-3.619-3.686.3585-6.488 2.56-6.259 4.9172ZM121.773 133.593c1.39 1.087 3.899.201 5.604-1.978 1.704-2.18 1.959-4.828.569-5.915-1.39-1.087-3.899-.201-5.603 1.978-1.705 2.18-1.96 4.828-.57 5.915Zm15.75 6.241c2.32.889 5.005-.49 5.998-3.081.993-2.591-.083-5.412-2.403-6.301-2.32-.889-5.005.491-5.998 3.081-.993 2.591.083 5.413 2.403 6.301Z"/>
  <path fill="#2A5EBC" d="M130.563 130.31c.655 1.555 2.927 2.082 5.074 1.178 2.147-.904 3.356-2.897 2.702-4.452-.655-1.555-2.926-2.083-5.073-1.179-2.148.904-3.357 2.898-2.703 4.453Zm189.895-36.2851c.708 1.6798 2.993 2.3209 5.104 1.4318 2.112-.889 3.25-2.9715 2.542-4.6514-.707-1.6798-2.992-2.3209-5.103-1.4318-2.112.889-3.25 2.9715-2.543 4.6514Zm-204.38 17.4771c.741 3.751 3.539 6.358 6.249 5.822 2.711-.535 4.308-4.01 3.567-7.761-.741-3.751-3.539-6.358-6.25-5.822-2.711.535-4.307 4.01-3.566 7.761Zm2.202-9.469c1.635.997 3.977.14 5.23-1.915 1.254-2.0545.945-4.529-.691-5.5266-1.635-.9976-3.977-.1405-5.23 1.9143-1.254 2.0549-.945 4.5293.691 5.5273Zm220.276 13.649c1.73.56 3.76-.923 4.534-3.312s-.001-4.781-1.732-5.341c-1.73-.56-3.76.922-4.534 3.312-.774 2.389.002 4.78 1.732 5.341Zm22.342 22.038c2.08 1.699 4.665 1.975 5.774.617 1.109-1.357.321-3.835-1.759-5.534-2.08-1.699-4.665-1.975-5.774-.617s-.322 3.835 1.759 5.534Zm5.497 17.85c2.431.58 5.215-2.355 6.218-6.556 1.003-4.2-.156-8.076-2.587-8.657-2.432-.58-5.216 2.355-6.219 6.556-1.002 4.2.156 8.076 2.588 8.657Zm7.565 11.541c.007 5.72 2.661 10.353 5.927 10.348 3.266-.004 5.908-4.644 5.901-10.364-.008-5.719-2.662-10.352-5.928-10.348-3.266.004-5.908 4.644-5.9 10.364ZM210.203 91.7786c-.311 2.979.834 5.5401 2.559 5.7202 1.724.1802 3.374-2.0887 3.686-5.0678.311-2.979-.835-5.54-2.559-5.7202-1.724-.1802-3.374 2.0887-3.686 5.0678Zm-13.88-6.4486c3.79 4.6743 8.965 6.7584 11.559 4.6551 2.594-2.1033 1.625-7.5976-2.165-12.2718-3.79-4.6743-8.965-6.7585-11.559-4.6552-2.594 2.1033-1.625 7.5976 2.165 12.2719Zm25.578 6.9612c2.42.5778 5.192-2.344 6.19-6.5259.998-4.1819-.155-8.0403-2.575-8.6181-2.42-.5777-5.192 2.344-6.19 6.5259-.998 4.1819.155 8.0404 2.575 8.6181Zm7.533 11.5878c.007 5.735 2.671 10.381 5.948 10.377 3.278-.004 5.929-4.657 5.922-10.392-.008-5.7353-2.671-10.3811-5.949-10.3768-3.277.0043-5.928 4.657-5.921 10.3918ZM362.82 170c.561 2.892 2.512 4.945 4.358 4.587 1.847-.358 2.889-2.992 2.328-5.883-.56-2.891-2.512-4.945-4.358-4.587-1.846.358-2.889 2.992-2.328 5.883Zm-40.042-32.875c2.656 1.308 5.46 1.046 6.264-.585.804-1.632-.697-4.015-3.353-5.324-2.656-1.308-5.46-1.046-6.264.586-.804 1.632.698 4.015 3.353 5.323Zm72.249-80.5609c.882 2.0471 4.299 2.5425 7.633 1.1065 3.334-1.4361 5.321-4.2598 4.439-6.307-.881-2.0472-4.299-2.5426-7.633-1.1065-3.333 1.4361-5.321 4.2598-4.439 6.307Zm34.24-2.7063c2.417 1.6068 5.177 1.705 6.164.2194.988-1.4857-.171-3.9926-2.588-5.5994-2.417-1.6068-5.177-1.705-6.164-.2194-.988 1.4857.171 3.9926 2.588 5.5994Zm-31.674-15.2254c2.182 2.6847 5.343 3.7292 7.061 2.3331 1.718-1.3962 1.341-4.7044-.841-7.3891-2.182-2.6846-5.343-3.7291-7.061-2.333-1.718 1.3962-1.341 4.7044.841 7.389Zm19.748 28.2038c3.974 2.6416 8.628 2.6277 10.395-.0311 1.768-2.6587-.021-6.9554-3.994-9.597-3.974-2.6416-8.628-2.6277-10.395.031-1.768 2.6588.021 6.9555 3.994 9.5971ZM229.873 157.334c2.122 1.042 4.515.519 5.344-1.169.829-1.688-.219-3.902-2.341-4.944-2.122-1.043-4.515-.52-5.344 1.168-.83 1.688.219 3.902 2.341 4.945Z"/>
  <path fill="#2A5EBC" d="M216.224 159.182c3.958 2.631 8.593 2.617 10.355-.033 1.761-2.649-.02-6.929-3.977-9.56-3.958-2.631-8.594-2.616-10.355.033-1.761 2.649.02 6.93 3.977 9.56ZM416.38 37.6197c.477 1.7071 2.776 2.5567 5.135 1.8978 2.359-.6589 3.885-2.577 3.409-4.284-.477-1.7071-2.776-2.5568-5.135-1.8978-2.36.6589-3.886 2.577-3.409 4.284ZM317.916 125.3c.49 2.531 2.197 4.328 3.812 4.015 1.614-.313 2.525-2.618 2.035-5.148-.491-2.531-2.198-4.328-3.812-4.015-1.615.313-2.526 2.618-2.035 5.148Zm72.57-.697c1.94 2.058 4.602 2.7 5.945 1.434 1.344-1.267.859-3.962-1.081-6.02-1.941-2.058-4.603-2.7-5.946-1.434-1.343 1.266-.859 3.962 1.082 6.02ZM251.435 37.6765c-.348 3.3375.933 6.2063 2.862 6.4078 1.93.2014 3.776-2.3408 4.124-5.6783.349-3.3375-.933-6.2063-2.862-6.4077-1.929-.2015-3.775 2.3408-4.124 5.6782Zm-25.283-12.678c2.603 3.2104 6.158 4.6413 7.94 3.196 1.783-1.4452 1.118-5.2193-1.485-8.4297-2.603-3.2104-6.158-4.6413-7.941-3.196-1.782 1.4453-1.117 5.2194 1.486 8.4297Zm34.24-.9356c.814 2.4415 2.738 3.9994 4.298 3.4796 1.561-.5198 2.166-2.9205 1.353-5.362s-2.738-3.9994-4.298-3.4796-2.166 2.9205-1.353 5.362Zm-14.744-3.0676c2.221 1.8137 4.98 2.1104 6.162.6627 1.183-1.4478.341-4.0917-1.881-5.9055-2.221-1.8137-4.98-2.1104-6.162-.6627-1.182 1.4477-.34 4.0917 1.881 5.9055Zm63.702 51.5013c.51 1.8545 3.373 2.6841 6.396 1.8531 3.022-.8311 5.059-3.0082 4.549-4.8626-.51-1.8545-3.373-2.6842-6.396-1.8531-3.022.8311-5.059 3.0081-4.549 4.8626Zm-39.881-41.8793c1.686.4026 3.617-1.6329 4.312-4.5463.695-2.9134-.108-5.6015-1.794-6.004-1.686-.4026-3.617 1.6329-4.313 4.5463-.695 2.9134.108 5.6015 1.795 6.004Zm-4.794 29.7801c2.312 4.1471 6.185 6.3952 8.648 5.0213 2.464-1.3739 2.587-5.8496.275-9.9968-2.313-4.1471-6.185-6.3952-8.649-5.0213-2.464 1.374-2.587 5.8497-.274 9.9968Zm35.292 15.2251c2.375 1.2858 5.897-.6211 7.867-4.2592 1.969-3.6382 1.639-7.6298-.736-8.9155-2.376-1.2858-5.898.6211-7.867 4.2592-1.969 3.6381-1.64 7.6297.736 8.9155Zm99.843 3.3169c.491 1.7873 3.249 2.5874 6.16 1.7871 2.91-.8003 4.871-2.8979 4.38-4.6852-.492-1.7874-3.25-2.5875-6.16-1.7872s-4.871 2.8979-4.38 4.6853Zm-9.434 2.9019c2.276 1.2323 5.653-.5965 7.541-4.0849 1.888-3.4884 1.573-7.3153-.704-8.5476-2.277-1.2324-5.653.5965-7.541 4.0848-1.888 3.4884-1.573 7.3153.704 8.5477Zm-98.22-46.7625c1.884 3.0661 4.791 4.7041 6.492 3.6586 1.702-1.0456 1.553-4.3788-.331-7.445-1.885-3.0661-4.792-4.7041-6.493-3.6586-1.701 1.0456-1.553 4.3788.332 7.445Zm7.836 16.3914c.919 3.3433 5.406 5.0247 10.022 3.7555 4.616-1.2691 7.612-5.0083 6.693-8.3516-.92-3.3433-5.407-5.0247-10.022-3.7555-4.616 1.2692-7.612 5.0083-6.693 8.3516Zm-41.269-6.0569c.583 3.0051 2.611 5.1395 4.529 4.7675 1.919-.3721 3.002-3.1097 2.419-6.1148-.583-3.0051-2.611-5.1396-4.529-4.7675-1.919.372-3.001 3.1097-2.419 6.1148Zm22.619 29.7096c-.074 2.2239 2.681 4.1204 6.154 4.236 3.474.1155 6.349-1.5937 6.423-3.8176.074-2.2239-2.682-4.1205-6.155-4.236-3.473-.1155-6.349 1.5936-6.422 3.8176Zm17.471 15.4179c.952 3.4627 5.254 5.2991 9.608 4.1017 4.355-1.1973 7.113-4.975 6.161-8.4377-.952-3.4627-5.254-5.2991-9.609-4.1018-4.354 1.1974-7.112 4.9751-6.16 8.4378ZM100.155 115.18c.503 1.829 3.324 2.647 6.302 1.828 2.977-.819 4.984-2.964 4.481-4.793-.503-1.828-3.324-2.647-6.302-1.828-2.977.819-4.9837 2.965-4.481 4.793Zm-9.4326 3.109c2.3551 1.275 5.8471-.616 7.7998-4.224 1.9528-3.607 1.6268-7.565-.7287-8.84-2.3551-1.274-5.8472.617-7.7998 4.224-1.9526 3.608-1.6264 7.566.7287 8.84Zm7.9671 31.985c.9399 3.418 5.1835 5.232 9.4785 4.051 4.294-1.181 7.014-4.909 6.074-8.327-.94-3.418-5.183-5.232-9.478-4.051s-7.0143 4.909-6.0745 8.327Z"/>
  <path fill="#2A5EBC" d="M282.814 41.8484c3.297 3.4971 7.818 4.5888 10.099 2.4385 2.281-2.1503 1.457-6.7285-1.84-10.2255-3.297-3.4971-7.819-4.5889-10.1-2.4385-2.281 2.1503-1.457 6.7284 1.841 10.2255Zm46.653 10.4353c1.652.527 3.686-1.2246 4.543-3.9122.858-2.6877.214-5.2936-1.438-5.8206-1.652-.5269-3.686 1.2246-4.543 3.9123-.858 2.6876-.214 5.2936 1.438 5.8205ZM238.368 8.83329c2.144 3.48821 5.453 5.35001 7.392 4.15861 1.939-1.1915 1.772-4.98508-.372-8.47325-2.143-3.48816-5.453-5.350013-7.391-4.158556-1.939 1.191456-1.773 4.985036.371 8.473196Zm71.93 22.80351c-.074 2.2162 2.679 4.1063 6.148 4.2217 3.469.1155 6.342-1.5876 6.415-3.8038.074-2.2161-2.679-4.1063-6.148-4.2217-3.469-.1154-6.341 1.5876-6.415 3.8038Zm29.793 9.8268c.495 1.7985 2.729 2.7524 4.99 2.1307 2.261-.6218 3.693-2.5838 3.199-4.3823-.495-1.7985-2.729-2.7525-4.99-2.1307-2.261.6217-3.693 2.5838-3.199 4.3823ZM253.94 97.383c1.005 3.657 5.544 5.597 10.137 4.334 4.594-1.263 7.502-5.2511 6.497-8.9078-1.006-3.6567-5.545-5.5972-10.138-4.3342s-7.502 5.2513-6.496 8.908Zm-81.577 35.266c-.453 4.33 1.212 8.053 3.717 8.315 2.506.261 4.904-3.037 5.356-7.367.453-4.33-1.212-8.052-3.717-8.314-2.506-.262-4.904 3.036-5.356 7.366Zm6.577-8.356c2.005 1.637 4.496 1.905 5.563.598 1.067-1.306.307-3.693-1.699-5.331-2.005-1.637-4.496-1.905-5.563-.599-1.067 1.307-.307 3.694 1.699 5.332Zm11.485 180.225c-.305 2.925.82 5.44 2.513 5.617 1.694.177 3.314-2.051 3.62-4.976.306-2.926-.819-5.44-2.513-5.617-1.693-.177-3.314 2.051-3.62 4.976Zm69.805-173.747c.186 1.825 1.245 3.212 2.365 3.098 1.121-.115 1.878-1.686 1.692-3.511-.186-1.825-1.244-3.212-2.365-3.098-1.12.114-1.878 1.686-1.692 3.511Zm4.079-3.637c1.635.306 3.39-1.738 3.918-4.564.528-2.827-.37-5.366-2.006-5.671-1.635-.306-3.39 1.737-3.918 4.564-.528 2.826.37 5.365 2.006 5.671Zm82.74 69.78c.544 1.95 3.161 2.922 5.845 2.173 2.683-.75 4.417-2.938 3.873-4.887-.545-1.949-3.161-2.922-5.845-2.172-2.684.749-4.418 2.937-3.873 4.886Z"/>
  <path fill="#2A5EBC" d="M339.728 201.449c2.662.862 5.785-1.421 6.976-5.099 1.191-3.677-.001-7.358-2.663-8.22-2.661-.862-5.785 1.421-6.976 5.099-1.191 3.678.001 7.358 2.663 8.22Zm-145.717-69.065c2.752 1.23 5.561.936 6.273-.658.712-1.593-.941-3.882-3.694-5.112-2.752-1.23-5.56-.936-6.272.657-.713 1.594.941 3.883 3.693 5.113Zm7.793 17.916c1.942 1.844 4.603 2.194 5.943.783 1.34-1.412.853-4.051-1.089-5.895-1.942-1.844-4.603-2.194-5.944-.783-1.34 1.412-.852 4.051 1.09 5.895Zm-8.931-9.984c.632 2.75 4.223 4.271 8.021 3.399 3.798-.872 6.365-3.808 5.733-6.558-.631-2.749-4.222-4.271-8.02-3.399-3.798.872-6.365 3.808-5.734 6.558Zm50.061 53.368c.566 2.024 3.278 3.035 6.058 2.258 2.781-.776 4.577-3.046 4.011-5.07-.565-2.024-3.277-3.035-6.058-2.259-2.78.777-4.576 3.047-4.011 5.071Zm11.853 3.752c1.805 1.915 4.282 2.511 5.532 1.333 1.25-1.179.801-3.687-1.005-5.602-1.805-1.914-4.282-2.511-5.532-1.332s-.8 3.686 1.005 5.601ZM372.903 29.425c3.816 2.5366 8.399 2.3514 10.237-.4137 1.838-2.7651.235-7.063-3.58-9.5996-3.816-2.5366-8.399-2.3513-10.238.4137-1.838 2.7651-.235 7.063 3.581 9.5996Zm-13.534-12.4934c.661 2.3668 3.847 3.5454 7.116 2.6324 3.269-.9129 5.383-3.5716 4.722-5.9384-.661-2.3668-3.847-3.5453-7.116-2.6324-3.269.9129-5.383 3.5717-4.722 5.9384Zm-58.09 106.2464c1.816 1.926 4.306 2.527 5.561 1.343 1.256-1.184.802-3.705-1.014-5.631-1.815-1.926-4.305-2.527-5.561-1.343-1.256 1.184-.802 3.705 1.014 5.631Zm-68.946-62.67c.649 2.3221 3.764 3.4813 6.958 2.5891 3.194-.8921 5.258-3.4977 4.609-5.8197-.648-2.3221-3.763-3.4813-6.958-2.5892-3.194.8922-5.257 3.4978-4.609 5.8198Z"/>
  <path fill="#2A5EBC" d="M224.282 65.8171c3.081.9979 6.697-1.6461 8.077-5.9057 1.38-4.2596 0-8.5217-3.082-9.5197-3.081-.998-6.698 1.6461-8.077 5.9057-1.38 4.2596 0 8.5217 3.082 9.5197Zm22.603-.5831c2.198 2.3314 5.213 3.0592 6.733 1.6256 1.521-1.4335.972-4.4856-1.227-6.817-2.198-2.3314-5.212-3.0592-6.733-1.6257-1.52 1.4336-.971 4.4857 1.227 6.8171ZM105.348 190.902c1.649.298 3.379-1.637 3.864-4.321.485-2.685-.458-5.103-2.107-5.401-1.649-.298-3.379 1.637-3.864 4.321-.485 2.685.458 5.103 2.107 5.401Zm-16.221 16.984c.6728 1.598 3.3259 2.006 5.9259.911 2.6001-1.095 4.1624-3.278 3.4896-4.876-.6728-1.597-3.3259-2.005-5.926-.91-2.6 1.094-4.1623 3.277-3.4895 4.875Zm40.462 20.12c-.299 2.852.798 5.304 2.45 5.476 1.651.173 3.231-1.999 3.529-4.851.298-2.852-.799-5.304-2.45-5.477-1.651-.172-3.231 2-3.529 4.852Zm17.017 11.394c.591 4.473 3.141 7.826 5.696 7.488 2.556-.337 4.148-4.237 3.557-8.71-.591-4.474-3.141-7.827-5.696-7.489-2.556.337-4.148 4.237-3.557 8.711Zm-8.416-28.757c3.894 1.662 7.793 1.27 8.709-.876.916-2.146-1.497-5.234-5.391-6.896s-7.793-1.269-8.709.877c-.916 2.146 1.498 5.233 5.391 6.895Zm-39.1686 17.391c.6113 1.452 2.7316 1.944 4.7356 1.1 2.005-.844 3.134-2.705 2.523-4.156-.611-1.452-2.732-1.945-4.736-1.101-2.0044.844-3.1338 2.705-2.5226 4.157ZM37.3 208.43c.6443 1.53 2.8782 2.049 4.9896 1.16s3.3007-2.85 2.6565-4.38c-.6443-1.53-2.8782-2.05-4.9896-1.161-2.1114.89-3.3007 2.851-2.6565 4.381Zm109.186 15.221c.874 2.625 2.943 4.3 4.621 3.741 1.678-.559 2.329-3.14 1.455-5.765-.875-2.626-2.944-4.3-4.622-3.742-1.678.559-2.329 3.141-1.454 5.766Zm-13.25-111.822c.559 4.235 2.975 7.41 5.396 7.09 2.421-.32 3.93-4.013 3.37-8.248-.559-4.236-2.975-7.41-5.396-7.09-2.421.32-3.93 4.012-3.37 8.248Zm-.67-16.559c1.007 3.0216 3.388 4.95 5.319 4.3062 1.932-.6433 2.681-3.6144 1.675-6.636-1.007-3.0216-3.389-4.9496-5.32-4.3063-1.931.6434-2.68 3.6144-1.674 6.6361Zm-13.425 98.441c.291 2.997 4.327 5.057 9.015 4.601 4.687-.456 8.251-3.255 7.96-6.252-.292-2.996-4.328-5.056-9.016-4.6-4.687.456-8.251 3.255-7.959 6.251Zm16.269 47.186c2.123 1.733 4.76 2.015 5.891.63 1.13-1.384.327-3.912-1.795-5.645-2.123-1.733-4.76-2.015-5.891-.63-1.13 1.385-.327 3.912 1.795 5.645Zm-74.7035-23.098c.7674 1.823 3.2457 2.519 5.5354 1.554 2.2897-.964 3.5238-3.223 2.7564-5.045-.7674-1.823-3.2457-2.519-5.5354-1.554-2.2898.964-3.5239 3.223-2.7564 5.045Zm106.7775 24.317c1.652.394 3.545-1.602 4.227-4.459.682-2.857-.105-5.492-1.758-5.887-1.652-.394-3.544 1.602-4.226 4.459-.682 2.857.104 5.493 1.757 5.887Zm-26.626 26.165c.725 3.739 3.247 6.394 5.633 5.931 2.385-.462 3.732-3.868 3.007-7.606-.725-3.738-3.247-6.394-5.633-5.931-2.385.463-3.732 3.868-3.007 7.606ZM39.1425 129.852c.1195 3.856 2.2545 6.919 4.7687 6.842 2.5142-.078 4.4555-3.268 4.336-7.124-.1195-3.856-2.2545-6.92-4.7687-6.842-2.5142.078-4.4555 3.268-4.336 7.124Z"/>
  <path fill="#2A5EBC" d="M34.216 120.223c.78 3.941 3.4533 6.732 5.9708 6.234 2.5175-.498 3.926-4.097 3.146-8.038-.7801-3.941-3.4533-6.732-5.9708-6.234-2.5175.499-3.9261 4.097-3.146 8.038Zm19.4379 59.025c.115 3.71 2.1679 6.656 4.5854 6.581 2.4175-.075 4.2841-3.143 4.1692-6.852-.115-3.709-2.1679-6.656-4.5854-6.581-2.4175.075-4.2841 3.143-4.1692 6.852Zm-6.7163-10.372c.7235 3.73 3.2409 6.38 5.6229 5.918 2.3821-.462 3.7266-3.86 3.0031-7.591-.7234-3.731-3.2409-6.381-5.623-5.919-2.382.462-3.7265 3.861-3.003 7.592ZM163.181 283.284c2.761 2.928 6.549 3.841 8.461 2.039 1.912-1.803 1.223-5.638-1.538-8.566-2.76-2.929-6.549-3.841-8.46-2.039-1.912 1.803-1.224 5.638 1.537 8.566ZM17.159 140.616c-.3105 2.972.8325 5.526 2.553 5.706 1.7204.18 3.3669-2.083 3.6773-5.054.3105-2.972-.8325-5.526-2.553-5.706-1.7205-.18-3.3669 2.083-3.6773 5.054Zm-2.5059-12.35c-.3145 3.01.844 5.598 2.5876 5.78 1.7435.182 3.4119-2.11 3.7264-5.12.3145-3.01-.844-5.597-2.5875-5.78-1.7436-.182-3.412 2.11-3.7265 5.12Zm-6.91561 26.039c.78034 2.343 2.62431 3.838 4.11861 3.34 1.4943-.498 2.073-2.8 1.2927-5.142-.7804-2.343-2.6243-3.838-4.11857-3.34-1.4943.497-2.07308 2.8-1.29274 5.142Zm42.96401 61.318c.4299 1.563 2.8444 2.262 5.3929 1.562 2.5485-.701 4.2659-2.537 3.836-4.1-.4299-1.564-2.8443-2.263-5.3928-1.562-2.5485.701-4.266 2.536-3.8361 4.1Zm-22.0299-46.545c1.6788.4 3.6006-1.624 4.2924-4.523.6918-2.898-.1083-5.573-1.787-5.973-1.6788-.401-3.6006 1.624-4.2924 4.522-.6918 2.898.1082 5.573 1.787 5.974Zm-17.667 46.392c1.8621 3.339 4.9799 5.149 6.9639 4.043 1.984-1.106 2.0829-4.71.2208-8.049-1.8621-3.34-4.9799-5.15-6.9639-4.044-1.98402 1.107-2.08286 4.71-.2208 8.05Zm23.4783-27.656c3.5318 5.747 8.9821 8.815 12.1735 6.854 3.1915-1.962 2.9156-8.21-.6163-13.957-3.5318-5.747-8.9821-8.815-12.1735-6.854-3.1915 1.962-2.9155 8.21.6163 13.957Zm25.4013 11.138c.4617 1.679 2.7145 2.524 5.0316 1.887 2.3172-.637 3.8213-2.515 3.3596-4.194-.4617-1.679-2.7144-2.524-5.0316-1.887-2.3171.638-3.8213 2.515-3.3596 4.194ZM24.7247 222.97c-.0748 2.247 2.7147 4.163 6.2304 4.28 3.5158.117 6.4265-1.61 6.5012-3.857.0748-2.247-2.7147-4.164-6.2305-4.28-3.5157-.117-6.4264 1.609-6.5011 3.857Zm14.7877 1.318c.7449 2.709 4.1105 4.145 7.5172 3.209 3.4067-.937 5.5645-3.893 4.8197-6.602-.7449-2.709-4.1105-4.145-7.5172-3.209-3.4067.937-5.5646 3.893-4.8197 6.602Zm174.7986-95.937c-.073 2.181 2.634 4.041 6.045 4.155 3.411.113 6.236-1.563 6.308-3.744.073-2.182-2.634-4.042-6.045-4.156-3.412-.113-6.236 1.563-6.308 3.745Zm14.504 1.337c.759 2.761 4.188 4.226 7.658 3.271 3.47-.954 5.668-3.966 4.909-6.727-.76-2.761-4.188-4.226-7.659-3.272-3.47.954-5.667 3.966-4.908 6.728ZM189.05 273.973c-.069 2.085 2.515 3.863 5.771 3.971 3.257.109 5.953-1.494 6.023-3.578.069-2.085-2.515-3.863-5.772-3.971-3.256-.108-5.952 1.494-6.022 3.578Zm12.686.994c.739 2.687 4.078 4.111 7.459 3.181 3.38-.929 5.522-3.861 4.783-6.547-.738-2.687-4.078-4.111-7.458-3.181-3.381.929-5.523 3.861-4.784 6.547ZM19.6136 186.875c1.8928 2.007 4.4886 2.634 5.7979 1.4 1.3093-1.235.8362-3.863-1.0566-5.871-1.8928-2.007-4.4887-2.634-5.7979-1.399-1.3093 1.234-.8363 3.862 1.0566 5.87Zm52.675 11.055c1.5851.498 3.5284-1.193 4.3405-3.777.8121-2.584.1854-5.083-1.3997-5.581-1.5851-.498-3.5284 1.193-4.3405 3.777-.8121 2.584-.1854 5.083 1.3997 5.581Zm15.6804-22.383c.4761 1.731 3.1488 2.506 5.9697 1.73 2.8209-.775 4.7217-2.808 4.2457-4.539-.4761-1.731-3.1488-2.506-5.9697-1.73-2.8209.775-4.7217 2.808-4.2457 4.539Zm-51.1718-17.81c1.0516 1.886 2.8111 2.909 3.9299 2.285 1.1187-.624 1.1731-2.658.1214-4.544-1.0516-1.886-2.8111-2.909-3.9299-2.285-1.1187.623-1.1731 2.658-.1214 4.544Zm-6.2386-10.805c.7095 3.659 3.1786 6.257 5.5151 5.804 2.3364-.453 3.6553-3.786 2.9459-7.445-.7095-3.658-3.1787-6.257-5.5151-5.803-2.3365.453-3.6553 3.786-2.9459 7.444Z"/>
  <path fill="#2A5EBC" d="M61.737 180.548c-.0658 1.977 2.3861 3.662 5.4764 3.765 3.0903.103 5.6488-1.416 5.7146-3.393.0657-1.976-2.3862-3.661-5.4765-3.764-3.0903-.103-5.6488 1.416-5.7145 3.392Zm32.8719 8.874c.4945 1.799 2.7285 2.753 4.9897 2.131 2.2614-.622 3.6934-2.584 3.1984-4.382-.494-1.799-2.728-2.753-4.9893-2.131-2.2612.622-3.6934 2.584-3.1988 4.382Z"/>
</svg>
