<svg width="90" height="7" viewBox="0 0 90 7" fill="none" xmlns="http://www.w3.org/2000/svg">
<path d="M5.60517 6.46185H4.298V1.84647H2.78355L2.71586 2.36014C2.54101 3.66604 2.3859 4.58222 2.25053 5.10867C2.11798 5.63256 1.92479 6.00185 1.67098 6.21651C1.41998 6.43118 1.07168 6.53852 0.626087 6.53852C0.389189 6.53852 0.180494 6.51041 0 6.45418V5.48051C0.163572 5.53162 0.317274 5.55717 0.461105 5.55717C0.610576 5.55717 0.729025 5.49584 0.816451 5.37317C0.903878 5.24795 0.985664 5.01795 1.06181 4.68316C1.14078 4.34583 1.24371 3.7951 1.37062 3.03098C1.50035 2.2643 1.61034 1.5398 1.70059 0.857455H5.60517V6.46185Z" fill="#0A3B93"/>
<path d="M10.7281 6.46185H7.16616V0.857455H10.7281V1.83113H8.47756V3.06165H10.5716V4.03532H8.47756V5.48051H10.7281V6.46185Z" fill="#0A3B93"/>
<path d="M14.4085 6.46185H13.0971V1.84647H11.4176V0.857455H16.0879V1.84647H14.4085V6.46185Z" fill="#0A3B93"/>
<path d="M23.7828 6.46185H22.4757V4.04299H20.0263V6.46185H18.7149V0.857455H20.0263V3.05398H22.4757V0.857455H23.7828V6.46185Z" fill="#0A3B93"/>
<path d="M29.1342 6.46185L28.6858 5.12784H26.431L25.9826 6.46185H24.5697L26.7525 0.834454H28.3558L30.5471 6.46185H29.1342ZM28.3727 4.13116C27.9582 2.92237 27.7241 2.23875 27.6705 2.0803C27.6197 1.92186 27.5831 1.79663 27.5605 1.70463C27.4674 2.03175 27.2009 2.84059 26.761 4.13116H28.3727Z" fill="#0A3B93"/>
<path d="M35.8815 5.47284H37.8021V0.857455H39.1093V6.46185H31.3297V0.857455H32.6411V5.47284H34.5617V0.857455H35.8815V5.47284Z" fill="#0A3B93"/>
<path d="M44.2322 6.46185H40.6703V0.857455H44.2322V1.83113H41.9817V3.06165H44.0757V4.03532H41.9817V5.48051H44.2322V6.46185Z" fill="#0A3B93"/>
<path d="M49.4355 0.857455V1.8388H46.8381V6.46185H45.5267V0.857455H49.4355Z" fill="#0A3B93"/>
<path d="M55.9206 3.65199C55.9206 4.57966 55.6667 5.29267 55.1591 5.79101C54.6515 6.28935 53.9239 6.53852 52.9763 6.53852C52.0287 6.53852 51.3011 6.28935 50.7934 5.79101C50.2858 5.29267 50.032 4.57711 50.032 3.64432C50.032 2.71153 50.2858 1.9998 50.7934 1.50913C51.3039 1.0159 52.0343 0.769287 52.9847 0.769287C53.9351 0.769287 54.6613 1.01718 55.1633 1.51296C55.6682 2.00875 55.9206 2.72175 55.9206 3.65199ZM51.4068 3.65199C51.4068 4.2781 51.538 4.74961 51.8002 5.0665C52.0625 5.38339 52.4545 5.54184 52.9763 5.54184C54.0226 5.54184 54.5457 4.91189 54.5457 3.65199C54.5457 2.38953 54.0254 1.7583 52.9847 1.7583C52.463 1.7583 52.0696 1.91802 51.8045 2.23747C51.5394 2.55436 51.4068 3.02587 51.4068 3.65199Z" fill="#0A3B93"/>
<path d="M64.4912 3.65199C64.4912 4.57966 64.2374 5.29267 63.7297 5.79101C63.2221 6.28935 62.4945 6.53852 61.5469 6.53852C60.5993 6.53852 59.8717 6.28935 59.364 5.79101C58.8564 5.29267 58.6026 4.57711 58.6026 3.64432C58.6026 2.71153 58.8564 1.9998 59.364 1.50913C59.8745 1.0159 60.6049 0.769287 61.5553 0.769287C62.5058 0.769287 63.232 1.01718 63.734 1.51296C64.2388 2.00875 64.4912 2.72175 64.4912 3.65199ZM59.9774 3.65199C59.9774 4.2781 60.1086 4.74961 60.3709 5.0665C60.6331 5.38339 61.0251 5.54184 61.5469 5.54184C62.5932 5.54184 63.1163 4.91189 63.1163 3.65199C63.1163 2.38953 62.596 1.7583 61.5553 1.7583C61.0336 1.7583 60.6402 1.91802 60.3751 2.23747C60.11 2.55436 59.9774 3.02587 59.9774 3.65199Z" fill="#0A3B93"/>
<path d="M70.6674 6.46185H69.3603V1.84647H67.0844V6.46185H65.773V0.857455H70.6674V6.46185Z" fill="#0A3B93"/>
<path d="M76.4588 4.71C76.4588 5.29267 76.2444 5.73095 75.8157 6.02485C75.3899 6.31618 74.7582 6.46185 73.9206 6.46185H72.2284V0.857455H73.5398V3.00798H73.9629C74.7553 3.00798 75.3687 3.15748 75.8031 3.45648C76.2402 3.75293 76.4588 4.17077 76.4588 4.71ZM73.5398 5.48817H73.8825C74.314 5.48817 74.6298 5.42428 74.8301 5.2965C75.0303 5.16617 75.1304 4.97067 75.1304 4.71C75.1304 4.44933 75.0331 4.26277 74.8385 4.15032C74.6468 4.03788 74.3083 3.98166 73.8233 3.98166H73.5398V5.48817ZM78.5189 6.46185H77.2117V0.857455H78.5189V6.46185Z" fill="#0A3B93"/>
<path d="M82.4658 6.46185H81.1544V1.84647H79.475V0.857455H84.1452V1.84647H82.4658V6.46185Z" fill="#0A3B93"/>
<path d="M88.5871 6.46185L88.1387 5.12784H85.8839L85.4355 6.46185H84.0226L86.2054 0.834454H87.8087L90 6.46185H88.5871ZM87.8256 4.13116C87.411 2.92237 87.177 2.23875 87.1234 2.0803C87.0726 1.92186 87.036 1.79663 87.0134 1.70463C86.9203 2.03175 86.6538 2.84059 86.2139 4.13116H87.8256Z" fill="#0A3B93"/>
</svg>
